<svg xmlns="http://www.w3.org/2000/svg" xmlns:v="https://svgstorm.com"
viewBox = "0 0 491 126"
width="491"
height="126">
<g fill="None" fill-opacity="0.0" stroke="#FBFCFC" stroke-opacity="1.00" stroke-width="0.3"><path d="
M 0.00 126.00 
L 491.00 126.00
L 491.00 0.00
L 0.00 0.00
L 0.00 126.00
M 62.00 86.00 
C 63.94 85.67 66.04 86.25 68.00 86.00
C 68.00 83.00 68.00 80.00 68.00 77.00
C 66.08 77.15 64.57 75.24 62.00 75.00
C 55.70 75.27 45.63 76.66 48.93 68.93 C 52.23 61.20 53.44 59.54 60.00 56.00
C 62.41 54.70 62.68 54.25 66.00 54.00
C 69.29 53.75 72.70 54.00 76.00 54.00
C 79.17 54.00 85.88 52.80 88.00 55.00
C 88.25 55.26 88.00 56.00 88.00 56.00
C 91.67 60.96 87.68 70.80 89.00 77.00 C 90.32 83.20 90.73 89.47 90.00 96.00
C 89.35 101.84 84.05 102.08 84.00 108.00
C 68.39 109.82 45.21 115.49 34.00 101.00
C 32.25 99.85 29.19 97.69 27.00 99.00
C 25.11 91.65 20.46 86.86 18.02 78.98 C 15.59 71.09 12.82 61.59 16.00 53.00
C 16.99 48.04 17.58 40.96 23.00 39.00
C 21.22 28.88 29.10 29.70 35.25 24.25 C 41.39 18.79 47.66 17.96 56.22 18.78 C 64.78 19.59 72.76 20.37 82.02 18.02 C 91.29 15.68 92.35 25.53 90.00 34.00
C 84.83 38.69 81.03 40.40 74.90 42.90 C 68.77 45.41 64.43 38.40 58.30 42.30 C 52.18 46.20 48.44 46.44 43.74 51.74 C 39.05 57.05 36.14 60.43 37.67 67.67 C 39.19 74.92 41.51 77.59 45.00 83.00
C 47.74 83.03 50.08 81.37 53.00 82.00
C 47.90 86.05 53.42 84.60 57.00 84.00
C 52.68 86.74 59.90 85.88 62.00 86.00
M 161.00 40.00 
C 160.91 40.48 161.00 41.00 161.00 41.00
C 162.66 43.25 161.29 46.50 163.00 49.00
C 159.40 52.20 159.71 61.58 157.00 68.00
C 152.77 66.71 151.09 71.48 148.00 73.00
C 151.57 78.85 158.50 92.00 166.00 89.00
C 165.54 93.89 169.58 99.23 167.00 104.00
C 166.39 105.07 166.03 105.40 165.00 106.00
C 162.62 107.94 156.45 110.39 153.00 109.00 C 149.55 107.61 141.48 110.26 147.00 107.00
C 134.94 103.13 129.40 88.62 118.00 83.00
C 115.06 90.45 122.98 104.52 115.92 108.92 C 108.86 113.32 100.51 104.19 96.00 100.00
C 96.67 85.17 94.67 69.01 97.00 55.00
C 100.00 52.00 107.57 54.58 112.00 54.00 C 116.43 53.42 123.34 54.00 128.00 54.00
C 127.76 53.88 127.63 49.87 126.00 50.00
C 128.88 48.51 129.44 50.27 130.00 52.00
C 135.99 51.72 135.94 46.01 139.00 42.00
C 128.33 43.21 111.94 43.85 102.31 40.69 C 92.67 37.54 90.08 18.04 102.00 19.00 C 113.92 19.96 130.52 17.80 142.00 19.00 C 153.48 20.20 159.35 31.17 161.00 40.00
M 259.00 26.00 
C 260.10 27.55 261.25 36.45 261.00 38.00
C 272.13 37.01 282.25 40.87 278.67 54.67 C 275.10 68.47 260.06 60.22 251.00 63.00
C 251.00 50.00 251.00 37.00 251.00 24.00
C 253.48 24.74 258.82 22.19 259.00 26.00
M 209.00 50.00 
C 206.49 49.18 203.98 50.98 202.00 49.00
C 200.29 47.29 201.24 44.39 201.00 42.00
C 208.00 42.00 215.00 42.00 222.00 42.00
C 221.89 43.00 222.47 44.73 221.00 45.00
C 220.79 45.39 221.02 46.50 221.00 47.00
C 220.62 59.02 206.02 67.11 195.31 62.69 C 184.59 58.28 180.86 41.61 188.25 34.25 C 195.64 26.89 211.12 18.69 217.75 31.25 C 224.38 43.81 198.96 26.77 194.08 39.08 C 189.21 51.40 206.48 63.15 212.00 50.00
C 211.00 50.00 210.00 50.00 209.00 50.00
M 332.00 26.00 
C 339.42 26.40 343.03 28.11 345.97 35.03 C 348.92 41.94 341.75 45.71 341.00 52.00
C 344.04 52.15 345.69 53.56 344.00 57.00
C 353.75 60.39 343.81 66.80 339.25 61.75 C 334.69 56.70 333.55 51.79 327.00 50.00
C 327.00 54.33 327.00 58.67 327.00 63.00
C 324.52 62.26 319.18 64.81 319.00 61.00
C 315.11 55.51 317.98 38.03 319.00 32.00
C 319.33 30.06 318.75 27.96 319.00 26.00
C 320.67 26.00 322.33 26.00 324.00 26.00
C 327.01 25.27 329.12 25.53 332.00 26.00
M 232.00 51.00 
C 237.30 64.36 242.71 43.21 240.00 37.00
C 254.30 34.74 245.65 54.60 248.00 63.00
C 240.57 60.37 225.88 67.88 224.00 56.00
C 223.50 54.44 223.08 53.10 223.00 51.00
C 222.81 46.34 223.14 41.66 223.00 37.00
C 225.67 37.00 228.33 37.00 231.00 37.00
C 233.50 37.72 231.59 48.70 232.00 51.00
M 294.00 50.00 
C 296.09 44.35 298.80 35.00 307.00 37.00
C 304.42 44.33 301.71 52.56 298.68 59.68 C 295.65 66.79 293.57 78.25 283.00 76.00
C 292.63 63.07 284.11 49.66 279.00 37.00
C 289.94 33.21 289.75 44.43 294.00 50.00
M 376.00 48.00 
C 376.25 47.56 377.82 47.32 378.00 47.00
C 378.79 38.26 389.89 33.50 396.00 40.00
C 397.71 37.01 401.60 36.68 405.00 37.00
C 404.29 48.95 407.87 63.79 400.25 73.25 C 392.62 82.71 370.04 69.11 385.00 65.00
C 387.75 70.98 399.01 68.07 397.00 61.00
C 389.70 66.45 379.07 60.72 378.00 52.00
C 377.80 52.59 376.29 53.48 376.00 54.00
C 371.98 61.07 366.26 66.33 357.32 62.68 C 348.38 59.03 348.88 49.58 349.00 42.00
C 357.18 34.57 373.27 35.97 376.00 48.00
M 432.00 45.00 
C 432.99 47.28 434.82 49.91 434.00 53.00
C 428.00 53.00 422.00 53.00 416.00 53.00
C 414.62 58.02 426.29 57.70 428.00 55.00
C 435.14 62.94 419.55 66.29 412.98 62.02 C 406.40 57.76 405.05 46.11 411.75 40.75 C 418.45 35.39 429.91 35.23 432.00 45.00
M 453.00 42.00 
C 453.27 41.75 454.00 42.00 454.00 42.00
C 458.67 35.32 467.92 35.89 473.00 42.00
C 470.93 48.24 464.26 41.57 461.00 45.00
C 463.30 49.27 468.92 47.71 473.00 48.00
C 473.37 55.66 471.86 66.63 460.33 63.67 C 448.80 60.71 454.13 50.67 464.00 58.00
C 467.01 51.27 454.23 54.43 454.00 48.00
C 453.47 46.91 453.08 46.59 453.00 45.00
C 451.10 46.86 445.17 45.17 445.03 50.03 C 444.88 54.89 443.00 57.96 444.00 63.00
C 430.20 63.25 438.52 44.80 436.00 37.00
C 442.04 40.38 452.60 32.90 453.00 42.00
M 236.00 67.00 
C 236.37 81.17 228.30 95.37 227.00 110.00
C 219.81 105.85 224.69 95.03 227.32 88.32 C 229.96 81.62 229.42 71.41 236.00 67.00
M 271.00 84.00 
C 280.92 76.57 291.88 89.14 288.67 98.67 C 285.46 108.20 272.93 112.91 267.00 104.00
C 264.65 105.61 263.86 109.28 260.00 108.00
C 260.54 103.19 263.28 98.69 263.93 93.93 C 264.58 89.16 267.84 83.65 267.93 78.93 C 268.01 74.20 271.84 65.73 275.29 70.71 C 278.75 75.68 268.14 78.38 271.00 84.00
M 335.00 71.00 
C 329.83 76.03 331.43 84.36 328.22 90.22 C 325.02 96.09 327.86 108.63 319.00 108.00
C 321.09 101.66 323.13 92.36 325.32 86.32 C 327.52 80.28 326.14 66.35 335.00 71.00
M 192.00 89.00 
C 191.75 91.15 191.78 93.84 192.00 96.00
C 194.74 107.79 215.37 106.74 217.00 94.00
C 211.61 92.61 202.84 98.00 202.00 90.00
C 209.00 90.00 216.00 90.00 223.00 90.00
C 221.60 99.83 215.78 107.42 204.99 108.99 C 194.21 110.56 185.42 100.86 187.00 90.00 C 188.58 79.14 195.89 73.84 205.01 71.01 C 214.12 68.18 227.41 77.70 219.00 84.00
C 215.31 68.78 192.37 75.04 192.00 89.00
M 253.00 82.00 
C 267.79 86.49 256.87 114.75 241.78 108.22 C 226.69 101.69 236.67 77.04 253.00 82.00
M 315.00 87.00 
C 314.38 84.17 317.16 81.38 320.00 82.00
C 317.02 90.66 318.57 101.29 311.00 108.00
C 305.15 106.75 296.72 111.66 292.75 104.25 C 288.78 96.83 291.28 90.30 297.08 86.08 C 302.89 81.86 310.05 80.31 315.00 87.00 Z"/>
</g>
<g fill="None" fill-opacity="0.0" stroke="#DDFBFC" stroke-opacity="1.00" stroke-width="0.3"><path d="
M 16.00 53.00 
C 17.75 48.21 20.60 40.84 26.00 39.00
C 24.03 32.24 29.82 28.30 35.00 26.00
C 35.44 25.84 36.00 26.00 36.00 26.00
C 41.40 20.37 51.79 17.43 60.00 20.00 C 68.21 22.57 81.87 14.73 88.25 20.75 C 94.62 26.78 84.31 38.93 78.00 40.00
C 73.02 40.84 67.61 39.64 63.00 39.00
C 61.54 38.80 60.54 38.03 59.00 38.00
C 61.38 40.21 58.14 42.03 56.00 42.00
C 55.00 42.32 54.03 42.68 53.00 43.00
C 46.83 44.89 43.61 46.80 38.75 51.75 C 33.89 56.70 34.59 62.04 35.00 68.00
C 35.23 71.34 36.36 75.13 38.00 78.00
C 39.19 79.76 43.38 83.01 45.00 84.00
C 45.49 84.08 46.57 83.83 47.00 84.00
C 49.18 84.86 52.06 86.68 54.00 87.00
C 56.97 87.23 59.76 86.38 62.00 86.00
C 59.90 85.88 52.68 86.74 57.00 84.00
C 53.42 84.60 47.90 86.05 53.00 82.00
C 50.08 81.37 47.74 83.03 45.00 83.00
C 41.51 77.59 39.19 74.92 37.67 67.67 C 36.14 60.43 39.05 57.05 43.74 51.74 C 48.44 46.44 52.18 46.20 58.30 42.30 C 64.43 38.40 68.77 45.41 74.90 42.90 C 81.03 40.40 84.83 38.69 90.00 34.00
C 92.35 25.53 91.29 15.68 82.02 18.02 C 72.76 20.37 64.78 19.59 56.22 18.78 C 47.66 17.96 41.39 18.79 35.25 24.25 C 29.10 29.70 21.22 28.88 23.00 39.00
C 17.58 40.96 16.99 48.04 16.00 53.00 Z"/>
</g>
<g fill="None" fill-opacity="0.0" stroke="#BCFCF2" stroke-opacity="1.00" stroke-width="0.3"><path d="
M 36.00 26.00 
C 38.93 24.94 41.01 22.93 44.00 22.00
C 52.34 19.40 62.25 21.91 71.00 21.00 C 79.75 20.09 91.05 19.87 88.00 32.00
C 84.26 33.47 82.05 38.54 78.00 40.00
C 84.31 38.93 94.62 26.78 88.25 20.75 C 81.87 14.73 68.21 22.57 60.00 20.00 C 51.79 17.43 41.40 20.37 36.00 26.00 Z"/>
</g>
<g fill="None" fill-opacity="0.0" stroke="#D8FBFB" stroke-opacity="1.00" stroke-width="0.3"><path d="
M 128.00 54.00 
C 129.33 54.00 130.67 54.05 132.00 54.00
C 133.93 53.93 134.65 54.17 136.00 53.00
C 136.43 52.63 137.43 49.76 138.00 49.00
C 146.40 37.80 163.43 51.89 157.00 64.00
C 150.66 67.87 141.30 71.81 147.75 78.25 C 154.20 84.68 156.71 88.90 163.00 95.00
C 163.40 95.65 163.63 96.37 164.00 97.00
C 165.71 98.91 167.93 100.80 167.00 104.00
C 169.58 99.23 165.54 93.89 166.00 89.00
C 158.50 92.00 151.57 78.85 148.00 73.00
C 151.09 71.48 152.77 66.71 157.00 68.00
C 159.71 61.58 159.40 52.20 163.00 49.00
C 161.29 46.50 162.66 43.25 161.00 41.00
C 161.18 42.90 161.70 46.96 160.00 48.00
C 156.58 50.09 149.73 40.32 143.78 41.22 C 137.83 42.13 126.46 41.00 120.00 41.00
C 115.49 41.44 102.77 42.32 99.25 37.75 C 95.74 33.17 93.16 19.68 101.00 20.00 C 108.85 20.33 120.30 19.83 128.00 20.00 C 135.70 20.17 144.36 19.27 149.75 24.25 C 155.13 29.24 158.95 33.83 161.00 40.00
C 159.35 31.17 153.48 20.20 142.00 19.00 C 130.52 17.80 113.92 19.96 102.00 19.00 C 90.08 18.04 92.67 37.54 102.31 40.69 C 111.94 43.85 128.33 43.21 139.00 42.00
C 135.94 46.01 135.99 51.72 130.00 52.00
C 129.44 50.27 128.88 48.51 126.00 50.00
C 127.63 49.87 127.76 53.88 128.00 54.00 Z"/>
</g>
<g fill="None" fill-opacity="0.0" stroke="#A7F5E7" stroke-opacity="1.00" stroke-width="0.3"><path d="
M 120.00 41.00 
C 119.00 41.00 118.00 41.00 117.00 41.00
C 111.43 41.02 107.54 37.89 102.00 38.00
C 98.61 33.98 98.47 27.62 98.00 22.00
C 116.18 25.15 142.78 13.86 154.00 32.00
C 157.93 36.78 161.90 40.64 160.00 48.00
C 161.70 46.96 161.18 42.90 161.00 41.00
C 161.00 41.00 160.91 40.48 161.00 40.00
C 158.95 33.83 155.13 29.24 149.75 24.25 C 144.36 19.27 135.70 20.17 128.00 20.00 C 120.30 19.83 108.85 20.33 101.00 20.00 C 93.16 19.68 95.74 33.17 99.25 37.75 C 102.77 42.32 115.49 41.44 120.00 41.00 Z"/>
</g>
<g fill="None" fill-opacity="0.0" stroke="#4FF4D3" stroke-opacity="1.00" stroke-width="0.3"><path d="
M 44.00 22.00 
C 45.84 22.23 49.92 27.13 54.00 26.00 C 58.08 24.87 60.37 30.82 63.00 32.00
C 62.66 34.43 59.97 34.61 60.00 37.00
C 61.18 37.47 62.12 38.56 63.00 39.00
C 67.61 39.64 73.02 40.84 78.00 40.00
C 82.05 38.54 84.26 33.47 88.00 32.00
C 91.05 19.87 79.75 20.09 71.00 21.00 C 62.25 21.91 52.34 19.40 44.00 22.00 Z"/>
</g>
<g fill="None" fill-opacity="0.0" stroke="#5FE0D7" stroke-opacity="1.00" stroke-width="0.3"><path d="
M 36.00 26.00 
C 36.00 26.00 35.44 25.84 35.00 26.00
C 32.09 29.04 26.10 30.68 27.00 36.00
C 37.90 30.93 49.79 32.92 60.00 37.00
C 59.97 34.61 62.66 34.43 63.00 32.00
C 60.37 30.82 58.08 24.87 54.00 26.00 C 49.92 27.13 45.84 22.23 44.00 22.00
C 41.01 22.93 38.93 24.94 36.00 26.00 Z"/>
</g>
<g fill="None" fill-opacity="0.0" stroke="#54F6D5" stroke-opacity="1.00" stroke-width="0.3"><path d="
M 117.00 41.00 
C 118.37 40.39 117.37 36.97 117.00 36.00
C 129.36 31.32 141.54 29.52 154.00 32.00
C 142.78 13.86 116.18 25.15 98.00 22.00
C 98.47 27.62 98.61 33.98 102.00 38.00
C 107.54 37.89 111.43 41.02 117.00 41.00 Z"/>
</g>
<g fill="None" fill-opacity="0.0" stroke="#292848" stroke-opacity="1.00" stroke-width="0.3"><path d="
M 261.00 38.00 
C 261.38 37.97 260.29 41.28 259.00 40.00
C 259.00 35.33 259.00 30.67 259.00 26.00
C 258.82 22.19 253.48 24.74 251.00 24.00
C 251.00 37.00 251.00 50.00 251.00 63.00
C 260.06 60.22 275.10 68.47 278.67 54.67 C 282.25 40.87 272.13 37.01 261.00 38.00
M 267.00 44.00 
C 274.20 45.57 270.41 58.50 263.00 56.00 C 255.58 53.50 260.45 42.57 267.00 44.00 Z"/>
</g>
<g fill="None" fill-opacity="0.0" stroke="#272548" stroke-opacity="1.00" stroke-width="0.3"><path d="
M 221.00 47.00 
C 220.53 46.20 219.47 45.38 220.00 44.00
C 214.33 44.00 208.67 44.00 203.00 44.00
C 201.05 49.63 206.26 48.35 209.00 50.00
C 210.00 50.00 211.00 50.00 212.00 50.00
C 206.48 63.15 189.21 51.40 194.08 39.08 C 198.96 26.77 224.38 43.81 217.75 31.25 C 211.12 18.69 195.64 26.89 188.25 34.25 C 180.86 41.61 184.59 58.28 195.31 62.69 C 206.02 67.11 220.62 59.02 221.00 47.00 Z"/>
</g>
<g fill="None" fill-opacity="0.0" stroke="#90909F" stroke-opacity="1.00" stroke-width="0.3"><path d="
M 324.00 26.00 
C 326.52 25.70 329.46 25.86 332.00 26.00
C 329.12 25.53 327.01 25.27 324.00 26.00 Z"/>
</g>
<g fill="None" fill-opacity="0.0" stroke="#BEF8FB" stroke-opacity="1.00" stroke-width="0.3"><path d="
M 16.00 53.00 
C 12.82 61.59 15.59 71.09 18.02 78.98 C 20.46 86.86 25.11 91.65 27.00 99.00
C 29.19 97.69 32.25 99.85 34.00 101.00
C 37.60 103.37 39.99 105.80 45.00 106.00
C 35.39 102.68 25.17 91.02 21.00 82.00
C 18.06 75.65 15.59 69.66 16.00 62.00 C 16.41 54.34 19.69 50.69 22.75 43.75 C 25.81 36.82 35.00 37.09 40.00 36.00 C 45.00 34.91 62.29 38.25 56.00 42.00
C 58.14 42.03 61.38 40.21 59.00 38.00
C 60.54 38.03 61.54 38.80 63.00 39.00
C 62.12 38.56 61.18 37.47 60.00 37.00
C 49.79 32.92 37.90 30.93 27.00 36.00
C 26.10 30.68 32.09 29.04 35.00 26.00
C 29.82 28.30 24.03 32.24 26.00 39.00
C 20.60 40.84 17.75 48.21 16.00 53.00 Z"/>
</g>
<g fill="None" fill-opacity="0.0" stroke="#9B9AAF" stroke-opacity="1.00" stroke-width="0.3"><path d="
M 261.00 38.00 
C 261.25 36.45 260.10 27.55 259.00 26.00
C 259.00 30.67 259.00 35.33 259.00 40.00
C 260.29 41.28 261.38 37.97 261.00 38.00 Z"/>
</g>
<g fill="None" fill-opacity="0.0" stroke="#242446" stroke-opacity="1.00" stroke-width="0.3"><path d="
M 319.00 32.00 
C 318.74 36.28 318.34 41.79 319.00 46.00 C 319.66 50.21 317.18 57.23 319.00 61.00
C 319.18 64.81 324.52 62.26 327.00 63.00
C 327.00 58.67 327.00 54.33 327.00 50.00
C 333.55 51.79 334.69 56.70 339.25 61.75 C 343.81 66.80 353.75 60.39 344.00 57.00
C 345.69 53.56 344.04 52.15 341.00 52.00
C 341.75 45.71 348.92 41.94 345.97 35.03 C 343.03 28.11 339.42 26.40 332.00 26.00
C 329.46 25.86 326.52 25.70 324.00 26.00
C 322.33 26.00 320.67 26.00 319.00 26.00
C 318.75 27.96 319.33 30.06 319.00 32.00
M 327.00 42.00 
C 327.00 39.00 327.00 36.00 327.00 33.00
C 339.62 30.35 340.58 45.81 327.00 42.00 Z"/>
</g>
<g fill="None" fill-opacity="0.0" stroke="#51E0D9" stroke-opacity="1.00" stroke-width="0.3"><path d="
M 117.00 41.00 
C 118.00 41.00 119.00 41.00 120.00 41.00
C 126.46 41.00 137.83 42.13 143.78 41.22 C 149.73 40.32 156.58 50.09 160.00 48.00
C 161.90 40.64 157.93 36.78 154.00 32.00
C 141.54 29.52 129.36 31.32 117.00 36.00
C 117.37 36.97 118.37 40.39 117.00 41.00 Z"/>
</g>
<g fill="None" fill-opacity="0.0" stroke="#9493A2" stroke-opacity="1.00" stroke-width="0.3"><path d="
M 319.00 61.00 
C 317.18 57.23 319.66 50.21 319.00 46.00 C 318.34 41.79 318.74 36.28 319.00 32.00
C 317.98 38.03 315.11 55.51 319.00 61.00 Z"/>
</g>
<g fill="None" fill-opacity="0.0" stroke="#E8EAF0" stroke-opacity="1.00" stroke-width="0.3"><path d="
M 327.00 42.00 
C 340.58 45.81 339.62 30.35 327.00 33.00
C 327.00 36.00 327.00 39.00 327.00 42.00 Z"/>
</g>
<g fill="None" fill-opacity="0.0" stroke="#3DC5E7" stroke-opacity="1.00" stroke-width="0.3"><path d="
M 21.00 82.00 
C 18.91 74.39 20.10 63.64 23.93 56.93 C 27.75 50.21 34.61 46.13 41.22 43.22 C 47.83 40.32 46.97 43.23 53.00 43.00
C 54.03 42.68 55.00 42.32 56.00 42.00
C 62.29 38.25 45.00 34.91 40.00 36.00 C 35.00 37.09 25.81 36.82 22.75 43.75 C 19.69 50.69 16.41 54.34 16.00 62.00 C 15.59 69.66 18.06 75.65 21.00 82.00 Z"/>
</g>
<g fill="None" fill-opacity="0.0" stroke="#222140" stroke-opacity="1.00" stroke-width="0.3"><path d="
M 223.00 51.00 
C 223.13 51.96 223.73 54.57 224.00 56.00
C 225.88 67.88 240.57 60.37 248.00 63.00
C 245.65 54.60 254.30 34.74 240.00 37.00
C 242.71 43.21 237.30 64.36 232.00 51.00
C 231.59 49.97 231.13 49.51 231.00 48.00
C 230.22 44.85 229.66 42.16 231.00 39.00
C 231.00 38.50 231.19 37.08 231.00 37.00
C 228.33 37.00 225.67 37.00 223.00 37.00
C 223.14 41.66 222.81 46.34 223.00 51.00 Z"/>
</g>
<g fill="None" fill-opacity="0.0" stroke="#AAAAB9" stroke-opacity="1.00" stroke-width="0.3"><path d="
M 231.00 39.00 
C 231.00 41.96 230.75 45.05 231.00 48.00
C 231.13 49.51 231.59 49.97 232.00 51.00
C 231.59 48.70 233.50 37.72 231.00 37.00
C 231.19 37.08 231.00 38.50 231.00 39.00 Z"/>
</g>
<g fill="None" fill-opacity="0.0" stroke="#2E2D4A" stroke-opacity="1.00" stroke-width="0.3"><path d="
M 294.00 50.00 
C 289.75 44.43 289.94 33.21 279.00 37.00
C 284.11 49.66 292.63 63.07 283.00 76.00
C 293.57 78.25 295.65 66.79 298.68 59.68 C 301.71 52.56 304.42 44.33 307.00 37.00
C 298.80 35.00 296.09 44.35 294.00 50.00 Z"/>
</g>
<g fill="None" fill-opacity="0.0" stroke="#272847" stroke-opacity="1.00" stroke-width="0.3"><path d="
M 376.00 54.00 
C 376.26 52.26 376.24 49.74 376.00 48.00
C 373.27 35.97 357.18 34.57 349.00 42.00
C 348.88 49.58 348.38 59.03 357.32 62.68 C 366.26 66.33 371.98 61.07 376.00 54.00
M 364.00 44.00 
C 370.74 45.47 368.67 57.93 361.00 56.00 C 353.32 54.07 357.48 42.58 364.00 44.00 Z"/>
</g>
<g fill="None" fill-opacity="0.0" stroke="#252544" stroke-opacity="1.00" stroke-width="0.3"><path d="
M 378.00 47.00 
C 377.86 48.54 377.81 50.47 378.00 52.00
C 379.07 60.72 389.70 66.45 397.00 61.00
C 399.01 68.07 387.75 70.98 385.00 65.00
C 370.04 69.11 392.62 82.71 400.25 73.25 C 407.87 63.79 404.29 48.95 405.00 37.00
C 401.60 36.68 397.71 37.01 396.00 40.00
C 389.89 33.50 378.79 38.26 378.00 47.00
M 395.00 44.00 
C 401.04 46.95 395.17 59.14 388.78 55.22 C 382.39 51.30 388.37 40.76 395.00 44.00 Z"/>
</g>
<g fill="None" fill-opacity="0.0" stroke="#252645" stroke-opacity="1.00" stroke-width="0.3"><path d="
M 416.00 53.00 
C 417.47 47.66 428.72 53.69 432.00 52.00
C 432.00 49.67 432.00 47.33 432.00 45.00
C 429.91 35.23 418.45 35.39 411.75 40.75 C 405.05 46.11 406.40 57.76 412.98 62.02 C 419.55 66.29 435.14 62.94 428.00 55.00
C 426.29 57.70 414.62 58.02 416.00 53.00
M 425.00 47.00 
C 422.16 46.41 418.02 48.22 416.00 46.00
C 418.16 43.50 424.89 42.40 425.00 47.00 Z"/>
</g>
<g fill="None" fill-opacity="0.0" stroke="#222040" stroke-opacity="1.00" stroke-width="0.3"><path d="
M 453.00 45.00 
C 452.98 44.63 452.76 42.22 453.00 42.00
C 452.60 32.90 442.04 40.38 436.00 37.00
C 438.52 44.80 430.20 63.25 444.00 63.00
C 443.00 57.96 444.88 54.89 445.03 50.03 C 445.17 45.17 451.10 46.86 453.00 45.00 Z"/>
</g>
<g fill="None" fill-opacity="0.0" stroke="#2A2B45" stroke-opacity="1.00" stroke-width="0.3"><path d="
M 454.00 42.00 
C 454.40 43.91 453.58 46.09 454.00 48.00
C 454.23 54.43 467.01 51.27 464.00 58.00
C 454.13 50.67 448.80 60.71 460.33 63.67 C 471.86 66.63 473.37 55.66 473.00 48.00
C 468.92 47.71 463.30 49.27 461.00 45.00
C 464.26 41.57 470.93 48.24 473.00 42.00
C 467.92 35.89 458.67 35.32 454.00 42.00 Z"/>
</g>
<g fill="None" fill-opacity="0.0" stroke="#5A596F" stroke-opacity="1.00" stroke-width="0.3"><path d="
M 231.00 48.00 
C 230.75 45.05 231.00 41.96 231.00 39.00
C 229.66 42.16 230.22 44.85 231.00 48.00 Z"/>
</g>
<g fill="None" fill-opacity="0.0" stroke="#21AAEB" stroke-opacity="1.00" stroke-width="0.3"><path d="
M 21.00 82.00 
C 25.17 91.02 35.39 102.68 45.00 106.00
C 45.50 106.02 46.57 105.83 47.00 106.00
C 45.76 99.52 40.42 94.13 38.07 86.93 C 35.72 79.73 33.30 73.73 35.00 68.00
C 34.59 62.04 33.89 56.70 38.75 51.75 C 43.61 46.80 46.83 44.89 53.00 43.00
C 46.97 43.23 47.83 40.32 41.22 43.22 C 34.61 46.13 27.75 50.21 23.93 56.93 C 20.10 63.64 18.91 74.39 21.00 82.00 Z"/>
</g>
<g fill="None" fill-opacity="0.0" stroke="#9594A2" stroke-opacity="1.00" stroke-width="0.3"><path d="
M 202.00 49.00 
C 201.08 47.62 202.70 44.53 202.00 43.00
C 207.89 44.22 217.53 40.49 221.00 45.00
C 222.47 44.73 221.89 43.00 222.00 42.00
C 215.00 42.00 208.00 42.00 201.00 42.00
C 201.24 44.39 200.29 47.29 202.00 49.00 Z"/>
</g>
<g fill="None" fill-opacity="0.0" stroke="#9494AE" stroke-opacity="1.00" stroke-width="0.3"><path d="
M 453.00 45.00 
C 453.08 46.59 453.47 46.91 454.00 48.00
C 453.58 46.09 454.40 43.91 454.00 42.00
C 454.00 42.00 453.27 41.75 453.00 42.00
C 452.76 42.22 452.98 44.63 453.00 45.00 Z"/>
</g>
<g fill="None" fill-opacity="0.0" stroke="#48465B" stroke-opacity="1.00" stroke-width="0.3"><path d="
M 202.00 49.00 
C 203.98 50.98 206.49 49.18 209.00 50.00
C 206.26 48.35 201.05 49.63 203.00 44.00
C 208.67 44.00 214.33 44.00 220.00 44.00
C 219.47 45.38 220.53 46.20 221.00 47.00
C 221.02 46.50 220.79 45.39 221.00 45.00
C 217.53 40.49 207.89 44.22 202.00 43.00
C 202.70 44.53 201.08 47.62 202.00 49.00 Z"/>
</g>
<g fill="None" fill-opacity="0.0" stroke="#E9ECF0" stroke-opacity="1.00" stroke-width="0.3"><path d="
M 267.00 44.00 
C 260.45 42.57 255.58 53.50 263.00 56.00 C 270.41 58.50 274.20 45.57 267.00 44.00 Z"/>
</g>
<g fill="None" fill-opacity="0.0" stroke="#E9EDF1" stroke-opacity="1.00" stroke-width="0.3"><path d="
M 364.00 44.00 
C 357.48 42.58 353.32 54.07 361.00 56.00 C 368.67 57.93 370.74 45.47 364.00 44.00 Z"/>
</g>
<g fill="None" fill-opacity="0.0" stroke="#E7EAEF" stroke-opacity="1.00" stroke-width="0.3"><path d="
M 395.00 44.00 
C 388.37 40.76 382.39 51.30 388.78 55.22 C 395.17 59.14 401.04 46.95 395.00 44.00 Z"/>
</g>
<g fill="None" fill-opacity="0.0" stroke="#E2E7F3" stroke-opacity="1.00" stroke-width="0.3"><path d="
M 425.00 47.00 
C 424.89 42.40 418.16 43.50 416.00 46.00
C 418.02 48.22 422.16 46.41 425.00 47.00 Z"/>
</g>
<g fill="None" fill-opacity="0.0" stroke="#3DBFE8" stroke-opacity="1.00" stroke-width="0.3"><path d="
M 138.00 49.00 
C 145.08 43.99 148.44 59.89 144.74 64.74 C 141.05 69.59 144.61 77.61 149.25 81.75 C 153.89 85.90 158.86 90.56 163.00 95.00
C 156.71 88.90 154.20 84.68 147.75 78.25 C 141.30 71.81 150.66 67.87 157.00 64.00
C 163.43 51.89 146.40 37.80 138.00 49.00 Z"/>
</g>
<g fill="None" fill-opacity="0.0" stroke="#686B7B" stroke-opacity="1.00" stroke-width="0.3"><path d="
M 416.00 53.00 
C 422.00 53.00 428.00 53.00 434.00 53.00
C 434.82 49.91 432.99 47.28 432.00 45.00
C 432.00 47.33 432.00 49.67 432.00 52.00
C 428.72 53.69 417.47 47.66 416.00 53.00 Z"/>
</g>
<g fill="None" fill-opacity="0.0" stroke="#A9ACC8" stroke-opacity="1.00" stroke-width="0.3"><path d="
M 376.00 48.00 
C 376.24 49.74 376.26 52.26 376.00 54.00
C 376.29 53.48 377.80 52.59 378.00 52.00
C 377.81 50.47 377.86 48.54 378.00 47.00
C 377.82 47.32 376.25 47.56 376.00 48.00 Z"/>
</g>
<g fill="None" fill-opacity="0.0" stroke="#238BE9" stroke-opacity="1.00" stroke-width="0.3"><path d="
M 138.00 49.00 
C 137.43 49.76 136.43 52.63 136.00 53.00
C 145.04 53.50 133.33 64.38 131.25 67.25 C 129.17 70.12 117.66 75.92 117.00 79.00
C 118.26 76.52 120.37 80.37 121.00 81.00
C 129.56 89.65 139.25 104.27 151.00 107.00
C 153.92 107.33 157.06 107.00 160.00 107.00
C 160.50 107.00 161.50 107.04 162.00 107.00
C 166.76 104.98 166.20 100.81 164.00 97.00
C 163.63 96.37 163.40 95.65 163.00 95.00
C 158.86 90.56 153.89 85.90 149.25 81.75 C 144.61 77.61 141.05 69.59 144.74 64.74 C 148.44 59.89 145.08 43.99 138.00 49.00 Z"/>
</g>
<g fill="None" fill-opacity="0.0" stroke="#2D353A" stroke-opacity="1.00" stroke-width="0.3"><path d="
M 224.00 56.00 
C 223.73 54.57 223.13 51.96 223.00 51.00
C 223.08 53.10 223.50 54.44 224.00 56.00 Z"/>
</g>
<g fill="None" fill-opacity="0.0" stroke="#2066EA" stroke-opacity="1.00" stroke-width="0.3"><path d="
M 132.00 54.00 
C 131.15 54.20 128.80 55.85 128.00 56.00
C 129.79 56.18 133.36 55.02 133.00 58.00
C 122.07 63.98 109.85 67.45 97.00 68.00
C 97.00 77.13 94.92 89.55 98.00 98.00
C 99.56 100.89 108.20 107.47 111.00 108.00
C 112.97 108.24 115.02 107.82 117.00 108.00
C 117.00 99.33 117.00 90.67 117.00 82.00
C 117.00 81.09 116.81 79.89 117.00 79.00
C 117.66 75.92 129.17 70.12 131.25 67.25 C 133.33 64.38 145.04 53.50 136.00 53.00
C 134.65 54.17 133.93 53.93 132.00 54.00 Z"/>
</g>
<g fill="None" fill-opacity="0.0" stroke="#9DA5F6" stroke-opacity="1.00" stroke-width="0.3"><path d="
M 60.00 56.00 
C 61.52 55.41 64.79 54.20 66.00 54.00
C 62.68 54.25 62.41 54.70 60.00 56.00 Z"/>
</g>
<g fill="None" fill-opacity="0.0" stroke="#2540E6" stroke-opacity="1.00" stroke-width="0.3"><path d="
M 60.00 56.00 
C 53.44 59.54 52.23 61.20 48.93 68.93 C 45.63 76.66 55.70 75.27 62.00 75.00
C 63.28 74.95 66.24 73.27 68.00 75.00
C 70.61 75.76 68.10 83.08 69.00 85.00
C 75.47 83.13 79.40 76.98 83.26 72.26 C 87.11 67.53 90.37 54.18 80.00 55.00
C 78.42 54.91 76.97 54.17 76.00 54.00
C 72.70 54.00 69.29 53.75 66.00 54.00
C 64.79 54.20 61.52 55.41 60.00 56.00 Z"/>
</g>
<g fill="None" fill-opacity="0.0" stroke="#ADB9FA" stroke-opacity="1.00" stroke-width="0.3"><path d="
M 80.00 55.00 
C 82.65 55.15 85.36 54.76 88.00 55.00
C 85.88 52.80 79.17 54.00 76.00 54.00
C 76.97 54.17 78.42 54.91 80.00 55.00 Z"/>
</g>
<g fill="None" fill-opacity="0.0" stroke="#A7B3F7" stroke-opacity="1.00" stroke-width="0.3"><path d="
M 97.00 55.00 
C 99.03 54.35 100.75 55.83 102.00 56.00
C 110.16 56.00 120.01 57.53 128.00 56.00
C 128.80 55.85 131.15 54.20 132.00 54.00
C 130.67 54.05 129.33 54.00 128.00 54.00
C 123.34 54.00 116.43 53.42 112.00 54.00 C 107.57 54.58 100.00 52.00 97.00 55.00 Z"/>
</g>
<g fill="None" fill-opacity="0.0" stroke="#2265E5" stroke-opacity="1.00" stroke-width="0.3"><path d="
M 68.00 75.00 
C 68.25 75.25 68.00 76.50 68.00 77.00
C 68.00 80.00 68.00 83.00 68.00 86.00
C 66.04 86.25 63.94 85.67 62.00 86.00
C 59.76 86.38 56.97 87.23 54.00 87.00
C 50.02 86.70 49.60 86.73 47.00 84.00
C 46.57 83.83 45.49 84.08 45.00 84.00
C 44.58 83.93 42.29 83.18 42.00 83.00
C 45.44 87.28 48.49 90.07 54.25 92.75 C 60.00 95.44 68.64 93.32 75.00 95.00 C 81.36 96.68 90.33 96.66 88.00 88.00 C 85.67 79.34 87.25 74.71 88.00 67.00
C 88.00 63.33 88.00 59.67 88.00 56.00
C 88.00 56.00 88.25 55.26 88.00 55.00
C 85.36 54.76 82.65 55.15 80.00 55.00
C 90.37 54.18 87.11 67.53 83.26 72.26 C 79.40 76.98 75.47 83.13 69.00 85.00
C 68.10 83.08 70.61 75.76 68.00 75.00 Z"/>
</g>
<g fill="None" fill-opacity="0.0" stroke="#D5F7FE" stroke-opacity="1.00" stroke-width="0.3"><path d="
M 165.00 106.00 
C 163.92 106.63 163.29 106.91 162.00 107.00
C 161.50 107.04 160.50 107.00 160.00 107.00
C 156.79 108.37 154.08 107.72 151.00 107.00
C 139.25 104.27 129.56 89.65 121.00 81.00
C 120.01 80.32 119.08 79.46 118.00 79.00
C 117.89 80.00 118.47 81.73 117.00 82.00
C 117.00 90.67 117.00 99.33 117.00 108.00
C 115.02 107.82 112.97 108.24 111.00 108.00
C 106.29 107.43 99.66 102.56 98.00 98.00
C 94.92 89.55 97.00 77.13 97.00 68.00
C 97.00 64.00 97.00 60.00 97.00 56.00
C 97.00 55.50 97.00 55.00 97.00 55.00
C 94.67 69.01 96.67 85.17 96.00 100.00
C 100.51 104.19 108.86 113.32 115.92 108.92 C 122.98 104.52 115.06 90.45 118.00 83.00
C 129.40 88.62 134.94 103.13 147.00 107.00
C 141.48 110.26 149.55 107.61 153.00 109.00 C 156.45 110.39 162.62 107.94 165.00 106.00 Z"/>
</g>
<g fill="None" fill-opacity="0.0" stroke="#6774C6" stroke-opacity="1.00" stroke-width="0.3"><path d="
M 97.00 56.00 
C 98.31 56.45 100.61 56.00 102.00 56.00
C 100.75 55.83 99.03 54.35 97.00 55.00
C 97.00 55.00 97.00 55.50 97.00 56.00 Z"/>
</g>
<g fill="None" fill-opacity="0.0" stroke="#C2DAF6" stroke-opacity="1.00" stroke-width="0.3"><path d="
M 88.00 67.00 
C 88.00 69.99 87.86 74.13 88.00 77.00 C 88.14 79.87 88.03 84.62 89.00 87.00 C 89.96 89.39 87.29 96.20 88.00 97.00
C 88.23 96.78 89.93 96.15 90.00 96.00
C 90.73 89.47 90.32 83.20 89.00 77.00 C 87.68 70.80 91.67 60.96 88.00 56.00
C 88.00 59.67 88.00 63.33 88.00 67.00 Z"/>
</g>
<g fill="None" fill-opacity="0.0" stroke="#1D3CE0" stroke-opacity="1.00" stroke-width="0.3"><path d="
M 97.00 68.00 
C 109.85 67.45 122.07 63.98 133.00 58.00
C 133.36 55.02 129.79 56.18 128.00 56.00
C 120.01 57.53 110.16 56.00 102.00 56.00
C 100.61 56.00 98.31 56.45 97.00 56.00
C 97.00 60.00 97.00 64.00 97.00 68.00 Z"/>
</g>
<g fill="None" fill-opacity="0.0" stroke="#2488EA" stroke-opacity="1.00" stroke-width="0.3"><path d="
M 42.00 83.00 
C 40.70 81.39 39.00 79.76 38.00 78.00
C 36.36 75.13 35.23 71.34 35.00 68.00
C 33.30 73.73 35.72 79.73 38.07 86.93 C 40.42 94.13 45.76 99.52 47.00 106.00
C 56.47 109.72 72.44 109.93 81.00 104.00
C 82.55 102.74 87.13 98.58 88.00 97.00
C 87.29 96.20 89.96 89.39 89.00 87.00 C 88.03 84.62 88.14 79.87 88.00 77.00 C 87.86 74.13 88.00 69.99 88.00 67.00
C 87.25 74.71 85.67 79.34 88.00 88.00 C 90.33 96.66 81.36 96.68 75.00 95.00 C 68.64 93.32 60.00 95.44 54.25 92.75 C 48.49 90.07 45.44 87.28 42.00 83.00 Z"/>
</g>
<g fill="None" fill-opacity="0.0" stroke="#424151" stroke-opacity="1.00" stroke-width="0.3"><path d="
M 236.00 67.00 
C 229.42 71.41 229.96 81.62 227.32 88.32 C 224.69 95.03 219.81 105.85 227.00 110.00
C 228.30 95.37 236.37 81.17 236.00 67.00 Z"/>
</g>
<g fill="None" fill-opacity="0.0" stroke="#3B3A4B" stroke-opacity="1.00" stroke-width="0.3"><path d="
M 271.00 84.00 
C 268.14 78.38 278.75 75.68 275.29 70.71 C 271.84 65.73 268.01 74.20 267.93 78.93 C 267.84 83.65 264.58 89.16 263.93 93.93 C 263.28 98.69 260.54 103.19 260.00 108.00
C 263.86 109.28 264.65 105.61 267.00 104.00
C 272.93 112.91 285.46 108.20 288.67 98.67 C 291.88 89.14 280.92 76.57 271.00 84.00
M 280.00 86.00 
C 289.92 87.97 281.93 109.59 271.93 104.07 C 261.92 98.55 270.73 84.16 280.00 86.00 Z"/>
</g>
<g fill="None" fill-opacity="0.0" stroke="#3B3A4A" stroke-opacity="1.00" stroke-width="0.3"><path d="
M 335.00 71.00 
C 326.14 66.35 327.52 80.28 325.32 86.32 C 323.13 92.36 321.09 101.66 319.00 108.00
C 327.86 108.63 325.02 96.09 328.22 90.22 C 331.43 84.36 329.83 76.03 335.00 71.00 Z"/>
</g>
<g fill="None" fill-opacity="0.0" stroke="#3D3C4D" stroke-opacity="1.00" stroke-width="0.3"><path d="
M 192.00 96.00 
C 191.36 93.23 191.32 91.73 192.00 89.00
C 192.37 75.04 215.31 68.78 219.00 84.00
C 227.41 77.70 214.12 68.18 205.01 71.01 C 195.89 73.84 188.58 79.14 187.00 90.00 C 185.42 100.86 194.21 110.56 204.99 108.99 C 215.78 107.42 221.60 99.83 223.00 90.00
C 216.00 90.00 209.00 90.00 202.00 90.00
C 202.84 98.00 211.61 92.61 217.00 94.00
C 215.37 106.74 194.74 107.79 192.00 96.00 Z"/>
</g>
<g fill="None" fill-opacity="0.0" stroke="#CADAFF" stroke-opacity="1.00" stroke-width="0.3"><path d="
M 62.00 75.00 
C 64.57 75.24 66.08 77.15 68.00 77.00
C 68.00 76.50 68.25 75.25 68.00 75.00
C 66.24 73.27 63.28 74.95 62.00 75.00 Z"/>
</g>
<g fill="None" fill-opacity="0.0" stroke="#84BEF1" stroke-opacity="1.00" stroke-width="0.3"><path d="
M 42.00 83.00 
C 42.29 83.18 44.58 83.93 45.00 84.00
C 43.38 83.01 39.19 79.76 38.00 78.00
C 39.00 79.76 40.70 81.39 42.00 83.00 Z"/>
</g>
<g fill="None" fill-opacity="0.0" stroke="#77BAF7" stroke-opacity="1.00" stroke-width="0.3"><path d="
M 117.00 79.00 
C 116.81 79.89 117.00 81.09 117.00 82.00
C 118.47 81.73 117.89 80.00 118.00 79.00
C 119.08 79.46 120.01 80.32 121.00 81.00
C 120.37 80.37 118.26 76.52 117.00 79.00 Z"/>
</g>
<g fill="None" fill-opacity="0.0" stroke="#3C3B4B" stroke-opacity="1.00" stroke-width="0.3"><path d="
M 253.00 82.00 
C 236.67 77.04 226.69 101.69 241.78 108.22 C 256.87 114.75 267.79 86.49 253.00 82.00
M 252.00 86.00 
C 261.29 89.62 251.50 110.65 241.98 104.02 C 232.45 97.40 242.32 82.23 252.00 86.00 Z"/>
</g>
<g fill="None" fill-opacity="0.0" stroke="#3B3A4A" stroke-opacity="1.00" stroke-width="0.3"><path d="
M 315.00 87.00 
C 310.05 80.31 302.89 81.86 297.08 86.08 C 291.28 90.30 288.78 96.83 292.75 104.25 C 296.72 111.66 305.15 106.75 311.00 108.00
C 318.57 101.29 317.02 90.66 320.00 82.00
C 317.16 81.38 314.38 84.17 315.00 87.00
M 310.00 86.00 
C 319.00 89.93 308.89 110.19 299.78 104.22 C 290.67 98.26 300.02 81.64 310.00 86.00 Z"/>
</g>
<g fill="None" fill-opacity="0.0" stroke="#A0C6F7" stroke-opacity="1.00" stroke-width="0.3"><path d="
M 54.00 87.00 
C 52.06 86.68 49.18 84.86 47.00 84.00
C 49.60 86.73 50.02 86.70 54.00 87.00 Z"/>
</g>
<g fill="None" fill-opacity="0.0" stroke="#F0F0F3" stroke-opacity="1.00" stroke-width="0.3"><path d="
M 252.00 86.00 
C 242.32 82.23 232.45 97.40 241.98 104.02 C 251.50 110.65 261.29 89.62 252.00 86.00 Z"/>
</g>
<g fill="None" fill-opacity="0.0" stroke="#F3F4F6" stroke-opacity="1.00" stroke-width="0.3"><path d="
M 280.00 86.00 
C 270.73 84.16 261.92 98.55 271.93 104.07 C 281.93 109.59 289.92 87.97 280.00 86.00 Z"/>
</g>
<g fill="None" fill-opacity="0.0" stroke="#F2F2F4" stroke-opacity="1.00" stroke-width="0.3"><path d="
M 310.00 86.00 
C 300.02 81.64 290.67 98.26 299.78 104.22 C 308.89 110.19 319.00 89.93 310.00 86.00 Z"/>
</g>
<g fill="None" fill-opacity="0.0" stroke="#AFADC3" stroke-opacity="1.00" stroke-width="0.3"><path d="
M 192.00 96.00 
C 191.78 93.84 191.75 91.15 192.00 89.00
C 191.32 91.73 191.36 93.23 192.00 96.00 Z"/>
</g>
<g fill="None" fill-opacity="0.0" stroke="#D6F4FD" stroke-opacity="1.00" stroke-width="0.3"><path d="
M 88.00 97.00 
C 85.59 99.25 83.75 102.09 81.00 104.00
C 72.44 109.93 56.47 109.72 47.00 106.00
C 46.57 105.83 45.50 106.02 45.00 106.00
C 39.99 105.80 37.60 103.37 34.00 101.00
C 45.21 115.49 68.39 109.82 84.00 108.00
C 84.05 102.08 89.35 101.84 90.00 96.00
C 89.93 96.15 88.23 96.78 88.00 97.00 Z"/>
</g>
<g fill="None" fill-opacity="0.0" stroke="#79B2E4" stroke-opacity="1.00" stroke-width="0.3"><path d="
M 81.00 104.00 
C 83.75 102.09 85.59 99.25 88.00 97.00
C 87.13 98.58 82.55 102.74 81.00 104.00 Z"/>
</g>
<g fill="None" fill-opacity="0.0" stroke="#84B9E0" stroke-opacity="1.00" stroke-width="0.3"><path d="
M 162.00 107.00 
C 163.29 106.91 163.92 106.63 165.00 106.00
C 166.03 105.40 166.39 105.07 167.00 104.00
C 167.93 100.80 165.71 98.91 164.00 97.00
C 166.20 100.81 166.76 104.98 162.00 107.00 Z"/>
</g>
<g fill="None" fill-opacity="0.0" stroke="#94BCF1" stroke-opacity="1.00" stroke-width="0.3"><path d="
M 111.00 108.00 
C 108.20 107.47 99.56 100.89 98.00 98.00
C 99.66 102.56 106.29 107.43 111.00 108.00 Z"/>
</g>
<g fill="None" fill-opacity="0.0" stroke="#8FC6EE" stroke-opacity="1.00" stroke-width="0.3"><path d="
M 160.00 107.00 
C 157.06 107.00 153.92 107.33 151.00 107.00
C 154.08 107.72 156.79 108.37 160.00 107.00 Z"/>
</g>
<g fill="#FBFCFC" fill-opacity="1.00" stroke="None">
<path d="
M 0.00 126.00 
L 491.00 126.00
L 491.00 0.00
L 0.00 0.00
L 0.00 126.00
M 62.00 86.00 
C 63.94 85.67 66.04 86.25 68.00 86.00
C 68.00 83.00 68.00 80.00 68.00 77.00
C 66.08 77.15 64.57 75.24 62.00 75.00
C 55.70 75.27 45.63 76.66 48.93 68.93 C 52.23 61.20 53.44 59.54 60.00 56.00
C 62.41 54.70 62.68 54.25 66.00 54.00
C 69.29 53.75 72.70 54.00 76.00 54.00
C 79.17 54.00 85.88 52.80 88.00 55.00
C 88.25 55.26 88.00 56.00 88.00 56.00
C 91.67 60.96 87.68 70.80 89.00 77.00 C 90.32 83.20 90.73 89.47 90.00 96.00
C 89.35 101.84 84.05 102.08 84.00 108.00
C 68.39 109.82 45.21 115.49 34.00 101.00
C 32.25 99.85 29.19 97.69 27.00 99.00
C 25.11 91.65 20.46 86.86 18.02 78.98 C 15.59 71.09 12.82 61.59 16.00 53.00
C 16.99 48.04 17.58 40.96 23.00 39.00
C 21.22 28.88 29.10 29.70 35.25 24.25 C 41.39 18.79 47.66 17.96 56.22 18.78 C 64.78 19.59 72.76 20.37 82.02 18.02 C 91.29 15.68 92.35 25.53 90.00 34.00
C 84.83 38.69 81.03 40.40 74.90 42.90 C 68.77 45.41 64.43 38.40 58.30 42.30 C 52.18 46.20 48.44 46.44 43.74 51.74 C 39.05 57.05 36.14 60.43 37.67 67.67 C 39.19 74.92 41.51 77.59 45.00 83.00
C 47.74 83.03 50.08 81.37 53.00 82.00
C 47.90 86.05 53.42 84.60 57.00 84.00
C 52.68 86.74 59.90 85.88 62.00 86.00
M 161.00 40.00 
C 160.91 40.48 161.00 41.00 161.00 41.00
C 162.66 43.25 161.29 46.50 163.00 49.00
C 159.40 52.20 159.71 61.58 157.00 68.00
C 152.77 66.71 151.09 71.48 148.00 73.00
C 151.57 78.85 158.50 92.00 166.00 89.00
C 165.54 93.89 169.58 99.23 167.00 104.00
C 166.39 105.07 166.03 105.40 165.00 106.00
C 162.62 107.94 156.45 110.39 153.00 109.00 C 149.55 107.61 141.48 110.26 147.00 107.00
C 134.94 103.13 129.40 88.62 118.00 83.00
C 115.06 90.45 122.98 104.52 115.92 108.92 C 108.86 113.32 100.51 104.19 96.00 100.00
C 96.67 85.17 94.67 69.01 97.00 55.00
C 100.00 52.00 107.57 54.58 112.00 54.00 C 116.43 53.42 123.34 54.00 128.00 54.00
C 127.76 53.88 127.63 49.87 126.00 50.00
C 128.88 48.51 129.44 50.27 130.00 52.00
C 135.99 51.72 135.94 46.01 139.00 42.00
C 128.33 43.21 111.94 43.85 102.31 40.69 C 92.67 37.54 90.08 18.04 102.00 19.00 C 113.92 19.96 130.52 17.80 142.00 19.00 C 153.48 20.20 159.35 31.17 161.00 40.00
M 259.00 26.00 
C 260.10 27.55 261.25 36.45 261.00 38.00
C 272.13 37.01 282.25 40.87 278.67 54.67 C 275.10 68.47 260.06 60.22 251.00 63.00
C 251.00 50.00 251.00 37.00 251.00 24.00
C 253.48 24.74 258.82 22.19 259.00 26.00
M 209.00 50.00 
C 206.49 49.18 203.98 50.98 202.00 49.00
C 200.29 47.29 201.24 44.39 201.00 42.00
C 208.00 42.00 215.00 42.00 222.00 42.00
C 221.89 43.00 222.47 44.73 221.00 45.00
C 220.79 45.39 221.02 46.50 221.00 47.00
C 220.62 59.02 206.02 67.11 195.31 62.69 C 184.59 58.28 180.86 41.61 188.25 34.25 C 195.64 26.89 211.12 18.69 217.75 31.25 C 224.38 43.81 198.96 26.77 194.08 39.08 C 189.21 51.40 206.48 63.15 212.00 50.00
C 211.00 50.00 210.00 50.00 209.00 50.00
M 332.00 26.00 
C 339.42 26.40 343.03 28.11 345.97 35.03 C 348.92 41.94 341.75 45.71 341.00 52.00
C 344.04 52.15 345.69 53.56 344.00 57.00
C 353.75 60.39 343.81 66.80 339.25 61.75 C 334.69 56.70 333.55 51.79 327.00 50.00
C 327.00 54.33 327.00 58.67 327.00 63.00
C 324.52 62.26 319.18 64.81 319.00 61.00
C 315.11 55.51 317.98 38.03 319.00 32.00
C 319.33 30.06 318.75 27.96 319.00 26.00
C 320.67 26.00 322.33 26.00 324.00 26.00
C 327.01 25.27 329.12 25.53 332.00 26.00
M 232.00 51.00 
C 237.30 64.36 242.71 43.21 240.00 37.00
C 254.30 34.74 245.65 54.60 248.00 63.00
C 240.57 60.37 225.88 67.88 224.00 56.00
C 223.50 54.44 223.08 53.10 223.00 51.00
C 222.81 46.34 223.14 41.66 223.00 37.00
C 225.67 37.00 228.33 37.00 231.00 37.00
C 233.50 37.72 231.59 48.70 232.00 51.00
M 294.00 50.00 
C 296.09 44.35 298.80 35.00 307.00 37.00
C 304.42 44.33 301.71 52.56 298.68 59.68 C 295.65 66.79 293.57 78.25 283.00 76.00
C 292.63 63.07 284.11 49.66 279.00 37.00
C 289.94 33.21 289.75 44.43 294.00 50.00
M 376.00 48.00 
C 376.25 47.56 377.82 47.32 378.00 47.00
C 378.79 38.26 389.89 33.50 396.00 40.00
C 397.71 37.01 401.60 36.68 405.00 37.00
C 404.29 48.95 407.87 63.79 400.25 73.25 C 392.62 82.71 370.04 69.11 385.00 65.00
C 387.75 70.98 399.01 68.07 397.00 61.00
C 389.70 66.45 379.07 60.72 378.00 52.00
C 377.80 52.59 376.29 53.48 376.00 54.00
C 371.98 61.07 366.26 66.33 357.32 62.68 C 348.38 59.03 348.88 49.58 349.00 42.00
C 357.18 34.57 373.27 35.97 376.00 48.00
M 432.00 45.00 
C 432.99 47.28 434.82 49.91 434.00 53.00
C 428.00 53.00 422.00 53.00 416.00 53.00
C 414.62 58.02 426.29 57.70 428.00 55.00
C 435.14 62.94 419.55 66.29 412.98 62.02 C 406.40 57.76 405.05 46.11 411.75 40.75 C 418.45 35.39 429.91 35.23 432.00 45.00
M 453.00 42.00 
C 453.27 41.75 454.00 42.00 454.00 42.00
C 458.67 35.32 467.92 35.89 473.00 42.00
C 470.93 48.24 464.26 41.57 461.00 45.00
C 463.30 49.27 468.92 47.71 473.00 48.00
C 473.37 55.66 471.86 66.63 460.33 63.67 C 448.80 60.71 454.13 50.67 464.00 58.00
C 467.01 51.27 454.23 54.43 454.00 48.00
C 453.47 46.91 453.08 46.59 453.00 45.00
C 451.10 46.86 445.17 45.17 445.03 50.03 C 444.88 54.89 443.00 57.96 444.00 63.00
C 430.20 63.25 438.52 44.80 436.00 37.00
C 442.04 40.38 452.60 32.90 453.00 42.00
M 236.00 67.00 
C 236.37 81.17 228.30 95.37 227.00 110.00
C 219.81 105.85 224.69 95.03 227.32 88.32 C 229.96 81.62 229.42 71.41 236.00 67.00
M 271.00 84.00 
C 280.92 76.57 291.88 89.14 288.67 98.67 C 285.46 108.20 272.93 112.91 267.00 104.00
C 264.65 105.61 263.86 109.28 260.00 108.00
C 260.54 103.19 263.28 98.69 263.93 93.93 C 264.58 89.16 267.84 83.65 267.93 78.93 C 268.01 74.20 271.84 65.73 275.29 70.71 C 278.75 75.68 268.14 78.38 271.00 84.00
M 335.00 71.00 
C 329.83 76.03 331.43 84.36 328.22 90.22 C 325.02 96.09 327.86 108.63 319.00 108.00
C 321.09 101.66 323.13 92.36 325.32 86.32 C 327.52 80.28 326.14 66.35 335.00 71.00
M 192.00 89.00 
C 191.75 91.15 191.78 93.84 192.00 96.00
C 194.74 107.79 215.37 106.74 217.00 94.00
C 211.61 92.61 202.84 98.00 202.00 90.00
C 209.00 90.00 216.00 90.00 223.00 90.00
C 221.60 99.83 215.78 107.42 204.99 108.99 C 194.21 110.56 185.42 100.86 187.00 90.00 C 188.58 79.14 195.89 73.84 205.01 71.01 C 214.12 68.18 227.41 77.70 219.00 84.00
C 215.31 68.78 192.37 75.04 192.00 89.00
M 253.00 82.00 
C 267.79 86.49 256.87 114.75 241.78 108.22 C 226.69 101.69 236.67 77.04 253.00 82.00
M 315.00 87.00 
C 314.38 84.17 317.16 81.38 320.00 82.00
C 317.02 90.66 318.57 101.29 311.00 108.00
C 305.15 106.75 296.72 111.66 292.75 104.25 C 288.78 96.83 291.28 90.30 297.08 86.08 C 302.89 81.86 310.05 80.31 315.00 87.00 Z"/>
</g>
<g fill="#DDFBFC" fill-opacity="1.00" stroke="None">
<path d="
M 16.00 53.00 
C 17.75 48.21 20.60 40.84 26.00 39.00
C 24.03 32.24 29.82 28.30 35.00 26.00
C 35.44 25.84 36.00 26.00 36.00 26.00
C 41.40 20.37 51.79 17.43 60.00 20.00 C 68.21 22.57 81.87 14.73 88.25 20.75 C 94.62 26.78 84.31 38.93 78.00 40.00
C 73.02 40.84 67.61 39.64 63.00 39.00
C 61.54 38.80 60.54 38.03 59.00 38.00
C 61.38 40.21 58.14 42.03 56.00 42.00
C 55.00 42.32 54.03 42.68 53.00 43.00
C 46.83 44.89 43.61 46.80 38.75 51.75 C 33.89 56.70 34.59 62.04 35.00 68.00
C 35.23 71.34 36.36 75.13 38.00 78.00
C 39.19 79.76 43.38 83.01 45.00 84.00
C 45.49 84.08 46.57 83.83 47.00 84.00
C 49.18 84.86 52.06 86.68 54.00 87.00
C 56.97 87.23 59.76 86.38 62.00 86.00
C 59.90 85.88 52.68 86.74 57.00 84.00
C 53.42 84.60 47.90 86.05 53.00 82.00
C 50.08 81.37 47.74 83.03 45.00 83.00
C 41.51 77.59 39.19 74.92 37.67 67.67 C 36.14 60.43 39.05 57.05 43.74 51.74 C 48.44 46.44 52.18 46.20 58.30 42.30 C 64.43 38.40 68.77 45.41 74.90 42.90 C 81.03 40.40 84.83 38.69 90.00 34.00
C 92.35 25.53 91.29 15.68 82.02 18.02 C 72.76 20.37 64.78 19.59 56.22 18.78 C 47.66 17.96 41.39 18.79 35.25 24.25 C 29.10 29.70 21.22 28.88 23.00 39.00
C 17.58 40.96 16.99 48.04 16.00 53.00 Z"/>
</g>
<g fill="#BCFCF2" fill-opacity="1.00" stroke="None">
<path d="
M 36.00 26.00 
C 38.93 24.94 41.01 22.93 44.00 22.00
C 52.34 19.40 62.25 21.91 71.00 21.00 C 79.75 20.09 91.05 19.87 88.00 32.00
C 84.26 33.47 82.05 38.54 78.00 40.00
C 84.31 38.93 94.62 26.78 88.25 20.75 C 81.87 14.73 68.21 22.57 60.00 20.00 C 51.79 17.43 41.40 20.37 36.00 26.00 Z"/>
</g>
<g fill="#D8FBFB" fill-opacity="1.00" stroke="None">
<path d="
M 128.00 54.00 
C 129.33 54.00 130.67 54.05 132.00 54.00
C 133.93 53.93 134.65 54.17 136.00 53.00
C 136.43 52.63 137.43 49.76 138.00 49.00
C 146.40 37.80 163.43 51.89 157.00 64.00
C 150.66 67.87 141.30 71.81 147.75 78.25 C 154.20 84.68 156.71 88.90 163.00 95.00
C 163.40 95.65 163.63 96.37 164.00 97.00
C 165.71 98.91 167.93 100.80 167.00 104.00
C 169.58 99.23 165.54 93.89 166.00 89.00
C 158.50 92.00 151.57 78.85 148.00 73.00
C 151.09 71.48 152.77 66.71 157.00 68.00
C 159.71 61.58 159.40 52.20 163.00 49.00
C 161.29 46.50 162.66 43.25 161.00 41.00
C 161.18 42.90 161.70 46.96 160.00 48.00
C 156.58 50.09 149.73 40.32 143.78 41.22 C 137.83 42.13 126.46 41.00 120.00 41.00
C 115.49 41.44 102.77 42.32 99.25 37.75 C 95.74 33.17 93.16 19.68 101.00 20.00 C 108.85 20.33 120.30 19.83 128.00 20.00 C 135.70 20.17 144.36 19.27 149.75 24.25 C 155.13 29.24 158.95 33.83 161.00 40.00
C 159.35 31.17 153.48 20.20 142.00 19.00 C 130.52 17.80 113.92 19.96 102.00 19.00 C 90.08 18.04 92.67 37.54 102.31 40.69 C 111.94 43.85 128.33 43.21 139.00 42.00
C 135.94 46.01 135.99 51.72 130.00 52.00
C 129.44 50.27 128.88 48.51 126.00 50.00
C 127.63 49.87 127.76 53.88 128.00 54.00 Z"/>
</g>
<g fill="#A7F5E7" fill-opacity="1.00" stroke="None">
<path d="
M 120.00 41.00 
C 119.00 41.00 118.00 41.00 117.00 41.00
C 111.43 41.02 107.54 37.89 102.00 38.00
C 98.61 33.98 98.47 27.62 98.00 22.00
C 116.18 25.15 142.78 13.86 154.00 32.00
C 157.93 36.78 161.90 40.64 160.00 48.00
C 161.70 46.96 161.18 42.90 161.00 41.00
C 161.00 41.00 160.91 40.48 161.00 40.00
C 158.95 33.83 155.13 29.24 149.75 24.25 C 144.36 19.27 135.70 20.17 128.00 20.00 C 120.30 19.83 108.85 20.33 101.00 20.00 C 93.16 19.68 95.74 33.17 99.25 37.75 C 102.77 42.32 115.49 41.44 120.00 41.00 Z"/>
</g>
<g fill="#4FF4D3" fill-opacity="1.00" stroke="None">
<path d="
M 44.00 22.00 
C 45.84 22.23 49.92 27.13 54.00 26.00 C 58.08 24.87 60.37 30.82 63.00 32.00
C 62.66 34.43 59.97 34.61 60.00 37.00
C 61.18 37.47 62.12 38.56 63.00 39.00
C 67.61 39.64 73.02 40.84 78.00 40.00
C 82.05 38.54 84.26 33.47 88.00 32.00
C 91.05 19.87 79.75 20.09 71.00 21.00 C 62.25 21.91 52.34 19.40 44.00 22.00 Z"/>
</g>
<g fill="#5FE0D7" fill-opacity="1.00" stroke="None">
<path d="
M 36.00 26.00 
C 36.00 26.00 35.44 25.84 35.00 26.00
C 32.09 29.04 26.10 30.68 27.00 36.00
C 37.90 30.93 49.79 32.92 60.00 37.00
C 59.97 34.61 62.66 34.43 63.00 32.00
C 60.37 30.82 58.08 24.87 54.00 26.00 C 49.92 27.13 45.84 22.23 44.00 22.00
C 41.01 22.93 38.93 24.94 36.00 26.00 Z"/>
</g>
<g fill="#54F6D5" fill-opacity="1.00" stroke="None">
<path d="
M 117.00 41.00 
C 118.37 40.39 117.37 36.97 117.00 36.00
C 129.36 31.32 141.54 29.52 154.00 32.00
C 142.78 13.86 116.18 25.15 98.00 22.00
C 98.47 27.62 98.61 33.98 102.00 38.00
C 107.54 37.89 111.43 41.02 117.00 41.00 Z"/>
</g>
<g fill="#292848" fill-opacity="1.00" stroke="None">
<path d="
M 261.00 38.00 
C 261.38 37.97 260.29 41.28 259.00 40.00
C 259.00 35.33 259.00 30.67 259.00 26.00
C 258.82 22.19 253.48 24.74 251.00 24.00
C 251.00 37.00 251.00 50.00 251.00 63.00
C 260.06 60.22 275.10 68.47 278.67 54.67 C 282.25 40.87 272.13 37.01 261.00 38.00
M 267.00 44.00 
C 274.20 45.57 270.41 58.50 263.00 56.00 C 255.58 53.50 260.45 42.57 267.00 44.00 Z"/>
</g>
<g fill="#272548" fill-opacity="1.00" stroke="None">
<path d="
M 221.00 47.00 
C 220.53 46.20 219.47 45.38 220.00 44.00
C 214.33 44.00 208.67 44.00 203.00 44.00
C 201.05 49.63 206.26 48.35 209.00 50.00
C 210.00 50.00 211.00 50.00 212.00 50.00
C 206.48 63.15 189.21 51.40 194.08 39.08 C 198.96 26.77 224.38 43.81 217.75 31.25 C 211.12 18.69 195.64 26.89 188.25 34.25 C 180.86 41.61 184.59 58.28 195.31 62.69 C 206.02 67.11 220.62 59.02 221.00 47.00 Z"/>
</g>
<g fill="#90909F" fill-opacity="1.00" stroke="None">
<path d="
M 324.00 26.00 
C 326.52 25.70 329.46 25.86 332.00 26.00
C 329.12 25.53 327.01 25.27 324.00 26.00 Z"/>
</g>
<g fill="#BEF8FB" fill-opacity="1.00" stroke="None">
<path d="
M 16.00 53.00 
C 12.82 61.59 15.59 71.09 18.02 78.98 C 20.46 86.86 25.11 91.65 27.00 99.00
C 29.19 97.69 32.25 99.85 34.00 101.00
C 37.60 103.37 39.99 105.80 45.00 106.00
C 35.39 102.68 25.17 91.02 21.00 82.00
C 18.06 75.65 15.59 69.66 16.00 62.00 C 16.41 54.34 19.69 50.69 22.75 43.75 C 25.81 36.82 35.00 37.09 40.00 36.00 C 45.00 34.91 62.29 38.25 56.00 42.00
C 58.14 42.03 61.38 40.21 59.00 38.00
C 60.54 38.03 61.54 38.80 63.00 39.00
C 62.12 38.56 61.18 37.47 60.00 37.00
C 49.79 32.92 37.90 30.93 27.00 36.00
C 26.10 30.68 32.09 29.04 35.00 26.00
C 29.82 28.30 24.03 32.24 26.00 39.00
C 20.60 40.84 17.75 48.21 16.00 53.00 Z"/>
</g>
<g fill="#9B9AAF" fill-opacity="1.00" stroke="None">
<path d="
M 261.00 38.00 
C 261.25 36.45 260.10 27.55 259.00 26.00
C 259.00 30.67 259.00 35.33 259.00 40.00
C 260.29 41.28 261.38 37.97 261.00 38.00 Z"/>
</g>
<g fill="#242446" fill-opacity="1.00" stroke="None">
<path d="
M 319.00 32.00 
C 318.74 36.28 318.34 41.79 319.00 46.00 C 319.66 50.21 317.18 57.23 319.00 61.00
C 319.18 64.81 324.52 62.26 327.00 63.00
C 327.00 58.67 327.00 54.33 327.00 50.00
C 333.55 51.79 334.69 56.70 339.25 61.75 C 343.81 66.80 353.75 60.39 344.00 57.00
C 345.69 53.56 344.04 52.15 341.00 52.00
C 341.75 45.71 348.92 41.94 345.97 35.03 C 343.03 28.11 339.42 26.40 332.00 26.00
C 329.46 25.86 326.52 25.70 324.00 26.00
C 322.33 26.00 320.67 26.00 319.00 26.00
C 318.75 27.96 319.33 30.06 319.00 32.00
M 327.00 42.00 
C 327.00 39.00 327.00 36.00 327.00 33.00
C 339.62 30.35 340.58 45.81 327.00 42.00 Z"/>
</g>
<g fill="#51E0D9" fill-opacity="1.00" stroke="None">
<path d="
M 117.00 41.00 
C 118.00 41.00 119.00 41.00 120.00 41.00
C 126.46 41.00 137.83 42.13 143.78 41.22 C 149.73 40.32 156.58 50.09 160.00 48.00
C 161.90 40.64 157.93 36.78 154.00 32.00
C 141.54 29.52 129.36 31.32 117.00 36.00
C 117.37 36.97 118.37 40.39 117.00 41.00 Z"/>
</g>
<g fill="#9493A2" fill-opacity="1.00" stroke="None">
<path d="
M 319.00 61.00 
C 317.18 57.23 319.66 50.21 319.00 46.00 C 318.34 41.79 318.74 36.28 319.00 32.00
C 317.98 38.03 315.11 55.51 319.00 61.00 Z"/>
</g>
<g fill="#E8EAF0" fill-opacity="1.00" stroke="None">
<path d="
M 327.00 42.00 
C 340.58 45.81 339.62 30.35 327.00 33.00
C 327.00 36.00 327.00 39.00 327.00 42.00 Z"/>
</g>
<g fill="#3DC5E7" fill-opacity="1.00" stroke="None">
<path d="
M 21.00 82.00 
C 18.91 74.39 20.10 63.64 23.93 56.93 C 27.75 50.21 34.61 46.13 41.22 43.22 C 47.83 40.32 46.97 43.23 53.00 43.00
C 54.03 42.68 55.00 42.32 56.00 42.00
C 62.29 38.25 45.00 34.91 40.00 36.00 C 35.00 37.09 25.81 36.82 22.75 43.75 C 19.69 50.69 16.41 54.34 16.00 62.00 C 15.59 69.66 18.06 75.65 21.00 82.00 Z"/>
</g>
<g fill="#222140" fill-opacity="1.00" stroke="None">
<path d="
M 223.00 51.00 
C 223.13 51.96 223.73 54.57 224.00 56.00
C 225.88 67.88 240.57 60.37 248.00 63.00
C 245.65 54.60 254.30 34.74 240.00 37.00
C 242.71 43.21 237.30 64.36 232.00 51.00
C 231.59 49.97 231.13 49.51 231.00 48.00
C 230.22 44.85 229.66 42.16 231.00 39.00
C 231.00 38.50 231.19 37.08 231.00 37.00
C 228.33 37.00 225.67 37.00 223.00 37.00
C 223.14 41.66 222.81 46.34 223.00 51.00 Z"/>
</g>
<g fill="#AAAAB9" fill-opacity="1.00" stroke="None">
<path d="
M 231.00 39.00 
C 231.00 41.96 230.75 45.05 231.00 48.00
C 231.13 49.51 231.59 49.97 232.00 51.00
C 231.59 48.70 233.50 37.72 231.00 37.00
C 231.19 37.08 231.00 38.50 231.00 39.00 Z"/>
</g>
<g fill="#2E2D4A" fill-opacity="1.00" stroke="None">
<path d="
M 294.00 50.00 
C 289.75 44.43 289.94 33.21 279.00 37.00
C 284.11 49.66 292.63 63.07 283.00 76.00
C 293.57 78.25 295.65 66.79 298.68 59.68 C 301.71 52.56 304.42 44.33 307.00 37.00
C 298.80 35.00 296.09 44.35 294.00 50.00 Z"/>
</g>
<g fill="#272847" fill-opacity="1.00" stroke="None">
<path d="
M 376.00 54.00 
C 376.26 52.26 376.24 49.74 376.00 48.00
C 373.27 35.97 357.18 34.57 349.00 42.00
C 348.88 49.58 348.38 59.03 357.32 62.68 C 366.26 66.33 371.98 61.07 376.00 54.00
M 364.00 44.00 
C 370.74 45.47 368.67 57.93 361.00 56.00 C 353.32 54.07 357.48 42.58 364.00 44.00 Z"/>
</g>
<g fill="#252544" fill-opacity="1.00" stroke="None">
<path d="
M 378.00 47.00 
C 377.86 48.54 377.81 50.47 378.00 52.00
C 379.07 60.72 389.70 66.45 397.00 61.00
C 399.01 68.07 387.75 70.98 385.00 65.00
C 370.04 69.11 392.62 82.71 400.25 73.25 C 407.87 63.79 404.29 48.95 405.00 37.00
C 401.60 36.68 397.71 37.01 396.00 40.00
C 389.89 33.50 378.79 38.26 378.00 47.00
M 395.00 44.00 
C 401.04 46.95 395.17 59.14 388.78 55.22 C 382.39 51.30 388.37 40.76 395.00 44.00 Z"/>
</g>
<g fill="#252645" fill-opacity="1.00" stroke="None">
<path d="
M 416.00 53.00 
C 417.47 47.66 428.72 53.69 432.00 52.00
C 432.00 49.67 432.00 47.33 432.00 45.00
C 429.91 35.23 418.45 35.39 411.75 40.75 C 405.05 46.11 406.40 57.76 412.98 62.02 C 419.55 66.29 435.14 62.94 428.00 55.00
C 426.29 57.70 414.62 58.02 416.00 53.00
M 425.00 47.00 
C 422.16 46.41 418.02 48.22 416.00 46.00
C 418.16 43.50 424.89 42.40 425.00 47.00 Z"/>
</g>
<g fill="#222040" fill-opacity="1.00" stroke="None">
<path d="
M 453.00 45.00 
C 452.98 44.63 452.76 42.22 453.00 42.00
C 452.60 32.90 442.04 40.38 436.00 37.00
C 438.52 44.80 430.20 63.25 444.00 63.00
C 443.00 57.96 444.88 54.89 445.03 50.03 C 445.17 45.17 451.10 46.86 453.00 45.00 Z"/>
</g>
<g fill="#2A2B45" fill-opacity="1.00" stroke="None">
<path d="
M 454.00 42.00 
C 454.40 43.91 453.58 46.09 454.00 48.00
C 454.23 54.43 467.01 51.27 464.00 58.00
C 454.13 50.67 448.80 60.71 460.33 63.67 C 471.86 66.63 473.37 55.66 473.00 48.00
C 468.92 47.71 463.30 49.27 461.00 45.00
C 464.26 41.57 470.93 48.24 473.00 42.00
C 467.92 35.89 458.67 35.32 454.00 42.00 Z"/>
</g>
<g fill="#5A596F" fill-opacity="1.00" stroke="None">
<path d="
M 231.00 48.00 
C 230.75 45.05 231.00 41.96 231.00 39.00
C 229.66 42.16 230.22 44.85 231.00 48.00 Z"/>
</g>
<g fill="#21AAEB" fill-opacity="1.00" stroke="None">
<path d="
M 21.00 82.00 
C 25.17 91.02 35.39 102.68 45.00 106.00
C 45.50 106.02 46.57 105.83 47.00 106.00
C 45.76 99.52 40.42 94.13 38.07 86.93 C 35.72 79.73 33.30 73.73 35.00 68.00
C 34.59 62.04 33.89 56.70 38.75 51.75 C 43.61 46.80 46.83 44.89 53.00 43.00
C 46.97 43.23 47.83 40.32 41.22 43.22 C 34.61 46.13 27.75 50.21 23.93 56.93 C 20.10 63.64 18.91 74.39 21.00 82.00 Z"/>
</g>
<g fill="#9594A2" fill-opacity="1.00" stroke="None">
<path d="
M 202.00 49.00 
C 201.08 47.62 202.70 44.53 202.00 43.00
C 207.89 44.22 217.53 40.49 221.00 45.00
C 222.47 44.73 221.89 43.00 222.00 42.00
C 215.00 42.00 208.00 42.00 201.00 42.00
C 201.24 44.39 200.29 47.29 202.00 49.00 Z"/>
</g>
<g fill="#9494AE" fill-opacity="1.00" stroke="None">
<path d="
M 453.00 45.00 
C 453.08 46.59 453.47 46.91 454.00 48.00
C 453.58 46.09 454.40 43.91 454.00 42.00
C 454.00 42.00 453.27 41.75 453.00 42.00
C 452.76 42.22 452.98 44.63 453.00 45.00 Z"/>
</g>
<g fill="#48465B" fill-opacity="1.00" stroke="None">
<path d="
M 202.00 49.00 
C 203.98 50.98 206.49 49.18 209.00 50.00
C 206.26 48.35 201.05 49.63 203.00 44.00
C 208.67 44.00 214.33 44.00 220.00 44.00
C 219.47 45.38 220.53 46.20 221.00 47.00
C 221.02 46.50 220.79 45.39 221.00 45.00
C 217.53 40.49 207.89 44.22 202.00 43.00
C 202.70 44.53 201.08 47.62 202.00 49.00 Z"/>
</g>
<g fill="#E9ECF0" fill-opacity="1.00" stroke="None">
<path d="
M 267.00 44.00 
C 260.45 42.57 255.58 53.50 263.00 56.00 C 270.41 58.50 274.20 45.57 267.00 44.00 Z"/>
</g>
<g fill="#E9EDF1" fill-opacity="1.00" stroke="None">
<path d="
M 364.00 44.00 
C 357.48 42.58 353.32 54.07 361.00 56.00 C 368.67 57.93 370.74 45.47 364.00 44.00 Z"/>
</g>
<g fill="#E7EAEF" fill-opacity="1.00" stroke="None">
<path d="
M 395.00 44.00 
C 388.37 40.76 382.39 51.30 388.78 55.22 C 395.17 59.14 401.04 46.95 395.00 44.00 Z"/>
</g>
<g fill="#E2E7F3" fill-opacity="1.00" stroke="None">
<path d="
M 425.00 47.00 
C 424.89 42.40 418.16 43.50 416.00 46.00
C 418.02 48.22 422.16 46.41 425.00 47.00 Z"/>
</g>
<g fill="#3DBFE8" fill-opacity="1.00" stroke="None">
<path d="
M 138.00 49.00 
C 145.08 43.99 148.44 59.89 144.74 64.74 C 141.05 69.59 144.61 77.61 149.25 81.75 C 153.89 85.90 158.86 90.56 163.00 95.00
C 156.71 88.90 154.20 84.68 147.75 78.25 C 141.30 71.81 150.66 67.87 157.00 64.00
C 163.43 51.89 146.40 37.80 138.00 49.00 Z"/>
</g>
<g fill="#686B7B" fill-opacity="1.00" stroke="None">
<path d="
M 416.00 53.00 
C 422.00 53.00 428.00 53.00 434.00 53.00
C 434.82 49.91 432.99 47.28 432.00 45.00
C 432.00 47.33 432.00 49.67 432.00 52.00
C 428.72 53.69 417.47 47.66 416.00 53.00 Z"/>
</g>
<g fill="#A9ACC8" fill-opacity="1.00" stroke="None">
<path d="
M 376.00 48.00 
C 376.24 49.74 376.26 52.26 376.00 54.00
C 376.29 53.48 377.80 52.59 378.00 52.00
C 377.81 50.47 377.86 48.54 378.00 47.00
C 377.82 47.32 376.25 47.56 376.00 48.00 Z"/>
</g>
<g fill="#238BE9" fill-opacity="1.00" stroke="None">
<path d="
M 138.00 49.00 
C 137.43 49.76 136.43 52.63 136.00 53.00
C 145.04 53.50 133.33 64.38 131.25 67.25 C 129.17 70.12 117.66 75.92 117.00 79.00
C 118.26 76.52 120.37 80.37 121.00 81.00
C 129.56 89.65 139.25 104.27 151.00 107.00
C 153.92 107.33 157.06 107.00 160.00 107.00
C 160.50 107.00 161.50 107.04 162.00 107.00
C 166.76 104.98 166.20 100.81 164.00 97.00
C 163.63 96.37 163.40 95.65 163.00 95.00
C 158.86 90.56 153.89 85.90 149.25 81.75 C 144.61 77.61 141.05 69.59 144.74 64.74 C 148.44 59.89 145.08 43.99 138.00 49.00 Z"/>
</g>
<g fill="#2D353A" fill-opacity="1.00" stroke="None">
<path d="
M 224.00 56.00 
C 223.73 54.57 223.13 51.96 223.00 51.00
C 223.08 53.10 223.50 54.44 224.00 56.00 Z"/>
</g>
<g fill="#2066EA" fill-opacity="1.00" stroke="None">
<path d="
M 132.00 54.00 
C 131.15 54.20 128.80 55.85 128.00 56.00
C 129.79 56.18 133.36 55.02 133.00 58.00
C 122.07 63.98 109.85 67.45 97.00 68.00
C 97.00 77.13 94.92 89.55 98.00 98.00
C 99.56 100.89 108.20 107.47 111.00 108.00
C 112.97 108.24 115.02 107.82 117.00 108.00
C 117.00 99.33 117.00 90.67 117.00 82.00
C 117.00 81.09 116.81 79.89 117.00 79.00
C 117.66 75.92 129.17 70.12 131.25 67.25 C 133.33 64.38 145.04 53.50 136.00 53.00
C 134.65 54.17 133.93 53.93 132.00 54.00 Z"/>
</g>
<g fill="#9DA5F6" fill-opacity="1.00" stroke="None">
<path d="
M 60.00 56.00 
C 61.52 55.41 64.79 54.20 66.00 54.00
C 62.68 54.25 62.41 54.70 60.00 56.00 Z"/>
</g>
<g fill="#2540E6" fill-opacity="1.00" stroke="None">
<path d="
M 60.00 56.00 
C 53.44 59.54 52.23 61.20 48.93 68.93 C 45.63 76.66 55.70 75.27 62.00 75.00
C 63.28 74.95 66.24 73.27 68.00 75.00
C 70.61 75.76 68.10 83.08 69.00 85.00
C 75.47 83.13 79.40 76.98 83.26 72.26 C 87.11 67.53 90.37 54.18 80.00 55.00
C 78.42 54.91 76.97 54.17 76.00 54.00
C 72.70 54.00 69.29 53.75 66.00 54.00
C 64.79 54.20 61.52 55.41 60.00 56.00 Z"/>
</g>
<g fill="#ADB9FA" fill-opacity="1.00" stroke="None">
<path d="
M 80.00 55.00 
C 82.65 55.15 85.36 54.76 88.00 55.00
C 85.88 52.80 79.17 54.00 76.00 54.00
C 76.97 54.17 78.42 54.91 80.00 55.00 Z"/>
</g>
<g fill="#A7B3F7" fill-opacity="1.00" stroke="None">
<path d="
M 97.00 55.00 
C 99.03 54.35 100.75 55.83 102.00 56.00
C 110.16 56.00 120.01 57.53 128.00 56.00
C 128.80 55.85 131.15 54.20 132.00 54.00
C 130.67 54.05 129.33 54.00 128.00 54.00
C 123.34 54.00 116.43 53.42 112.00 54.00 C 107.57 54.58 100.00 52.00 97.00 55.00 Z"/>
</g>
<g fill="#2265E5" fill-opacity="1.00" stroke="None">
<path d="
M 68.00 75.00 
C 68.25 75.25 68.00 76.50 68.00 77.00
C 68.00 80.00 68.00 83.00 68.00 86.00
C 66.04 86.25 63.94 85.67 62.00 86.00
C 59.76 86.38 56.97 87.23 54.00 87.00
C 50.02 86.70 49.60 86.73 47.00 84.00
C 46.57 83.83 45.49 84.08 45.00 84.00
C 44.58 83.93 42.29 83.18 42.00 83.00
C 45.44 87.28 48.49 90.07 54.25 92.75 C 60.00 95.44 68.64 93.32 75.00 95.00 C 81.36 96.68 90.33 96.66 88.00 88.00 C 85.67 79.34 87.25 74.71 88.00 67.00
C 88.00 63.33 88.00 59.67 88.00 56.00
C 88.00 56.00 88.25 55.26 88.00 55.00
C 85.36 54.76 82.65 55.15 80.00 55.00
C 90.37 54.18 87.11 67.53 83.26 72.26 C 79.40 76.98 75.47 83.13 69.00 85.00
C 68.10 83.08 70.61 75.76 68.00 75.00 Z"/>
</g>
<g fill="#D5F7FE" fill-opacity="1.00" stroke="None">
<path d="
M 165.00 106.00 
C 163.92 106.63 163.29 106.91 162.00 107.00
C 161.50 107.04 160.50 107.00 160.00 107.00
C 156.79 108.37 154.08 107.72 151.00 107.00
C 139.25 104.27 129.56 89.65 121.00 81.00
C 120.01 80.32 119.08 79.46 118.00 79.00
C 117.89 80.00 118.47 81.73 117.00 82.00
C 117.00 90.67 117.00 99.33 117.00 108.00
C 115.02 107.82 112.97 108.24 111.00 108.00
C 106.29 107.43 99.66 102.56 98.00 98.00
C 94.92 89.55 97.00 77.13 97.00 68.00
C 97.00 64.00 97.00 60.00 97.00 56.00
C 97.00 55.50 97.00 55.00 97.00 55.00
C 94.67 69.01 96.67 85.17 96.00 100.00
C 100.51 104.19 108.86 113.32 115.92 108.92 C 122.98 104.52 115.06 90.45 118.00 83.00
C 129.40 88.62 134.94 103.13 147.00 107.00
C 141.48 110.26 149.55 107.61 153.00 109.00 C 156.45 110.39 162.62 107.94 165.00 106.00 Z"/>
</g>
<g fill="#6774C6" fill-opacity="1.00" stroke="None">
<path d="
M 97.00 56.00 
C 98.31 56.45 100.61 56.00 102.00 56.00
C 100.75 55.83 99.03 54.35 97.00 55.00
C 97.00 55.00 97.00 55.50 97.00 56.00 Z"/>
</g>
<g fill="#C2DAF6" fill-opacity="1.00" stroke="None">
<path d="
M 88.00 67.00 
C 88.00 69.99 87.86 74.13 88.00 77.00 C 88.14 79.87 88.03 84.62 89.00 87.00 C 89.96 89.39 87.29 96.20 88.00 97.00
C 88.23 96.78 89.93 96.15 90.00 96.00
C 90.73 89.47 90.32 83.20 89.00 77.00 C 87.68 70.80 91.67 60.96 88.00 56.00
C 88.00 59.67 88.00 63.33 88.00 67.00 Z"/>
</g>
<g fill="#1D3CE0" fill-opacity="1.00" stroke="None">
<path d="
M 97.00 68.00 
C 109.85 67.45 122.07 63.98 133.00 58.00
C 133.36 55.02 129.79 56.18 128.00 56.00
C 120.01 57.53 110.16 56.00 102.00 56.00
C 100.61 56.00 98.31 56.45 97.00 56.00
C 97.00 60.00 97.00 64.00 97.00 68.00 Z"/>
</g>
<g fill="#2488EA" fill-opacity="1.00" stroke="None">
<path d="
M 42.00 83.00 
C 40.70 81.39 39.00 79.76 38.00 78.00
C 36.36 75.13 35.23 71.34 35.00 68.00
C 33.30 73.73 35.72 79.73 38.07 86.93 C 40.42 94.13 45.76 99.52 47.00 106.00
C 56.47 109.72 72.44 109.93 81.00 104.00
C 82.55 102.74 87.13 98.58 88.00 97.00
C 87.29 96.20 89.96 89.39 89.00 87.00 C 88.03 84.62 88.14 79.87 88.00 77.00 C 87.86 74.13 88.00 69.99 88.00 67.00
C 87.25 74.71 85.67 79.34 88.00 88.00 C 90.33 96.66 81.36 96.68 75.00 95.00 C 68.64 93.32 60.00 95.44 54.25 92.75 C 48.49 90.07 45.44 87.28 42.00 83.00 Z"/>
</g>
<g fill="#424151" fill-opacity="1.00" stroke="None">
<path d="
M 236.00 67.00 
C 229.42 71.41 229.96 81.62 227.32 88.32 C 224.69 95.03 219.81 105.85 227.00 110.00
C 228.30 95.37 236.37 81.17 236.00 67.00 Z"/>
</g>
<g fill="#3B3A4B" fill-opacity="1.00" stroke="None">
<path d="
M 271.00 84.00 
C 268.14 78.38 278.75 75.68 275.29 70.71 C 271.84 65.73 268.01 74.20 267.93 78.93 C 267.84 83.65 264.58 89.16 263.93 93.93 C 263.28 98.69 260.54 103.19 260.00 108.00
C 263.86 109.28 264.65 105.61 267.00 104.00
C 272.93 112.91 285.46 108.20 288.67 98.67 C 291.88 89.14 280.92 76.57 271.00 84.00
M 280.00 86.00 
C 289.92 87.97 281.93 109.59 271.93 104.07 C 261.92 98.55 270.73 84.16 280.00 86.00 Z"/>
</g>
<g fill="#3B3A4A" fill-opacity="1.00" stroke="None">
<path d="
M 335.00 71.00 
C 326.14 66.35 327.52 80.28 325.32 86.32 C 323.13 92.36 321.09 101.66 319.00 108.00
C 327.86 108.63 325.02 96.09 328.22 90.22 C 331.43 84.36 329.83 76.03 335.00 71.00 Z"/>
</g>
<g fill="#3D3C4D" fill-opacity="1.00" stroke="None">
<path d="
M 192.00 96.00 
C 191.36 93.23 191.32 91.73 192.00 89.00
C 192.37 75.04 215.31 68.78 219.00 84.00
C 227.41 77.70 214.12 68.18 205.01 71.01 C 195.89 73.84 188.58 79.14 187.00 90.00 C 185.42 100.86 194.21 110.56 204.99 108.99 C 215.78 107.42 221.60 99.83 223.00 90.00
C 216.00 90.00 209.00 90.00 202.00 90.00
C 202.84 98.00 211.61 92.61 217.00 94.00
C 215.37 106.74 194.74 107.79 192.00 96.00 Z"/>
</g>
<g fill="#CADAFF" fill-opacity="1.00" stroke="None">
<path d="
M 62.00 75.00 
C 64.57 75.24 66.08 77.15 68.00 77.00
C 68.00 76.50 68.25 75.25 68.00 75.00
C 66.24 73.27 63.28 74.95 62.00 75.00 Z"/>
</g>
<g fill="#84BEF1" fill-opacity="1.00" stroke="None">
<path d="
M 42.00 83.00 
C 42.29 83.18 44.58 83.93 45.00 84.00
C 43.38 83.01 39.19 79.76 38.00 78.00
C 39.00 79.76 40.70 81.39 42.00 83.00 Z"/>
</g>
<g fill="#77BAF7" fill-opacity="1.00" stroke="None">
<path d="
M 117.00 79.00 
C 116.81 79.89 117.00 81.09 117.00 82.00
C 118.47 81.73 117.89 80.00 118.00 79.00
C 119.08 79.46 120.01 80.32 121.00 81.00
C 120.37 80.37 118.26 76.52 117.00 79.00 Z"/>
</g>
<g fill="#3C3B4B" fill-opacity="1.00" stroke="None">
<path d="
M 253.00 82.00 
C 236.67 77.04 226.69 101.69 241.78 108.22 C 256.87 114.75 267.79 86.49 253.00 82.00
M 252.00 86.00 
C 261.29 89.62 251.50 110.65 241.98 104.02 C 232.45 97.40 242.32 82.23 252.00 86.00 Z"/>
</g>
<g fill="#3B3A4A" fill-opacity="1.00" stroke="None">
<path d="
M 315.00 87.00 
C 310.05 80.31 302.89 81.86 297.08 86.08 C 291.28 90.30 288.78 96.83 292.75 104.25 C 296.72 111.66 305.15 106.75 311.00 108.00
C 318.57 101.29 317.02 90.66 320.00 82.00
C 317.16 81.38 314.38 84.17 315.00 87.00
M 310.00 86.00 
C 319.00 89.93 308.89 110.19 299.78 104.22 C 290.67 98.26 300.02 81.64 310.00 86.00 Z"/>
</g>
<g fill="#A0C6F7" fill-opacity="1.00" stroke="None">
<path d="
M 54.00 87.00 
C 52.06 86.68 49.18 84.86 47.00 84.00
C 49.60 86.73 50.02 86.70 54.00 87.00 Z"/>
</g>
<g fill="#F0F0F3" fill-opacity="1.00" stroke="None">
<path d="
M 252.00 86.00 
C 242.32 82.23 232.45 97.40 241.98 104.02 C 251.50 110.65 261.29 89.62 252.00 86.00 Z"/>
</g>
<g fill="#F3F4F6" fill-opacity="1.00" stroke="None">
<path d="
M 280.00 86.00 
C 270.73 84.16 261.92 98.55 271.93 104.07 C 281.93 109.59 289.92 87.97 280.00 86.00 Z"/>
</g>
<g fill="#F2F2F4" fill-opacity="1.00" stroke="None">
<path d="
M 310.00 86.00 
C 300.02 81.64 290.67 98.26 299.78 104.22 C 308.89 110.19 319.00 89.93 310.00 86.00 Z"/>
</g>
<g fill="#AFADC3" fill-opacity="1.00" stroke="None">
<path d="
M 192.00 96.00 
C 191.78 93.84 191.75 91.15 192.00 89.00
C 191.32 91.73 191.36 93.23 192.00 96.00 Z"/>
</g>
<g fill="#D6F4FD" fill-opacity="1.00" stroke="None">
<path d="
M 88.00 97.00 
C 85.59 99.25 83.75 102.09 81.00 104.00
C 72.44 109.93 56.47 109.72 47.00 106.00
C 46.57 105.83 45.50 106.02 45.00 106.00
C 39.99 105.80 37.60 103.37 34.00 101.00
C 45.21 115.49 68.39 109.82 84.00 108.00
C 84.05 102.08 89.35 101.84 90.00 96.00
C 89.93 96.15 88.23 96.78 88.00 97.00 Z"/>
</g>
<g fill="#79B2E4" fill-opacity="1.00" stroke="None">
<path d="
M 81.00 104.00 
C 83.75 102.09 85.59 99.25 88.00 97.00
C 87.13 98.58 82.55 102.74 81.00 104.00 Z"/>
</g>
<g fill="#84B9E0" fill-opacity="1.00" stroke="None">
<path d="
M 162.00 107.00 
C 163.29 106.91 163.92 106.63 165.00 106.00
C 166.03 105.40 166.39 105.07 167.00 104.00
C 167.93 100.80 165.71 98.91 164.00 97.00
C 166.20 100.81 166.76 104.98 162.00 107.00 Z"/>
</g>
<g fill="#94BCF1" fill-opacity="1.00" stroke="None">
<path d="
M 111.00 108.00 
C 108.20 107.47 99.56 100.89 98.00 98.00
C 99.66 102.56 106.29 107.43 111.00 108.00 Z"/>
</g>
<g fill="#8FC6EE" fill-opacity="1.00" stroke="None">
<path d="
M 160.00 107.00 
C 157.06 107.00 153.92 107.33 151.00 107.00
C 154.08 107.72 156.79 108.37 160.00 107.00 Z"/>
</g>
</svg>