<svg xmlns="http://www.w3.org/2000/svg" xmlns:v="https://svgstorm.com"
viewBox = "0 0 1190 280"
width="1190"
height="280">
<g fill="None" fill-opacity="0.0" stroke="#000000" stroke-opacity="0.00" stroke-width="0.3"><path d="
M 0.00 280.00 
L 1190.00 280.00
L 1190.00 0.00
L 0.00 0.00
L 0.00 280.00
M 104.00 65.00 
C 106.68 59.78 114.44 52.81 119.75 47.75 C 125.06 42.69 131.64 34.16 137.00 32.00
C 144.94 28.79 149.06 40.75 156.25 45.75 C 163.43 50.75 166.71 58.75 174.75 64.25 C 182.79 69.74 186.76 77.76 177.75 83.75 C 168.75 89.74 166.84 96.13 159.25 102.25 C 151.66 108.37 147.67 114.52 141.00 121.00
C 135.04 118.22 131.96 112.78 126.75 108.25 C 121.55 103.72 118.31 99.02 112.75 94.25 C 107.19 89.48 105.27 85.33 98.75 80.25 C 92.24 75.16 100.44 70.42 104.00 65.00
M 372.00 54.00 
C 368.25 56.22 362.51 54.41 358.00 55.00
C 361.75 52.78 367.49 54.59 372.00 54.00
M 938.00 54.00 
C 930.24 56.31 920.51 54.35 912.00 55.00
C 919.76 52.69 929.49 54.65 938.00 54.00
M 1100.00 54.00 
C 1092.91 56.30 1083.84 54.36 1076.00 55.00
C 1083.09 52.70 1092.16 54.64 1100.00 54.00
M 439.00 209.00 
C 427.19 209.78 410.08 211.73 408.07 198.93 C 406.06 186.12 400.59 183.20 398.00 171.00
C 378.00 171.00 358.00 171.00 338.00 171.00
C 335.46 182.86 329.99 187.00 327.68 199.68 C 325.36 212.35 308.43 209.17 297.00 209.00
C 304.58 189.05 316.01 159.65 325.78 134.78 C 335.54 109.91 346.14 82.14 356.00 56.00
C 375.75 49.96 385.63 65.78 389.93 81.07 C 394.22 96.37 401.83 109.41 406.78 124.22 C 411.72 139.04 417.68 151.74 422.71 165.30 C 427.75 178.87 434.14 195.11 439.00 209.00
M 687.00 56.00 
C 708.08 61.22 695.68 96.43 675.33 87.67 C 654.98 78.91 666.21 50.85 687.00 56.00
M 939.00 58.00 
C 942.38 64.98 937.54 76.11 939.00 84.00 C 940.46 91.89 938.49 101.71 939.00 110.00 C 939.51 118.29 939.11 127.56 939.00 136.00 C 938.89 144.44 939.79 153.57 939.00 162.00
C 938.27 169.77 935.78 177.42 932.70 184.69 C 929.61 191.97 925.13 197.34 918.75 202.75 C 912.37 208.16 903.71 209.25 895.33 210.33 C 886.95 211.41 873.20 211.08 865.00 210.00 C 856.80 208.92 849.30 205.32 843.30 200.70 C 837.31 196.07 832.29 187.85 830.08 181.92 C 827.86 176.00 821.80 159.00 828.00 156.00
C 831.45 154.33 837.07 156.64 841.00 156.00 C 844.93 155.36 850.68 154.95 852.00 159.00
C 853.64 164.02 851.64 169.58 855.00 175.00
C 858.61 171.53 856.21 176.70 857.00 179.00
C 862.27 183.38 868.27 187.88 878.00 187.00 C 887.73 186.12 898.22 188.59 904.30 180.30 C 910.37 172.00 912.01 165.53 912.00 155.00 C 911.99 144.47 912.00 132.78 912.00 122.00 C 912.00 111.22 912.00 99.89 912.00 89.00 C 912.00 78.11 912.00 66.91 912.00 56.00
C 920.53 57.28 932.89 53.40 939.00 58.00
M 1100.00 56.00 
C 1100.00 73.33 1100.00 90.67 1100.00 108.00
C 1109.54 96.89 1123.53 98.35 1137.00 98.00 C 1150.47 97.65 1163.03 101.45 1171.30 111.70 C 1179.57 121.95 1181.54 134.38 1181.00 148.00 C 1180.46 161.63 1182.65 178.19 1175.69 189.69 C 1168.74 201.20 1160.78 207.03 1147.98 209.98 C 1135.18 212.92 1118.92 209.72 1108.00 208.00
C 1107.84 203.39 1101.84 201.33 1099.00 198.00
C 1099.00 201.67 1099.00 205.33 1099.00 209.00
C 1090.67 209.00 1082.33 209.00 1074.00 209.00
C 1074.00 158.00 1074.00 107.00 1074.00 56.00
C 1082.67 56.00 1091.33 56.00 1100.00 56.00
M 1073.00 58.00 
C 1073.00 107.33 1073.00 156.67 1073.00 206.00
C 1071.34 157.73 1071.33 106.19 1073.00 58.00
M 113.00 150.00 
C 114.92 148.08 117.46 145.60 120.00 145.00
C 107.50 158.33 94.29 171.55 81.00 184.00
C 73.08 191.92 65.60 200.86 57.00 208.00
C 39.80 196.87 24.83 176.07 8.00 162.00
C 33.59 132.58 64.28 105.88 91.00 77.00
C 106.56 93.02 125.64 108.20 138.00 126.00
C 128.34 132.49 120.86 141.97 113.00 150.00
M 201.00 87.00 
C 196.98 85.37 192.57 81.03 191.00 77.00
C 194.64 79.87 198.23 83.36 201.00 87.00
M 272.00 160.00 
C 258.75 177.71 237.54 193.01 225.00 210.00
C 200.33 183.89 171.45 152.46 142.00 125.00
C 147.45 116.88 155.51 109.93 162.75 102.75 C 169.99 95.58 176.62 88.20 184.25 81.25 C 191.88 74.30 199.79 89.48 206.75 95.25 C 213.72 101.02 221.13 110.24 228.25 116.75 C 235.37 123.27 242.51 131.42 249.75 138.25 C 256.99 145.08 264.38 153.61 272.00 160.00
M 220.00 106.00 
C 213.98 102.43 207.53 96.01 204.00 90.00
C 209.66 94.85 215.22 100.37 220.00 106.00
M 507.00 96.00 
C 497.24 98.32 485.51 96.35 475.00 97.00
C 484.76 94.68 496.49 96.65 507.00 96.00
M 618.00 96.00 
C 608.24 98.32 596.51 96.35 586.00 97.00
C 595.76 94.68 607.49 96.65 618.00 96.00
M 784.00 96.00 
C 773.24 98.32 760.51 96.34 749.00 97.00
C 759.76 94.68 772.49 96.66 784.00 96.00
M 1026.00 96.00 
C 1013.57 98.32 999.18 96.34 986.00 97.00
C 998.43 94.68 1012.82 96.66 1026.00 96.00
M 1148.00 96.00 
C 1138.58 98.31 1127.18 96.35 1117.00 97.00
C 1126.43 94.69 1137.82 96.65 1148.00 96.00
M 509.00 123.00 
C 510.31 124.23 511.87 126.21 512.00 128.00
C 510.85 126.49 504.14 123.23 508.00 123.00
C 500.37 116.46 484.00 118.60 473.98 121.98 C 463.95 125.35 463.63 142.35 464.00 152.00 C 464.37 161.65 462.37 178.31 471.25 184.75 C 480.12 191.19 492.71 187.68 502.74 188.60 C 512.78 189.52 517.05 174.20 517.00 167.00
C 525.67 167.00 534.33 167.00 543.00 167.00
C 543.36 181.68 535.38 193.17 528.00 204.00
C 522.09 203.11 514.40 209.64 506.00 210.00 C 497.60 210.36 484.08 211.97 475.99 210.01 C 467.90 208.05 461.34 208.16 454.92 203.08 C 448.50 198.00 443.41 192.41 440.23 184.77 C 437.05 177.13 438.11 166.17 438.00 157.00 C 437.89 147.83 437.14 135.28 439.93 126.93 C 442.71 118.58 445.98 112.45 453.23 107.23 C 460.48 102.01 465.11 100.36 472.75 98.74 C 480.39 97.12 495.47 98.24 504.00 98.00 C 512.53 97.76 519.47 103.88 527.00 104.00
C 533.54 113.97 542.45 123.79 542.00 137.00
C 533.83 139.27 524.59 137.38 516.00 138.00
C 516.11 132.37 513.95 126.14 509.00 123.00
M 575.00 142.00 
C 574.69 150.25 574.69 158.75 575.00 167.00
C 575.65 183.95 585.72 187.91 601.00 188.00 C 616.28 188.09 629.52 185.19 628.00 167.00
C 636.67 167.00 645.33 167.00 654.00 167.00
C 655.63 188.89 637.31 208.58 617.00 210.00 C 596.69 211.42 565.83 213.36 555.23 191.77 C 544.63 170.18 545.92 144.35 552.80 121.75 C 559.68 99.15 590.05 97.16 611.00 98.00 C 631.95 98.84 654.91 113.56 653.00 138.00
C 644.33 138.00 635.67 138.00 627.00 138.00
C 628.11 110.16 571.13 113.17 575.00 142.00
M 821.00 139.00 
C 821.39 149.23 821.39 159.77 821.00 170.00
C 820.51 182.89 813.23 192.64 808.00 202.00
C 798.20 206.44 784.93 211.16 771.00 211.00 C 757.07 210.84 740.72 211.05 729.25 202.75 C 717.79 194.44 712.18 182.88 712.00 169.00
C 711.63 159.39 711.81 149.61 712.00 140.00
C 712.31 124.46 721.07 106.55 737.23 101.23 C 753.39 95.91 778.85 96.06 795.02 100.98 C 811.20 105.89 820.41 123.61 821.00 139.00
M 1056.00 193.00 
C 1052.03 192.90 1050.74 196.06 1048.75 198.75 C 1046.76 201.44 1039.27 203.37 1043.00 206.00
C 1038.53 205.51 1035.71 206.27 1035.00 210.00
C 1026.02 208.44 1014.07 211.02 1003.00 211.00 C 991.93 210.98 979.94 209.31 970.75 204.25 C 961.57 199.18 958.22 190.35 952.00 186.00
C 953.31 178.12 950.01 166.99 951.00 157.00 C 951.99 147.01 949.36 134.12 953.32 125.32 C 957.28 116.53 961.00 111.06 968.70 105.70 C 976.39 100.33 985.26 97.32 995.00 98.00 C 1004.74 98.68 1019.09 96.80 1028.02 98.98 C 1036.95 101.15 1044.27 105.06 1050.25 111.75 C 1056.23 118.45 1058.09 124.53 1060.00 134.00 C 1061.90 143.47 1060.61 157.11 1061.00 167.00 C 1061.39 176.89 1055.90 185.51 1056.00 193.00
M 670.00 100.00 
C 676.13 98.47 684.65 100.00 691.00 100.00
C 691.50 100.00 692.65 99.77 693.00 100.00
C 697.17 102.71 692.88 115.56 694.00 121.00 C 695.12 126.44 693.70 136.71 694.00 143.00 C 694.30 149.29 694.33 158.56 694.00 165.00 C 693.67 171.44 695.18 181.00 694.00 187.00 C 692.82 193.00 697.14 205.00 693.00 209.00
C 692.74 209.25 692.00 209.00 692.00 209.00
C 685.65 209.00 677.14 210.52 671.00 209.00
C 668.00 208.26 668.76 209.06 668.00 206.00
C 665.98 197.83 668.76 187.37 668.00 179.00 C 667.24 170.63 668.09 159.04 668.00 151.00 C 667.91 142.96 667.42 130.89 668.00 124.00 C 668.58 117.11 665.51 101.12 670.00 100.00
M 667.00 100.00 
C 667.00 136.00 667.00 172.00 667.00 208.00
C 665.34 173.07 665.33 134.86 667.00 100.00
M 696.00 100.00 
C 696.00 136.00 696.00 172.00 696.00 208.00
C 694.33 173.07 694.33 134.86 696.00 100.00
M 245.00 131.00 
C 236.65 125.12 227.85 116.34 222.00 108.00
C 230.00 115.17 237.88 123.04 245.00 131.00
M 534.00 110.00 
C 534.74 110.74 533.18 109.18 534.00 110.00
M 172.00 157.00 
C 161.67 147.49 151.45 137.29 142.00 127.00
C 152.69 135.20 163.82 146.33 172.00 157.00
M 258.00 144.00 
C 253.32 141.73 248.22 136.69 246.00 132.00
C 250.32 135.52 254.56 139.70 258.00 144.00
M 1183.00 133.00 
C 1183.00 147.00 1183.00 161.00 1183.00 175.00
C 1181.34 162.07 1181.33 145.86 1183.00 133.00
M 823.00 134.00 
C 823.00 147.67 823.00 161.33 823.00 175.00
C 821.34 162.41 821.33 146.52 823.00 134.00
M 950.00 135.00 
C 950.00 148.00 950.00 161.00 950.00 174.00
C 948.34 162.07 948.33 146.86 950.00 135.00
M 548.00 137.00 
C 548.00 148.67 548.00 160.33 548.00 172.00
C 546.34 161.41 546.33 147.52 548.00 137.00
M 1063.00 137.00 
C 1063.00 148.33 1063.00 159.67 1063.00 171.00
C 1061.34 160.74 1061.32 147.19 1063.00 137.00
M 711.00 138.00 
C 711.00 149.00 711.00 160.00 711.00 171.00
C 709.35 161.07 709.32 147.86 711.00 138.00
M 540.00 139.00 
C 533.24 141.30 524.51 139.36 517.00 140.00
C 523.76 137.70 532.49 139.64 540.00 139.00
M 651.00 139.00 
C 644.24 141.30 635.51 139.36 628.00 140.00
C 634.76 137.70 643.49 139.64 651.00 139.00
M 466.00 140.00 
C 466.00 149.67 466.00 159.33 466.00 169.00
C 464.35 160.41 464.32 148.52 466.00 140.00
M 577.00 140.00 
C 577.00 150.33 577.00 160.67 577.00 171.00
C 575.35 161.74 575.32 149.19 577.00 140.00
M 272.00 158.00 
C 268.32 156.69 264.25 152.70 263.00 149.00
C 266.30 151.54 269.56 154.69 272.00 158.00
M 851.00 154.00 
C 843.91 156.30 834.84 154.36 827.00 155.00
C 834.09 152.70 843.16 154.64 851.00 154.00
M 825.00 157.00 
C 825.00 160.00 825.00 163.00 825.00 166.00
C 823.48 164.04 823.28 158.89 825.00 157.00
M 191.00 176.00 
C 184.67 170.49 178.45 164.29 173.00 158.00
C 179.69 162.23 186.81 169.32 191.00 176.00
M 96.00 202.00 
C 97.25 195.38 110.39 186.78 115.75 180.75 C 121.12 174.73 130.95 163.44 137.00 161.00
C 144.94 157.79 149.06 169.75 156.25 174.75 C 163.43 179.75 166.71 187.75 174.75 193.25 C 182.79 198.74 186.76 206.76 177.75 212.75 C 168.75 218.74 166.84 225.13 159.25 231.25 C 151.66 237.37 147.67 243.52 141.00 250.00
C 132.75 243.85 123.87 235.21 116.75 227.25 C 109.63 219.29 97.00 211.57 96.00 202.00
M 273.00 163.00 
C 263.16 173.66 252.62 184.22 242.00 194.00
C 250.54 182.98 262.00 171.51 273.00 163.00
M 20.00 176.00 
C 15.68 172.48 11.44 168.30 8.00 164.00
C 12.68 166.27 17.78 171.31 20.00 176.00
M 542.00 165.00 
C 534.91 167.30 525.84 165.36 518.00 166.00
C 525.09 163.70 534.16 165.64 542.00 165.00
M 653.00 165.00 
C 646.58 167.29 638.18 165.36 631.00 166.00
C 637.42 163.71 645.82 165.64 653.00 165.00
M 29.00 185.00 
C 26.04 182.79 23.10 179.98 21.00 177.00
C 24.34 178.00 28.06 181.63 29.00 185.00
M 197.00 182.00 
C 195.07 180.74 193.09 179.00 192.00 177.00
C 194.33 177.14 196.94 179.61 197.00 182.00
M 53.00 209.00 
C 44.67 201.49 36.45 193.29 29.00 185.00
C 37.69 191.21 46.82 200.33 53.00 209.00
M 893.00 185.00 
C 886.91 187.29 878.84 185.37 872.00 186.00
C 878.09 183.71 886.16 185.63 893.00 185.00
M 504.00 186.00 
C 496.58 188.30 487.18 186.36 479.00 187.00
C 486.42 184.70 495.82 186.64 504.00 186.00
M 612.00 186.00 
C 606.58 188.28 599.18 186.37 593.00 187.00
C 598.42 184.72 605.82 186.63 612.00 186.00
M 241.00 195.00 
C 237.15 199.65 232.63 204.22 228.00 208.00
C 230.59 202.98 235.98 197.54 241.00 195.00
M 451.00 201.00 
C 451.74 201.74 450.18 200.18 451.00 201.00
M 323.00 210.00 
C 315.58 212.30 306.18 210.36 298.00 211.00
C 305.42 208.70 314.82 210.64 323.00 210.00
M 438.00 210.00 
C 430.58 212.30 421.18 210.36 413.00 211.00
C 420.42 208.70 429.82 210.64 438.00 210.00
M 693.00 210.00 
C 685.91 212.30 676.84 210.36 669.00 211.00
C 676.09 208.70 685.16 210.64 693.00 210.00
M 1098.00 210.00 
C 1091.24 212.30 1082.51 210.36 1075.00 211.00
C 1081.75 208.70 1090.49 210.64 1098.00 210.00
M 500.00 212.00 
C 494.91 214.27 487.84 212.38 482.00 213.00
C 487.09 210.73 494.16 212.62 500.00 212.00
M 611.00 212.00 
C 605.91 214.27 598.84 212.38 593.00 213.00
C 598.09 210.73 605.16 212.62 611.00 212.00
M 776.00 212.00 
C 770.25 214.28 762.51 212.37 756.00 213.00
C 761.75 210.72 769.49 212.63 776.00 212.00
M 893.00 212.00 
C 886.91 214.29 878.84 212.37 872.00 213.00
C 878.09 210.71 886.16 212.63 893.00 212.00
M 1017.00 212.00 
C 1009.91 214.30 1000.84 212.36 993.00 213.00
C 1000.09 210.70 1009.15 212.64 1017.00 212.00
M 1140.00 212.00 
C 1135.25 214.26 1128.51 212.38 1123.00 213.00
C 1127.75 210.74 1134.49 212.62 1140.00 212.00 Z"/>
</g>
<g fill="None" fill-opacity="0.0" stroke="#002252" stroke-opacity="0.97" stroke-width="0.3"><path d="
M 137.00 32.00 
C 131.13 36.31 126.13 43.61 120.75 48.75 C 115.37 53.89 108.67 59.42 104.00 65.00
C 100.44 70.42 92.24 75.16 98.75 80.25 C 105.27 85.33 107.19 89.48 112.75 94.25 C 118.31 99.02 121.55 103.72 126.75 108.25 C 131.96 112.78 135.04 118.22 141.00 121.00
C 147.67 114.52 151.66 108.37 159.25 102.25 C 166.84 96.13 168.75 89.74 177.75 83.75 C 186.76 77.76 182.79 69.74 174.75 64.25 C 166.71 58.75 163.43 50.75 156.25 45.75 C 149.06 40.75 144.94 28.79 137.00 32.00 Z"/>
</g>
<g fill="None" fill-opacity="0.0" stroke="#002252" stroke-opacity="0.00" stroke-width="0.3"><path d="
M 104.00 65.00 
C 108.67 59.42 115.37 53.89 120.75 48.75 C 126.13 43.61 131.13 36.31 137.00 32.00
C 131.64 34.16 125.06 42.69 119.75 47.75 C 114.44 52.81 106.68 59.78 104.00 65.00 Z"/>
</g>
<g fill="None" fill-opacity="0.0" stroke="#003062" stroke-opacity="0.02" stroke-width="0.3"><path d="
M 372.00 54.00 
C 367.49 54.59 361.75 52.78 358.00 55.00
C 362.51 54.41 368.25 56.22 372.00 54.00 Z"/>
</g>
<g fill="None" fill-opacity="0.0" stroke="#003062" stroke-opacity="0.02" stroke-width="0.3"><path d="
M 938.00 54.00 
C 929.49 54.65 919.76 52.69 912.00 55.00
C 920.51 54.35 930.24 56.31 938.00 54.00 Z"/>
</g>
<g fill="None" fill-opacity="0.0" stroke="#003062" stroke-opacity="0.02" stroke-width="0.3"><path d="
M 1100.00 54.00 
C 1092.16 54.64 1083.09 52.70 1076.00 55.00
C 1083.84 54.36 1092.91 56.30 1100.00 54.00 Z"/>
</g>
<g fill="None" fill-opacity="0.0" stroke="#002252" stroke-opacity="0.96" stroke-width="0.3"><path d="
M 439.00 209.00 
C 434.14 195.11 427.75 178.87 422.71 165.30 C 417.68 151.74 411.72 139.04 406.78 124.22 C 401.83 109.41 394.22 96.37 389.93 81.07 C 385.63 65.78 375.75 49.96 356.00 56.00
C 346.14 82.14 335.54 109.91 325.78 134.78 C 316.01 159.65 304.58 189.05 297.00 209.00
C 308.43 209.17 325.36 212.35 327.68 199.68 C 329.99 187.00 335.46 182.86 338.00 171.00
C 358.00 171.00 378.00 171.00 398.00 171.00
C 400.59 183.20 406.06 186.12 408.07 198.93 C 410.08 211.73 427.19 209.78 439.00 209.00
M 388.00 149.00 
C 383.78 151.83 373.36 149.99 368.00 150.00 C 362.64 150.01 352.17 151.80 348.00 149.00
C 343.99 146.31 351.63 135.64 352.93 129.93 C 354.22 124.21 358.59 115.62 360.32 109.32 C 362.05 103.03 366.43 95.56 368.00 89.00
C 370.75 95.17 373.51 102.67 375.78 109.22 C 378.04 115.78 381.37 123.27 383.31 129.69 C 385.25 136.12 390.92 144.62 388.00 149.00 Z"/>
</g>
<g fill="None" fill-opacity="0.0" stroke="#002252" stroke-opacity="0.95" stroke-width="0.3"><path d="
M 687.00 56.00 
C 666.21 50.85 654.98 78.91 675.33 87.67 C 695.68 96.43 708.08 61.22 687.00 56.00 Z"/>
</g>
<g fill="None" fill-opacity="0.0" stroke="#002252" stroke-opacity="0.98" stroke-width="0.3"><path d="
M 852.00 159.00 
C 850.68 156.39 844.01 156.03 841.00 157.00 C 837.99 157.97 829.75 155.29 828.00 156.00
C 821.80 159.00 827.86 176.00 830.08 181.92 C 832.29 187.85 837.31 196.07 843.30 200.70 C 849.30 205.32 856.80 208.92 865.00 210.00 C 873.20 211.08 886.95 211.41 895.33 210.33 C 903.71 209.25 912.37 208.16 918.75 202.75 C 925.13 197.34 929.61 191.97 932.70 184.69 C 935.78 177.42 938.27 169.77 939.00 162.00
C 938.99 157.23 937.45 151.64 938.00 146.00 C 938.55 140.36 937.84 133.75 938.00 128.00 C 938.16 122.25 938.13 115.68 938.00 110.00 C 937.87 104.32 938.56 98.49 938.00 93.00 C 937.44 87.51 939.26 80.11 938.00 75.00 C 936.74 69.89 940.40 61.45 939.00 58.00
C 932.89 53.40 920.53 57.28 912.00 56.00
C 912.00 66.91 912.00 78.11 912.00 89.00 C 912.00 99.89 912.00 111.22 912.00 122.00 C 912.00 132.78 911.99 144.47 912.00 155.00 C 912.01 165.53 910.37 172.00 904.30 180.30 C 898.22 188.59 887.73 186.12 878.00 187.00 C 868.27 187.88 862.27 183.38 857.00 179.00
C 856.21 176.70 858.61 171.53 855.00 175.00
C 851.64 169.58 853.64 164.02 852.00 159.00 Z"/>
</g>
<g fill="None" fill-opacity="0.0" stroke="#002252" stroke-opacity="0.97" stroke-width="0.3"><path d="
M 1100.00 56.00 
C 1091.33 56.00 1082.67 56.00 1074.00 56.00
C 1074.00 107.00 1074.00 158.00 1074.00 209.00
C 1082.33 209.00 1090.67 209.00 1099.00 209.00
C 1099.00 205.33 1099.00 201.67 1099.00 198.00
C 1101.84 201.33 1107.84 203.39 1108.00 208.00
C 1118.92 209.72 1135.18 212.92 1147.98 209.98 C 1160.78 207.03 1168.74 201.20 1175.69 189.69 C 1182.65 178.19 1180.46 161.63 1181.00 148.00 C 1181.54 134.38 1179.57 121.95 1171.30 111.70 C 1163.03 101.45 1150.47 97.65 1137.00 98.00 C 1123.53 98.35 1109.54 96.89 1100.00 108.00
C 1100.00 90.67 1100.00 73.33 1100.00 56.00
M 1147.00 100.00 
C 1138.91 102.31 1128.84 100.35 1120.00 101.00
C 1128.09 98.69 1138.16 100.65 1147.00 100.00
M 1141.00 118.00 
C 1134.91 120.29 1126.84 118.37 1120.00 119.00
C 1126.09 116.71 1134.16 118.63 1141.00 118.00
M 1138.00 121.00 
C 1151.95 123.89 1156.42 137.05 1155.00 150.00 C 1153.58 162.95 1158.49 184.77 1142.00 186.00
C 1134.78 187.96 1123.16 187.77 1116.00 186.00
C 1099.23 185.66 1100.48 163.81 1100.00 151.00 C 1099.52 138.19 1106.51 122.05 1122.00 121.00
C 1127.13 120.08 1132.92 119.95 1138.00 121.00 Z"/>
</g>
<g fill="None" fill-opacity="0.0" stroke="#003062" stroke-opacity="0.02" stroke-width="0.3"><path d="
M 939.00 162.00 
C 939.79 153.57 938.89 144.44 939.00 136.00 C 939.11 127.56 939.51 118.29 939.00 110.00 C 938.49 101.71 940.46 91.89 939.00 84.00 C 937.54 76.11 942.38 64.98 939.00 58.00
C 940.40 61.45 936.74 69.89 938.00 75.00 C 939.26 80.11 937.44 87.51 938.00 93.00 C 938.56 98.49 937.87 104.32 938.00 110.00 C 938.13 115.68 938.16 122.25 938.00 128.00 C 937.84 133.75 938.55 140.36 938.00 146.00 C 937.45 151.64 938.99 157.23 939.00 162.00 Z"/>
</g>
<g fill="None" fill-opacity="0.0" stroke="#003062" stroke-opacity="0.02" stroke-width="0.3"><path d="
M 1073.00 58.00 
C 1071.33 106.19 1071.34 157.73 1073.00 206.00
C 1073.00 156.67 1073.00 107.33 1073.00 58.00 Z"/>
</g>
<g fill="None" fill-opacity="0.0" stroke="#007EED" stroke-opacity="0.98" stroke-width="0.3"><path d="
M 81.00 184.00 
C 81.41 183.13 81.48 181.95 82.00 181.00
C 83.11 178.98 85.11 177.17 87.00 176.00
C 87.32 175.80 87.80 175.32 88.00 175.00
C 90.17 171.50 94.55 167.13 98.00 165.00
C 98.32 164.80 98.79 164.31 99.00 164.00
C 99.21 163.69 99.68 163.19 100.00 163.00
C 101.43 162.14 102.05 161.23 103.00 160.00
C 103.74 159.05 104.08 158.70 105.00 158.00
C 108.04 155.68 110.58 152.84 113.00 150.00
C 120.86 141.97 128.34 132.49 138.00 126.00
C 125.64 108.20 106.56 93.02 91.00 77.00
C 64.28 105.88 33.59 132.58 8.00 162.00
C 24.83 176.07 39.80 196.87 57.00 208.00
C 65.60 200.86 73.08 191.92 81.00 184.00 Z"/>
</g>
<g fill="None" fill-opacity="0.0" stroke="#004041" stroke-opacity="0.00" stroke-width="0.3"><path d="
M 201.00 87.00 
C 198.23 83.36 194.64 79.87 191.00 77.00
C 192.57 81.03 196.98 85.37 201.00 87.00 Z"/>
</g>
<g fill="None" fill-opacity="0.0" stroke="#007EED" stroke-opacity="0.98" stroke-width="0.3"><path d="
M 272.00 160.00 
C 264.38 153.61 256.99 145.08 249.75 138.25 C 242.51 131.42 235.37 123.27 228.25 116.75 C 221.13 110.24 213.72 101.02 206.75 95.25 C 199.79 89.48 191.88 74.30 184.25 81.25 C 176.62 88.20 169.99 95.58 162.75 102.75 C 155.51 109.93 147.45 116.88 142.00 125.00
C 171.45 152.46 200.33 183.89 225.00 210.00
C 237.54 193.01 258.75 177.71 272.00 160.00 Z"/>
</g>
<g fill="None" fill-opacity="0.0" stroke="#000000" stroke-opacity="0.00" stroke-width="0.3"><path d="
M 348.00 149.00 
C 352.69 151.01 362.82 149.00 368.00 149.00 C 373.18 149.00 383.31 151.01 388.00 149.00
C 390.92 144.62 385.25 136.12 383.31 129.69 C 381.37 123.27 378.04 115.78 375.78 109.22 C 373.51 102.67 370.75 95.17 368.00 89.00
C 366.43 95.56 362.05 103.03 360.32 109.32 C 358.59 115.62 354.22 124.21 352.93 129.93 C 351.63 135.64 343.99 146.31 348.00 149.00
M 387.00 147.00 
C 381.55 148.39 373.10 148.57 367.00 148.00 C 360.90 147.43 350.00 150.69 348.00 145.00
C 359.00 149.58 374.32 145.73 387.00 147.00 Z"/>
</g>
<g fill="None" fill-opacity="0.0" stroke="#004041" stroke-opacity="0.00" stroke-width="0.3"><path d="
M 220.00 106.00 
C 215.22 100.37 209.66 94.85 204.00 90.00
C 207.53 96.01 213.98 102.43 220.00 106.00 Z"/>
</g>
<g fill="None" fill-opacity="0.0" stroke="#00007D" stroke-opacity="0.01" stroke-width="0.3"><path d="
M 507.00 96.00 
C 496.49 96.65 484.76 94.68 475.00 97.00
C 485.51 96.35 497.24 98.32 507.00 96.00 Z"/>
</g>
<g fill="None" fill-opacity="0.0" stroke="#00007D" stroke-opacity="0.01" stroke-width="0.3"><path d="
M 618.00 96.00 
C 607.49 96.65 595.76 94.68 586.00 97.00
C 596.51 96.35 608.24 98.32 618.00 96.00 Z"/>
</g>
<g fill="None" fill-opacity="0.0" stroke="#00007D" stroke-opacity="0.01" stroke-width="0.3"><path d="
M 784.00 96.00 
C 772.49 96.66 759.76 94.68 749.00 97.00
C 760.51 96.34 773.24 98.32 784.00 96.00 Z"/>
</g>
<g fill="None" fill-opacity="0.0" stroke="#00007D" stroke-opacity="0.01" stroke-width="0.3"><path d="
M 1026.00 96.00 
C 1012.82 96.66 998.43 94.68 986.00 97.00
C 999.18 96.34 1013.57 98.32 1026.00 96.00 Z"/>
</g>
<g fill="None" fill-opacity="0.0" stroke="#00007D" stroke-opacity="0.01" stroke-width="0.3"><path d="
M 1148.00 96.00 
C 1137.82 96.65 1126.43 94.69 1117.00 97.00
C 1127.18 96.35 1138.58 98.31 1148.00 96.00 Z"/>
</g>
<g fill="None" fill-opacity="0.0" stroke="#002252" stroke-opacity="0.96" stroke-width="0.3"><path d="
M 508.00 123.00 
C 508.29 123.25 509.00 123.00 509.00 123.00
C 513.95 126.14 516.11 132.37 516.00 138.00
C 524.59 137.38 533.83 139.27 542.00 137.00
C 542.45 123.79 533.54 113.97 527.00 104.00
C 519.47 103.88 512.53 97.76 504.00 98.00 C 495.47 98.24 480.39 97.12 472.75 98.74 C 465.11 100.36 460.48 102.01 453.23 107.23 C 445.98 112.45 442.71 118.58 439.93 126.93 C 437.14 135.28 437.89 147.83 438.00 157.00 C 438.11 166.17 437.05 177.13 440.23 184.77 C 443.41 192.41 448.50 198.00 454.92 203.08 C 461.34 208.16 467.90 208.05 475.99 210.01 C 484.08 211.97 497.60 210.36 506.00 210.00 C 514.40 209.64 522.09 203.11 528.00 204.00
C 535.38 193.17 543.36 181.68 543.00 167.00
C 534.33 167.00 525.67 167.00 517.00 167.00
C 517.05 174.20 512.78 189.52 502.74 188.60 C 492.71 187.68 480.12 191.19 471.25 184.75 C 462.37 178.31 464.37 161.65 464.00 152.00 C 463.63 142.35 463.95 125.35 473.98 121.98 C 484.00 118.60 500.37 116.46 508.00 123.00
M 539.00 176.00 
C 541.28 166.06 523.46 169.54 519.00 172.00
C 519.53 165.95 527.35 170.49 532.00 169.00 C 536.65 167.51 543.55 170.53 539.00 176.00 Z"/>
</g>
<g fill="None" fill-opacity="0.0" stroke="#002252" stroke-opacity="0.96" stroke-width="0.3"><path d="
M 575.00 167.00 
C 573.88 159.19 573.89 149.74 575.00 142.00
C 571.13 113.17 628.11 110.16 627.00 138.00
C 635.67 138.00 644.33 138.00 653.00 138.00
C 654.91 113.56 631.95 98.84 611.00 98.00 C 590.05 97.16 559.68 99.15 552.80 121.75 C 545.92 144.35 544.63 170.18 555.23 191.77 C 565.83 213.36 596.69 211.42 617.00 210.00 C 637.31 208.58 655.63 188.89 654.00 167.00
C 645.33 167.00 636.67 167.00 628.00 167.00
C 629.52 185.19 616.28 188.09 601.00 188.00 C 585.72 187.91 575.65 183.95 575.00 167.00 Z"/>
</g>
<g fill="None" fill-opacity="0.0" stroke="#002252" stroke-opacity="0.96" stroke-width="0.3"><path d="
M 712.00 140.00 
C 712.70 149.10 712.53 159.99 712.00 169.00
C 712.18 182.88 717.79 194.44 729.25 202.75 C 740.72 211.05 757.07 210.84 771.00 211.00 C 784.93 211.16 798.20 206.44 808.00 202.00
C 813.23 192.64 820.51 182.89 821.00 170.00
C 820.43 160.29 820.43 148.64 821.00 139.00
C 820.41 123.61 811.20 105.89 795.02 100.98 C 778.85 96.06 753.39 95.91 737.23 101.23 C 721.07 106.55 712.31 124.46 712.00 140.00
M 744.00 185.00 
C 739.93 178.19 737.01 170.32 738.00 162.00 C 738.99 153.68 736.54 141.35 738.98 133.98 C 741.41 126.61 746.49 120.86 754.22 120.22 C 761.96 119.58 774.78 118.79 782.01 120.99 C 789.23 123.20 794.18 129.29 794.98 137.02 C 795.77 144.76 794.66 157.73 795.00 166.00 C 795.34 174.27 792.80 180.81 785.75 185.75 C 778.70 190.70 767.26 185.57 759.00 188.00 C 750.74 190.43 743.96 178.50 744.00 185.00
M 800.00 200.00 
C 800.91 205.15 796.12 202.40 794.00 205.00
C 793.87 201.71 797.94 201.48 800.00 200.00 Z"/>
</g>
<g fill="None" fill-opacity="0.0" stroke="#002252" stroke-opacity="0.96" stroke-width="0.3"><path d="
M 1056.00 193.00 
C 1055.90 185.51 1061.39 176.89 1061.00 167.00 C 1060.61 157.11 1061.90 143.47 1060.00 134.00 C 1058.09 124.53 1056.23 118.45 1050.25 111.75 C 1044.27 105.06 1036.95 101.15 1028.02 98.98 C 1019.09 96.80 1004.74 98.68 995.00 98.00 C 985.26 97.32 976.39 100.33 968.70 105.70 C 961.00 111.06 957.28 116.53 953.32 125.32 C 949.36 134.12 951.99 147.01 951.00 157.00 C 950.01 166.99 953.31 178.12 952.00 186.00
C 958.22 190.35 961.57 199.18 970.75 204.25 C 979.94 209.31 991.93 210.98 1003.00 211.00 C 1014.07 211.02 1026.02 208.44 1035.00 210.00
C 1035.71 206.27 1038.53 205.51 1043.00 206.00
C 1039.27 203.37 1046.76 201.44 1048.75 198.75 C 1050.74 196.06 1052.03 192.90 1056.00 193.00
M 980.00 178.00 
C 979.39 176.48 979.18 175.70 979.00 174.00
C 975.97 161.22 974.44 131.56 986.25 123.25 C 998.06 114.94 1027.68 117.85 1032.31 131.70 C 1036.93 145.54 1037.25 174.08 1026.75 183.75 C 1016.26 193.42 985.23 191.02 980.00 178.00
M 976.00 136.00 
C 976.00 148.33 976.00 160.67 976.00 173.00
C 974.34 161.74 974.33 147.19 976.00 136.00
M 1037.00 140.00 
C 1037.00 150.00 1037.00 160.00 1037.00 170.00
C 1035.35 161.07 1035.32 148.85 1037.00 140.00 Z"/>
</g>
<g fill="None" fill-opacity="0.0" stroke="#002252" stroke-opacity="0.18" stroke-width="0.3"><path d="
M 668.00 206.00 
C 666.41 195.69 670.32 182.42 669.00 171.00 C 667.68 159.58 669.49 146.55 669.00 135.00 C 668.51 123.45 668.53 110.71 670.00 100.00
C 665.51 101.12 668.58 117.11 668.00 124.00 C 667.42 130.89 667.91 142.96 668.00 151.00 C 668.09 159.04 667.24 170.63 668.00 179.00 C 668.76 187.37 665.98 197.83 668.00 206.00 Z"/>
</g>
<g fill="None" fill-opacity="0.0" stroke="#00007D" stroke-opacity="0.01" stroke-width="0.3"><path d="
M 667.00 100.00 
C 665.33 134.86 665.34 173.07 667.00 208.00
C 667.00 172.00 667.00 136.00 667.00 100.00 Z"/>
</g>
<g fill="None" fill-opacity="0.0" stroke="#002253" stroke-opacity="0.98" stroke-width="0.3"><path d="
M 668.00 206.00 
C 668.76 209.06 668.00 208.26 671.00 209.00
C 676.26 209.81 686.85 205.19 692.00 209.00
C 692.00 209.00 692.74 209.25 693.00 209.00
C 693.79 200.21 692.90 190.81 693.00 182.00 C 693.10 173.19 693.54 163.70 693.00 155.00 C 692.46 146.30 694.53 136.40 693.00 128.00 C 691.47 119.60 696.39 107.64 693.00 100.00
C 692.65 99.77 691.50 100.00 691.00 100.00
C 685.40 102.38 675.61 101.13 670.00 100.00
C 668.53 110.71 668.51 123.45 669.00 135.00 C 669.49 146.55 667.68 159.58 669.00 171.00 C 670.32 182.42 666.41 195.69 668.00 206.00
M 691.00 103.00 
C 691.67 137.58 689.67 172.87 692.00 207.00
C 684.74 206.40 676.83 208.24 670.00 206.00
C 672.33 172.17 670.33 137.25 671.00 103.00
C 677.67 103.00 684.33 103.00 691.00 103.00 Z"/>
</g>
<g fill="None" fill-opacity="0.0" stroke="#002252" stroke-opacity="0.96" stroke-width="0.3"><path d="
M 691.00 100.00 
C 684.65 100.00 676.13 98.47 670.00 100.00
C 675.61 101.13 685.40 102.38 691.00 100.00 Z"/>
</g>
<g fill="None" fill-opacity="0.0" stroke="#002252" stroke-opacity="0.78" stroke-width="0.3"><path d="
M 693.00 209.00 
C 697.14 205.00 692.82 193.00 694.00 187.00 C 695.18 181.00 693.67 171.44 694.00 165.00 C 694.33 158.56 694.30 149.29 694.00 143.00 C 693.70 136.71 695.12 126.44 694.00 121.00 C 692.88 115.56 697.17 102.71 693.00 100.00
C 696.39 107.64 691.47 119.60 693.00 128.00 C 694.53 136.40 692.46 146.30 693.00 155.00 C 693.54 163.70 693.10 173.19 693.00 182.00 C 692.90 190.81 693.79 200.21 693.00 209.00 Z"/>
</g>
<g fill="None" fill-opacity="0.0" stroke="#00007D" stroke-opacity="0.01" stroke-width="0.3"><path d="
M 696.00 100.00 
C 694.33 134.86 694.33 173.07 696.00 208.00
C 696.00 172.00 696.00 136.00 696.00 100.00 Z"/>
</g>
<g fill="None" fill-opacity="0.0" stroke="#002253" stroke-opacity="0.98" stroke-width="0.3"><path d="
M 1147.00 100.00 
C 1138.16 100.65 1128.09 98.69 1120.00 101.00
C 1128.84 100.35 1138.91 102.31 1147.00 100.00 Z"/>
</g>
<g fill="None" fill-opacity="0.0" stroke="#002252" stroke-opacity="1.00" stroke-width="0.3"><path d="
M 691.00 103.00 
C 684.33 103.00 677.67 103.00 671.00 103.00
C 670.33 137.25 672.33 172.17 670.00 206.00
C 676.83 208.24 684.74 206.40 692.00 207.00
C 689.67 172.87 691.67 137.58 691.00 103.00 Z"/>
</g>
<g fill="None" fill-opacity="0.0" stroke="#004041" stroke-opacity="0.00" stroke-width="0.3"><path d="
M 245.00 131.00 
C 237.88 123.04 230.00 115.17 222.00 108.00
C 227.85 116.34 236.65 125.12 245.00 131.00 Z"/>
</g>
<g fill="None" fill-opacity="0.0" stroke="#00007D" stroke-opacity="0.01" stroke-width="0.3"><path d="
M 534.00 110.00 
C 533.18 109.18 534.74 110.74 534.00 110.00 Z"/>
</g>
<g fill="None" fill-opacity="0.0" stroke="#002253" stroke-opacity="0.97" stroke-width="0.3"><path d="
M 1141.00 118.00 
C 1134.16 118.63 1126.09 116.71 1120.00 119.00
C 1126.84 118.37 1134.91 120.29 1141.00 118.00 Z"/>
</g>
<g fill="None" fill-opacity="0.0" stroke="#000000" stroke-opacity="0.00" stroke-width="0.3"><path d="
M 744.00 185.00 
C 743.96 178.50 750.74 190.43 759.00 188.00 C 767.26 185.57 778.70 190.70 785.75 185.75 C 792.80 180.81 795.34 174.27 795.00 166.00 C 794.66 157.73 795.77 144.76 794.98 137.02 C 794.18 129.29 789.23 123.20 782.01 120.99 C 774.78 118.79 761.96 119.58 754.22 120.22 C 746.49 120.86 741.41 126.61 738.98 133.98 C 736.54 141.35 738.99 153.68 738.00 162.00 C 737.01 170.32 739.93 178.19 744.00 185.00
M 794.00 137.00 
C 794.00 148.00 794.00 159.00 794.00 170.00
C 792.35 160.07 792.32 146.86 794.00 137.00
M 740.00 138.00 
C 740.00 149.00 740.00 160.00 740.00 171.00
C 738.35 161.07 738.32 147.86 740.00 138.00
M 776.00 186.00 
C 770.25 188.28 762.51 186.37 756.00 187.00
C 761.75 184.72 769.49 186.63 776.00 186.00 Z"/>
</g>
<g fill="None" fill-opacity="0.0" stroke="#000000" stroke-opacity="0.00" stroke-width="0.3"><path d="
M 979.00 174.00 
C 977.65 161.14 980.02 147.89 979.00 135.00
C 980.54 141.33 980.37 151.06 980.00 158.00 C 979.63 164.94 981.41 174.21 980.00 178.00
C 985.23 191.02 1016.26 193.42 1026.75 183.75 C 1037.25 174.08 1036.93 145.54 1032.31 131.70 C 1027.68 117.85 998.06 114.94 986.25 123.25 C 974.44 131.56 975.97 161.22 979.00 174.00
M 1033.00 139.00 
C 1033.00 149.33 1033.00 159.67 1033.00 170.00
C 1031.35 160.74 1031.32 148.19 1033.00 139.00
M 1018.00 186.00 
C 1011.24 188.30 1002.51 186.36 995.00 187.00
C 1001.76 184.70 1010.49 186.64 1018.00 186.00 Z"/>
</g>
<g fill="None" fill-opacity="0.0" stroke="#002253" stroke-opacity="0.44" stroke-width="0.3"><path d="
M 1122.00 121.00 
C 1127.11 120.65 1132.90 120.54 1138.00 121.00
C 1132.92 119.95 1127.13 120.08 1122.00 121.00 Z"/>
</g>
<g fill="None" fill-opacity="0.0" stroke="#000000" stroke-opacity="0.00" stroke-width="0.3"><path d="
M 1116.00 186.00 
C 1116.50 186.01 1117.00 186.00 1117.00 186.00
C 1120.25 183.59 1137.81 183.65 1141.00 186.00
C 1141.50 186.00 1142.00 186.00 1142.00 186.00
C 1158.49 184.77 1153.58 162.95 1155.00 150.00 C 1156.42 137.05 1151.95 123.89 1138.00 121.00
C 1132.90 120.54 1127.11 120.65 1122.00 121.00
C 1106.51 122.05 1099.52 138.19 1100.00 151.00 C 1100.48 163.81 1099.23 185.66 1116.00 186.00
M 1140.00 122.00 
C 1134.58 124.28 1127.17 122.37 1121.00 123.00
C 1126.42 120.72 1133.83 122.63 1140.00 122.00
M 1154.00 138.00 
C 1154.00 148.33 1154.00 158.67 1154.00 169.00
C 1152.35 159.74 1152.32 147.19 1154.00 138.00 Z"/>
</g>
<g fill="None" fill-opacity="0.0" stroke="#003062" stroke-opacity="0.02" stroke-width="0.3"><path d="
M 1140.00 122.00 
C 1133.83 122.63 1126.42 120.72 1121.00 123.00
C 1127.17 122.37 1134.58 124.28 1140.00 122.00 Z"/>
</g>
<g fill="None" fill-opacity="0.0" stroke="#000054" stroke-opacity="0.01" stroke-width="0.3"><path d="
M 509.00 123.00 
C 509.00 123.00 508.29 123.25 508.00 123.00
C 504.14 123.23 510.85 126.49 512.00 128.00
C 511.87 126.21 510.31 124.23 509.00 123.00 Z"/>
</g>
<g fill="None" fill-opacity="0.0" stroke="#003062" stroke-opacity="0.00" stroke-width="0.3"><path d="
M 172.00 157.00 
C 163.82 146.33 152.69 135.20 142.00 127.00
C 151.45 137.29 161.67 147.49 172.00 157.00 Z"/>
</g>
<g fill="None" fill-opacity="0.0" stroke="#004041" stroke-opacity="0.00" stroke-width="0.3"><path d="
M 258.00 144.00 
C 254.56 139.70 250.32 135.52 246.00 132.00
C 248.22 136.69 253.32 141.73 258.00 144.00 Z"/>
</g>
<g fill="None" fill-opacity="0.0" stroke="#000054" stroke-opacity="0.01" stroke-width="0.3"><path d="
M 1183.00 133.00 
C 1181.33 145.86 1181.34 162.07 1183.00 175.00
C 1183.00 161.00 1183.00 147.00 1183.00 133.00 Z"/>
</g>
<g fill="None" fill-opacity="0.0" stroke="#00007D" stroke-opacity="0.01" stroke-width="0.3"><path d="
M 823.00 134.00 
C 821.33 146.52 821.34 162.41 823.00 175.00
C 823.00 161.33 823.00 147.67 823.00 134.00 Z"/>
</g>
<g fill="None" fill-opacity="0.0" stroke="#000054" stroke-opacity="0.01" stroke-width="0.3"><path d="
M 950.00 135.00 
C 948.33 146.86 948.34 162.07 950.00 174.00
C 950.00 161.00 950.00 148.00 950.00 135.00 Z"/>
</g>
<g fill="None" fill-opacity="0.0" stroke="#00007D" stroke-opacity="0.01" stroke-width="0.3"><path d="
M 979.00 174.00 
C 979.18 175.70 979.39 176.48 980.00 178.00
C 981.41 174.21 979.63 164.94 980.00 158.00 C 980.37 151.06 980.54 141.33 979.00 135.00
C 980.02 147.89 977.65 161.14 979.00 174.00 Z"/>
</g>
<g fill="None" fill-opacity="0.0" stroke="#002253" stroke-opacity="0.98" stroke-width="0.3"><path d="
M 976.00 136.00 
C 974.33 147.19 974.34 161.74 976.00 173.00
C 976.00 160.67 976.00 148.33 976.00 136.00 Z"/>
</g>
<g fill="None" fill-opacity="0.0" stroke="#003062" stroke-opacity="0.02" stroke-width="0.3"><path d="
M 548.00 137.00 
C 546.33 147.52 546.34 161.41 548.00 172.00
C 548.00 160.33 548.00 148.67 548.00 137.00 Z"/>
</g>
<g fill="None" fill-opacity="0.0" stroke="#00007D" stroke-opacity="0.01" stroke-width="0.3"><path d="
M 794.00 137.00 
C 792.32 146.86 792.35 160.07 794.00 170.00
C 794.00 159.00 794.00 148.00 794.00 137.00 Z"/>
</g>
<g fill="None" fill-opacity="0.0" stroke="#000054" stroke-opacity="0.01" stroke-width="0.3"><path d="
M 1063.00 137.00 
C 1061.32 147.19 1061.34 160.74 1063.00 171.00
C 1063.00 159.67 1063.00 148.33 1063.00 137.00 Z"/>
</g>
<g fill="None" fill-opacity="0.0" stroke="#000054" stroke-opacity="0.01" stroke-width="0.3"><path d="
M 711.00 138.00 
C 709.32 147.86 709.35 161.07 711.00 171.00
C 711.00 160.00 711.00 149.00 711.00 138.00 Z"/>
</g>
<g fill="None" fill-opacity="0.0" stroke="#00007D" stroke-opacity="0.01" stroke-width="0.3"><path d="
M 740.00 138.00 
C 738.32 147.86 738.35 161.07 740.00 171.00
C 740.00 160.00 740.00 149.00 740.00 138.00 Z"/>
</g>
<g fill="None" fill-opacity="0.0" stroke="#000054" stroke-opacity="0.01" stroke-width="0.3"><path d="
M 1154.00 138.00 
C 1152.32 147.19 1152.35 159.74 1154.00 169.00
C 1154.00 158.67 1154.00 148.33 1154.00 138.00 Z"/>
</g>
<g fill="None" fill-opacity="0.0" stroke="#000054" stroke-opacity="0.01" stroke-width="0.3"><path d="
M 540.00 139.00 
C 532.49 139.64 523.76 137.70 517.00 140.00
C 524.51 139.36 533.24 141.30 540.00 139.00 Z"/>
</g>
<g fill="None" fill-opacity="0.0" stroke="#000054" stroke-opacity="0.01" stroke-width="0.3"><path d="
M 651.00 139.00 
C 643.49 139.64 634.76 137.70 628.00 140.00
C 635.51 139.36 644.24 141.30 651.00 139.00 Z"/>
</g>
<g fill="None" fill-opacity="0.0" stroke="#002253" stroke-opacity="0.66" stroke-width="0.3"><path d="
M 821.00 170.00 
C 821.39 159.77 821.39 149.23 821.00 139.00
C 820.43 148.64 820.43 160.29 821.00 170.00 Z"/>
</g>
<g fill="None" fill-opacity="0.0" stroke="#000054" stroke-opacity="0.01" stroke-width="0.3"><path d="
M 1033.00 139.00 
C 1031.32 148.19 1031.35 160.74 1033.00 170.00
C 1033.00 159.67 1033.00 149.33 1033.00 139.00 Z"/>
</g>
<g fill="None" fill-opacity="0.0" stroke="#00007D" stroke-opacity="0.01" stroke-width="0.3"><path d="
M 466.00 140.00 
C 464.32 148.52 464.35 160.41 466.00 169.00
C 466.00 159.33 466.00 149.67 466.00 140.00 Z"/>
</g>
<g fill="None" fill-opacity="0.0" stroke="#003062" stroke-opacity="0.02" stroke-width="0.3"><path d="
M 577.00 140.00 
C 575.32 149.19 575.35 161.74 577.00 171.00
C 577.00 160.67 577.00 150.33 577.00 140.00 Z"/>
</g>
<g fill="None" fill-opacity="0.0" stroke="#002253" stroke-opacity="0.45" stroke-width="0.3"><path d="
M 712.00 169.00 
C 712.53 159.99 712.70 149.10 712.00 140.00
C 711.81 149.61 711.63 159.39 712.00 169.00 Z"/>
</g>
<g fill="None" fill-opacity="0.0" stroke="#002253" stroke-opacity="0.98" stroke-width="0.3"><path d="
M 1037.00 140.00 
C 1035.32 148.85 1035.35 161.07 1037.00 170.00
C 1037.00 160.00 1037.00 150.00 1037.00 140.00 Z"/>
</g>
<g fill="None" fill-opacity="0.0" stroke="#002253" stroke-opacity="0.33" stroke-width="0.3"><path d="
M 575.00 167.00 
C 574.69 158.75 574.69 150.25 575.00 142.00
C 573.89 149.74 573.88 159.19 575.00 167.00 Z"/>
</g>
<g fill="None" fill-opacity="0.0" stroke="#003062" stroke-opacity="0.00" stroke-width="0.3"><path d="
M 113.00 150.00 
C 110.58 152.84 108.04 155.68 105.00 158.00
C 104.37 158.64 103.60 159.41 103.00 160.00
C 102.05 161.23 101.43 162.14 100.00 163.00
C 99.74 163.22 99.25 163.75 99.00 164.00
C 98.79 164.31 98.32 164.80 98.00 165.00
C 95.14 168.67 91.61 172.19 88.00 175.00
C 87.80 175.32 87.32 175.80 87.00 176.00
C 85.63 177.75 83.17 179.38 82.00 181.00
C 81.48 181.95 81.41 183.13 81.00 184.00
C 94.29 171.55 107.50 158.33 120.00 145.00
C 117.46 145.60 114.92 148.08 113.00 150.00 Z"/>
</g>
<g fill="None" fill-opacity="0.0" stroke="#00007D" stroke-opacity="0.01" stroke-width="0.3"><path d="
M 387.00 147.00 
C 374.32 145.73 359.00 149.58 348.00 145.00
C 350.00 150.69 360.90 147.43 367.00 148.00 C 373.10 148.57 381.55 148.39 387.00 147.00 Z"/>
</g>
<g fill="None" fill-opacity="0.0" stroke="#004041" stroke-opacity="0.00" stroke-width="0.3"><path d="
M 272.00 158.00 
C 269.56 154.69 266.30 151.54 263.00 149.00
C 264.25 152.70 268.32 156.69 272.00 158.00 Z"/>
</g>
<g fill="None" fill-opacity="0.0" stroke="#002253" stroke-opacity="0.41" stroke-width="0.3"><path d="
M 388.00 149.00 
C 383.31 151.01 373.18 149.00 368.00 149.00 C 362.82 149.00 352.69 151.01 348.00 149.00
C 352.17 151.80 362.64 150.01 368.00 150.00 C 373.36 149.99 383.78 151.83 388.00 149.00 Z"/>
</g>
<g fill="None" fill-opacity="0.0" stroke="#00007D" stroke-opacity="0.01" stroke-width="0.3"><path d="
M 851.00 154.00 
C 843.16 154.64 834.09 152.70 827.00 155.00
C 834.84 154.36 843.91 156.30 851.00 154.00 Z"/>
</g>
<g fill="None" fill-opacity="0.0" stroke="#002252" stroke-opacity="0.11" stroke-width="0.3"><path d="
M 852.00 159.00 
C 850.68 154.95 844.93 155.36 841.00 156.00 C 837.07 156.64 831.45 154.33 828.00 156.00
C 829.75 155.29 837.99 157.97 841.00 157.00 C 844.01 156.03 850.68 156.39 852.00 159.00 Z"/>
</g>
<g fill="None" fill-opacity="0.0" stroke="#000054" stroke-opacity="0.01" stroke-width="0.3"><path d="
M 825.00 157.00 
C 823.28 158.89 823.48 164.04 825.00 166.00
C 825.00 163.00 825.00 160.00 825.00 157.00 Z"/>
</g>
<g fill="None" fill-opacity="0.0" stroke="#007EED" stroke-opacity="0.02" stroke-width="0.3"><path d="
M 103.00 160.00 
C 103.60 159.41 104.37 158.64 105.00 158.00
C 104.08 158.70 103.74 159.05 103.00 160.00 Z"/>
</g>
<g fill="None" fill-opacity="0.0" stroke="#003062" stroke-opacity="0.01" stroke-width="0.3"><path d="
M 191.00 176.00 
C 186.81 169.32 179.69 162.23 173.00 158.00
C 178.45 164.29 184.67 170.49 191.00 176.00 Z"/>
</g>
<g fill="None" fill-opacity="0.0" stroke="#002252" stroke-opacity="0.97" stroke-width="0.3"><path d="
M 137.00 161.00 
C 132.09 164.60 128.58 171.19 124.25 175.25 C 119.92 179.30 113.66 183.12 110.25 188.25 C 106.84 193.37 98.57 196.81 96.00 202.00
C 97.00 211.57 109.63 219.29 116.75 227.25 C 123.87 235.21 132.75 243.85 141.00 250.00
C 147.67 243.52 151.66 237.37 159.25 231.25 C 166.84 225.13 168.75 218.74 177.75 212.75 C 186.76 206.76 182.79 198.74 174.75 193.25 C 166.71 187.75 163.43 179.75 156.25 174.75 C 149.06 169.75 144.94 157.79 137.00 161.00 Z"/>
</g>
<g fill="None" fill-opacity="0.0" stroke="#002252" stroke-opacity="0.01" stroke-width="0.3"><path d="
M 96.00 202.00 
C 98.57 196.81 106.84 193.37 110.25 188.25 C 113.66 183.12 119.92 179.30 124.25 175.25 C 128.58 171.19 132.09 164.60 137.00 161.00
C 130.95 163.44 121.12 174.73 115.75 180.75 C 110.39 186.78 97.25 195.38 96.00 202.00 Z"/>
</g>
<g fill="None" fill-opacity="0.0" stroke="#3BA5FD" stroke-opacity="0.03" stroke-width="0.3"><path d="
M 99.00 164.00 
C 99.25 163.75 99.74 163.22 100.00 163.00
C 99.68 163.19 99.21 163.69 99.00 164.00 Z"/>
</g>
<g fill="None" fill-opacity="0.0" stroke="#003062" stroke-opacity="0.00" stroke-width="0.3"><path d="
M 273.00 163.00 
C 262.00 171.51 250.54 182.98 242.00 194.00
C 252.62 184.22 263.16 173.66 273.00 163.00 Z"/>
</g>
<g fill="None" fill-opacity="0.0" stroke="#004041" stroke-opacity="0.00" stroke-width="0.3"><path d="
M 20.00 176.00 
C 17.78 171.31 12.68 166.27 8.00 164.00
C 11.44 168.30 15.68 172.48 20.00 176.00 Z"/>
</g>
<g fill="None" fill-opacity="0.0" stroke="#007EED" stroke-opacity="0.02" stroke-width="0.3"><path d="
M 88.00 175.00 
C 91.61 172.19 95.14 168.67 98.00 165.00
C 94.55 167.13 90.17 171.50 88.00 175.00 Z"/>
</g>
<g fill="None" fill-opacity="0.0" stroke="#000054" stroke-opacity="0.01" stroke-width="0.3"><path d="
M 542.00 165.00 
C 534.16 165.64 525.09 163.70 518.00 166.00
C 525.84 165.36 534.91 167.30 542.00 165.00 Z"/>
</g>
<g fill="None" fill-opacity="0.0" stroke="#000054" stroke-opacity="0.01" stroke-width="0.3"><path d="
M 653.00 165.00 
C 645.82 165.64 637.42 163.71 631.00 166.00
C 638.18 165.36 646.58 167.29 653.00 165.00 Z"/>
</g>
<g fill="None" fill-opacity="0.0" stroke="#002253" stroke-opacity="0.98" stroke-width="0.3"><path d="
M 539.00 176.00 
C 543.55 170.53 536.65 167.51 532.00 169.00 C 527.35 170.49 519.53 165.95 519.00 172.00
C 523.46 169.54 541.28 166.06 539.00 176.00 Z"/>
</g>
<g fill="None" fill-opacity="0.0" stroke="#007EED" stroke-opacity="0.02" stroke-width="0.3"><path d="
M 82.00 181.00 
C 83.17 179.38 85.63 177.75 87.00 176.00
C 85.11 177.17 83.11 178.98 82.00 181.00 Z"/>
</g>
<g fill="None" fill-opacity="0.0" stroke="#004041" stroke-opacity="0.00" stroke-width="0.3"><path d="
M 29.00 185.00 
C 28.06 181.63 24.34 178.00 21.00 177.00
C 23.10 179.98 26.04 182.79 29.00 185.00 Z"/>
</g>
<g fill="None" fill-opacity="0.0" stroke="#003062" stroke-opacity="0.01" stroke-width="0.3"><path d="
M 197.00 182.00 
C 196.94 179.61 194.33 177.14 192.00 177.00
C 193.09 179.00 195.07 180.74 197.00 182.00 Z"/>
</g>
<g fill="None" fill-opacity="0.0" stroke="#003062" stroke-opacity="0.00" stroke-width="0.3"><path d="
M 53.00 209.00 
C 46.82 200.33 37.69 191.21 29.00 185.00
C 36.45 193.29 44.67 201.49 53.00 209.00 Z"/>
</g>
<g fill="None" fill-opacity="0.0" stroke="#00007D" stroke-opacity="0.01" stroke-width="0.3"><path d="
M 893.00 185.00 
C 886.16 185.63 878.09 183.71 872.00 186.00
C 878.84 185.37 886.91 187.29 893.00 185.00 Z"/>
</g>
<g fill="None" fill-opacity="0.0" stroke="#00007D" stroke-opacity="0.01" stroke-width="0.3"><path d="
M 1117.00 186.00 
C 1125.00 186.00 1133.00 186.00 1141.00 186.00
C 1137.81 183.65 1120.25 183.59 1117.00 186.00 Z"/>
</g>
<g fill="None" fill-opacity="0.0" stroke="#00007D" stroke-opacity="0.01" stroke-width="0.3"><path d="
M 504.00 186.00 
C 495.82 186.64 486.42 184.70 479.00 187.00
C 487.18 186.36 496.58 188.30 504.00 186.00 Z"/>
</g>
<g fill="None" fill-opacity="0.0" stroke="#00007D" stroke-opacity="0.01" stroke-width="0.3"><path d="
M 612.00 186.00 
C 605.82 186.63 598.42 184.72 593.00 187.00
C 599.18 186.37 606.58 188.28 612.00 186.00 Z"/>
</g>
<g fill="None" fill-opacity="0.0" stroke="#00007D" stroke-opacity="0.01" stroke-width="0.3"><path d="
M 776.00 186.00 
C 769.49 186.63 761.75 184.72 756.00 187.00
C 762.51 186.37 770.25 188.28 776.00 186.00 Z"/>
</g>
<g fill="None" fill-opacity="0.0" stroke="#003062" stroke-opacity="0.02" stroke-width="0.3"><path d="
M 1018.00 186.00 
C 1010.49 186.64 1001.76 184.70 995.00 187.00
C 1002.51 186.36 1011.24 188.30 1018.00 186.00 Z"/>
</g>
<g fill="None" fill-opacity="0.0" stroke="#000000" stroke-opacity="0.00" stroke-width="0.3"><path d="
M 1142.00 186.00 
C 1142.00 186.00 1141.50 186.00 1141.00 186.00
C 1133.00 186.00 1125.00 186.00 1117.00 186.00
C 1117.00 186.00 1116.50 186.01 1116.00 186.00
C 1123.16 187.77 1134.78 187.96 1142.00 186.00 Z"/>
</g>
<g fill="None" fill-opacity="0.0" stroke="#003062" stroke-opacity="0.00" stroke-width="0.3"><path d="
M 241.00 195.00 
C 235.98 197.54 230.59 202.98 228.00 208.00
C 232.63 204.22 237.15 199.65 241.00 195.00 Z"/>
</g>
<g fill="None" fill-opacity="0.0" stroke="#002253" stroke-opacity="0.99" stroke-width="0.3"><path d="
M 800.00 200.00 
C 797.94 201.48 793.87 201.71 794.00 205.00
C 796.12 202.40 800.91 205.15 800.00 200.00 Z"/>
</g>
<g fill="None" fill-opacity="0.0" stroke="#00007D" stroke-opacity="0.01" stroke-width="0.3"><path d="
M 451.00 201.00 
C 450.18 200.18 451.74 201.74 451.00 201.00 Z"/>
</g>
<g fill="None" fill-opacity="0.0" stroke="#002252" stroke-opacity="0.37" stroke-width="0.3"><path d="
M 671.00 209.00 
C 677.14 210.52 685.65 209.00 692.00 209.00
C 686.85 205.19 676.26 209.81 671.00 209.00 Z"/>
</g>
<g fill="None" fill-opacity="0.0" stroke="#003062" stroke-opacity="0.02" stroke-width="0.3"><path d="
M 323.00 210.00 
C 314.82 210.64 305.42 208.70 298.00 211.00
C 306.18 210.36 315.58 212.30 323.00 210.00 Z"/>
</g>
<g fill="None" fill-opacity="0.0" stroke="#003062" stroke-opacity="0.02" stroke-width="0.3"><path d="
M 438.00 210.00 
C 429.82 210.64 420.42 208.70 413.00 211.00
C 421.18 210.36 430.58 212.30 438.00 210.00 Z"/>
</g>
<g fill="None" fill-opacity="0.0" stroke="#003062" stroke-opacity="0.02" stroke-width="0.3"><path d="
M 693.00 210.00 
C 685.16 210.64 676.09 208.70 669.00 211.00
C 676.84 210.36 685.91 212.30 693.00 210.00 Z"/>
</g>
<g fill="None" fill-opacity="0.0" stroke="#003062" stroke-opacity="0.02" stroke-width="0.3"><path d="
M 1098.00 210.00 
C 1090.49 210.64 1081.75 208.70 1075.00 211.00
C 1082.51 210.36 1091.24 212.30 1098.00 210.00 Z"/>
</g>
<g fill="None" fill-opacity="0.0" stroke="#00007D" stroke-opacity="0.01" stroke-width="0.3"><path d="
M 500.00 212.00 
C 494.16 212.62 487.09 210.73 482.00 213.00
C 487.84 212.38 494.91 214.27 500.00 212.00 Z"/>
</g>
<g fill="None" fill-opacity="0.0" stroke="#00007D" stroke-opacity="0.01" stroke-width="0.3"><path d="
M 611.00 212.00 
C 605.16 212.62 598.09 210.73 593.00 213.00
C 598.84 212.38 605.91 214.27 611.00 212.00 Z"/>
</g>
<g fill="None" fill-opacity="0.0" stroke="#00007D" stroke-opacity="0.01" stroke-width="0.3"><path d="
M 776.00 212.00 
C 769.49 212.63 761.75 210.72 756.00 213.00
C 762.51 212.37 770.25 214.28 776.00 212.00 Z"/>
</g>
<g fill="None" fill-opacity="0.0" stroke="#003062" stroke-opacity="0.02" stroke-width="0.3"><path d="
M 893.00 212.00 
C 886.16 212.63 878.09 210.71 872.00 213.00
C 878.84 212.37 886.91 214.29 893.00 212.00 Z"/>
</g>
<g fill="None" fill-opacity="0.0" stroke="#003062" stroke-opacity="0.02" stroke-width="0.3"><path d="
M 1017.00 212.00 
C 1009.15 212.64 1000.09 210.70 993.00 213.00
C 1000.84 212.36 1009.91 214.30 1017.00 212.00 Z"/>
</g>
<g fill="None" fill-opacity="0.0" stroke="#003062" stroke-opacity="0.02" stroke-width="0.3"><path d="
M 1140.00 212.00 
C 1134.49 212.62 1127.75 210.74 1123.00 213.00
C 1128.51 212.38 1135.25 214.26 1140.00 212.00 Z"/>
</g>
<g fill="#000000" fill-opacity="0.00" stroke="None">
<path d="
M 0.00 280.00 
L 1190.00 280.00
L 1190.00 0.00
L 0.00 0.00
L 0.00 280.00
M 104.00 65.00 
C 106.68 59.78 114.44 52.81 119.75 47.75 C 125.06 42.69 131.64 34.16 137.00 32.00
C 144.94 28.79 149.06 40.75 156.25 45.75 C 163.43 50.75 166.71 58.75 174.75 64.25 C 182.79 69.74 186.76 77.76 177.75 83.75 C 168.75 89.74 166.84 96.13 159.25 102.25 C 151.66 108.37 147.67 114.52 141.00 121.00
C 135.04 118.22 131.96 112.78 126.75 108.25 C 121.55 103.72 118.31 99.02 112.75 94.25 C 107.19 89.48 105.27 85.33 98.75 80.25 C 92.24 75.16 100.44 70.42 104.00 65.00
M 372.00 54.00 
C 368.25 56.22 362.51 54.41 358.00 55.00
C 361.75 52.78 367.49 54.59 372.00 54.00
M 938.00 54.00 
C 930.24 56.31 920.51 54.35 912.00 55.00
C 919.76 52.69 929.49 54.65 938.00 54.00
M 1100.00 54.00 
C 1092.91 56.30 1083.84 54.36 1076.00 55.00
C 1083.09 52.70 1092.16 54.64 1100.00 54.00
M 439.00 209.00 
C 427.19 209.78 410.08 211.73 408.07 198.93 C 406.06 186.12 400.59 183.20 398.00 171.00
C 378.00 171.00 358.00 171.00 338.00 171.00
C 335.46 182.86 329.99 187.00 327.68 199.68 C 325.36 212.35 308.43 209.17 297.00 209.00
C 304.58 189.05 316.01 159.65 325.78 134.78 C 335.54 109.91 346.14 82.14 356.00 56.00
C 375.75 49.96 385.63 65.78 389.93 81.07 C 394.22 96.37 401.83 109.41 406.78 124.22 C 411.72 139.04 417.68 151.74 422.71 165.30 C 427.75 178.87 434.14 195.11 439.00 209.00
M 687.00 56.00 
C 708.08 61.22 695.68 96.43 675.33 87.67 C 654.98 78.91 666.21 50.85 687.00 56.00
M 939.00 58.00 
C 942.38 64.98 937.54 76.11 939.00 84.00 C 940.46 91.89 938.49 101.71 939.00 110.00 C 939.51 118.29 939.11 127.56 939.00 136.00 C 938.89 144.44 939.79 153.57 939.00 162.00
C 938.27 169.77 935.78 177.42 932.70 184.69 C 929.61 191.97 925.13 197.34 918.75 202.75 C 912.37 208.16 903.71 209.25 895.33 210.33 C 886.95 211.41 873.20 211.08 865.00 210.00 C 856.80 208.92 849.30 205.32 843.30 200.70 C 837.31 196.07 832.29 187.85 830.08 181.92 C 827.86 176.00 821.80 159.00 828.00 156.00
C 831.45 154.33 837.07 156.64 841.00 156.00 C 844.93 155.36 850.68 154.95 852.00 159.00
C 853.64 164.02 851.64 169.58 855.00 175.00
C 858.61 171.53 856.21 176.70 857.00 179.00
C 862.27 183.38 868.27 187.88 878.00 187.00 C 887.73 186.12 898.22 188.59 904.30 180.30 C 910.37 172.00 912.01 165.53 912.00 155.00 C 911.99 144.47 912.00 132.78 912.00 122.00 C 912.00 111.22 912.00 99.89 912.00 89.00 C 912.00 78.11 912.00 66.91 912.00 56.00
C 920.53 57.28 932.89 53.40 939.00 58.00
M 1100.00 56.00 
C 1100.00 73.33 1100.00 90.67 1100.00 108.00
C 1109.54 96.89 1123.53 98.35 1137.00 98.00 C 1150.47 97.65 1163.03 101.45 1171.30 111.70 C 1179.57 121.95 1181.54 134.38 1181.00 148.00 C 1180.46 161.63 1182.65 178.19 1175.69 189.69 C 1168.74 201.20 1160.78 207.03 1147.98 209.98 C 1135.18 212.92 1118.92 209.72 1108.00 208.00
C 1107.84 203.39 1101.84 201.33 1099.00 198.00
C 1099.00 201.67 1099.00 205.33 1099.00 209.00
C 1090.67 209.00 1082.33 209.00 1074.00 209.00
C 1074.00 158.00 1074.00 107.00 1074.00 56.00
C 1082.67 56.00 1091.33 56.00 1100.00 56.00
M 1073.00 58.00 
C 1073.00 107.33 1073.00 156.67 1073.00 206.00
C 1071.34 157.73 1071.33 106.19 1073.00 58.00
M 113.00 150.00 
C 114.92 148.08 117.46 145.60 120.00 145.00
C 107.50 158.33 94.29 171.55 81.00 184.00
C 73.08 191.92 65.60 200.86 57.00 208.00
C 39.80 196.87 24.83 176.07 8.00 162.00
C 33.59 132.58 64.28 105.88 91.00 77.00
C 106.56 93.02 125.64 108.20 138.00 126.00
C 128.34 132.49 120.86 141.97 113.00 150.00
M 201.00 87.00 
C 196.98 85.37 192.57 81.03 191.00 77.00
C 194.64 79.87 198.23 83.36 201.00 87.00
M 272.00 160.00 
C 258.75 177.71 237.54 193.01 225.00 210.00
C 200.33 183.89 171.45 152.46 142.00 125.00
C 147.45 116.88 155.51 109.93 162.75 102.75 C 169.99 95.58 176.62 88.20 184.25 81.25 C 191.88 74.30 199.79 89.48 206.75 95.25 C 213.72 101.02 221.13 110.24 228.25 116.75 C 235.37 123.27 242.51 131.42 249.75 138.25 C 256.99 145.08 264.38 153.61 272.00 160.00
M 220.00 106.00 
C 213.98 102.43 207.53 96.01 204.00 90.00
C 209.66 94.85 215.22 100.37 220.00 106.00
M 507.00 96.00 
C 497.24 98.32 485.51 96.35 475.00 97.00
C 484.76 94.68 496.49 96.65 507.00 96.00
M 618.00 96.00 
C 608.24 98.32 596.51 96.35 586.00 97.00
C 595.76 94.68 607.49 96.65 618.00 96.00
M 784.00 96.00 
C 773.24 98.32 760.51 96.34 749.00 97.00
C 759.76 94.68 772.49 96.66 784.00 96.00
M 1026.00 96.00 
C 1013.57 98.32 999.18 96.34 986.00 97.00
C 998.43 94.68 1012.82 96.66 1026.00 96.00
M 1148.00 96.00 
C 1138.58 98.31 1127.18 96.35 1117.00 97.00
C 1126.43 94.69 1137.82 96.65 1148.00 96.00
M 509.00 123.00 
C 510.31 124.23 511.87 126.21 512.00 128.00
C 510.85 126.49 504.14 123.23 508.00 123.00
C 500.37 116.46 484.00 118.60 473.98 121.98 C 463.95 125.35 463.63 142.35 464.00 152.00 C 464.37 161.65 462.37 178.31 471.25 184.75 C 480.12 191.19 492.71 187.68 502.74 188.60 C 512.78 189.52 517.05 174.20 517.00 167.00
C 525.67 167.00 534.33 167.00 543.00 167.00
C 543.36 181.68 535.38 193.17 528.00 204.00
C 522.09 203.11 514.40 209.64 506.00 210.00 C 497.60 210.36 484.08 211.97 475.99 210.01 C 467.90 208.05 461.34 208.16 454.92 203.08 C 448.50 198.00 443.41 192.41 440.23 184.77 C 437.05 177.13 438.11 166.17 438.00 157.00 C 437.89 147.83 437.14 135.28 439.93 126.93 C 442.71 118.58 445.98 112.45 453.23 107.23 C 460.48 102.01 465.11 100.36 472.75 98.74 C 480.39 97.12 495.47 98.24 504.00 98.00 C 512.53 97.76 519.47 103.88 527.00 104.00
C 533.54 113.97 542.45 123.79 542.00 137.00
C 533.83 139.27 524.59 137.38 516.00 138.00
C 516.11 132.37 513.95 126.14 509.00 123.00
M 575.00 142.00 
C 574.69 150.25 574.69 158.75 575.00 167.00
C 575.65 183.95 585.72 187.91 601.00 188.00 C 616.28 188.09 629.52 185.19 628.00 167.00
C 636.67 167.00 645.33 167.00 654.00 167.00
C 655.63 188.89 637.31 208.58 617.00 210.00 C 596.69 211.42 565.83 213.36 555.23 191.77 C 544.63 170.18 545.92 144.35 552.80 121.75 C 559.68 99.15 590.05 97.16 611.00 98.00 C 631.95 98.84 654.91 113.56 653.00 138.00
C 644.33 138.00 635.67 138.00 627.00 138.00
C 628.11 110.16 571.13 113.17 575.00 142.00
M 821.00 139.00 
C 821.39 149.23 821.39 159.77 821.00 170.00
C 820.51 182.89 813.23 192.64 808.00 202.00
C 798.20 206.44 784.93 211.16 771.00 211.00 C 757.07 210.84 740.72 211.05 729.25 202.75 C 717.79 194.44 712.18 182.88 712.00 169.00
C 711.63 159.39 711.81 149.61 712.00 140.00
C 712.31 124.46 721.07 106.55 737.23 101.23 C 753.39 95.91 778.85 96.06 795.02 100.98 C 811.20 105.89 820.41 123.61 821.00 139.00
M 1056.00 193.00 
C 1052.03 192.90 1050.74 196.06 1048.75 198.75 C 1046.76 201.44 1039.27 203.37 1043.00 206.00
C 1038.53 205.51 1035.71 206.27 1035.00 210.00
C 1026.02 208.44 1014.07 211.02 1003.00 211.00 C 991.93 210.98 979.94 209.31 970.75 204.25 C 961.57 199.18 958.22 190.35 952.00 186.00
C 953.31 178.12 950.01 166.99 951.00 157.00 C 951.99 147.01 949.36 134.12 953.32 125.32 C 957.28 116.53 961.00 111.06 968.70 105.70 C 976.39 100.33 985.26 97.32 995.00 98.00 C 1004.74 98.68 1019.09 96.80 1028.02 98.98 C 1036.95 101.15 1044.27 105.06 1050.25 111.75 C 1056.23 118.45 1058.09 124.53 1060.00 134.00 C 1061.90 143.47 1060.61 157.11 1061.00 167.00 C 1061.39 176.89 1055.90 185.51 1056.00 193.00
M 670.00 100.00 
C 676.13 98.47 684.65 100.00 691.00 100.00
C 691.50 100.00 692.65 99.77 693.00 100.00
C 697.17 102.71 692.88 115.56 694.00 121.00 C 695.12 126.44 693.70 136.71 694.00 143.00 C 694.30 149.29 694.33 158.56 694.00 165.00 C 693.67 171.44 695.18 181.00 694.00 187.00 C 692.82 193.00 697.14 205.00 693.00 209.00
C 692.74 209.25 692.00 209.00 692.00 209.00
C 685.65 209.00 677.14 210.52 671.00 209.00
C 668.00 208.26 668.76 209.06 668.00 206.00
C 665.98 197.83 668.76 187.37 668.00 179.00 C 667.24 170.63 668.09 159.04 668.00 151.00 C 667.91 142.96 667.42 130.89 668.00 124.00 C 668.58 117.11 665.51 101.12 670.00 100.00
M 667.00 100.00 
C 667.00 136.00 667.00 172.00 667.00 208.00
C 665.34 173.07 665.33 134.86 667.00 100.00
M 696.00 100.00 
C 696.00 136.00 696.00 172.00 696.00 208.00
C 694.33 173.07 694.33 134.86 696.00 100.00
M 245.00 131.00 
C 236.65 125.12 227.85 116.34 222.00 108.00
C 230.00 115.17 237.88 123.04 245.00 131.00
M 534.00 110.00 
C 534.74 110.74 533.18 109.18 534.00 110.00
M 172.00 157.00 
C 161.67 147.49 151.45 137.29 142.00 127.00
C 152.69 135.20 163.82 146.33 172.00 157.00
M 258.00 144.00 
C 253.32 141.73 248.22 136.69 246.00 132.00
C 250.32 135.52 254.56 139.70 258.00 144.00
M 1183.00 133.00 
C 1183.00 147.00 1183.00 161.00 1183.00 175.00
C 1181.34 162.07 1181.33 145.86 1183.00 133.00
M 823.00 134.00 
C 823.00 147.67 823.00 161.33 823.00 175.00
C 821.34 162.41 821.33 146.52 823.00 134.00
M 950.00 135.00 
C 950.00 148.00 950.00 161.00 950.00 174.00
C 948.34 162.07 948.33 146.86 950.00 135.00
M 548.00 137.00 
C 548.00 148.67 548.00 160.33 548.00 172.00
C 546.34 161.41 546.33 147.52 548.00 137.00
M 1063.00 137.00 
C 1063.00 148.33 1063.00 159.67 1063.00 171.00
C 1061.34 160.74 1061.32 147.19 1063.00 137.00
M 711.00 138.00 
C 711.00 149.00 711.00 160.00 711.00 171.00
C 709.35 161.07 709.32 147.86 711.00 138.00
M 540.00 139.00 
C 533.24 141.30 524.51 139.36 517.00 140.00
C 523.76 137.70 532.49 139.64 540.00 139.00
M 651.00 139.00 
C 644.24 141.30 635.51 139.36 628.00 140.00
C 634.76 137.70 643.49 139.64 651.00 139.00
M 466.00 140.00 
C 466.00 149.67 466.00 159.33 466.00 169.00
C 464.35 160.41 464.32 148.52 466.00 140.00
M 577.00 140.00 
C 577.00 150.33 577.00 160.67 577.00 171.00
C 575.35 161.74 575.32 149.19 577.00 140.00
M 272.00 158.00 
C 268.32 156.69 264.25 152.70 263.00 149.00
C 266.30 151.54 269.56 154.69 272.00 158.00
M 851.00 154.00 
C 843.91 156.30 834.84 154.36 827.00 155.00
C 834.09 152.70 843.16 154.64 851.00 154.00
M 825.00 157.00 
C 825.00 160.00 825.00 163.00 825.00 166.00
C 823.48 164.04 823.28 158.89 825.00 157.00
M 191.00 176.00 
C 184.67 170.49 178.45 164.29 173.00 158.00
C 179.69 162.23 186.81 169.32 191.00 176.00
M 96.00 202.00 
C 97.25 195.38 110.39 186.78 115.75 180.75 C 121.12 174.73 130.95 163.44 137.00 161.00
C 144.94 157.79 149.06 169.75 156.25 174.75 C 163.43 179.75 166.71 187.75 174.75 193.25 C 182.79 198.74 186.76 206.76 177.75 212.75 C 168.75 218.74 166.84 225.13 159.25 231.25 C 151.66 237.37 147.67 243.52 141.00 250.00
C 132.75 243.85 123.87 235.21 116.75 227.25 C 109.63 219.29 97.00 211.57 96.00 202.00
M 273.00 163.00 
C 263.16 173.66 252.62 184.22 242.00 194.00
C 250.54 182.98 262.00 171.51 273.00 163.00
M 20.00 176.00 
C 15.68 172.48 11.44 168.30 8.00 164.00
C 12.68 166.27 17.78 171.31 20.00 176.00
M 542.00 165.00 
C 534.91 167.30 525.84 165.36 518.00 166.00
C 525.09 163.70 534.16 165.64 542.00 165.00
M 653.00 165.00 
C 646.58 167.29 638.18 165.36 631.00 166.00
C 637.42 163.71 645.82 165.64 653.00 165.00
M 29.00 185.00 
C 26.04 182.79 23.10 179.98 21.00 177.00
C 24.34 178.00 28.06 181.63 29.00 185.00
M 197.00 182.00 
C 195.07 180.74 193.09 179.00 192.00 177.00
C 194.33 177.14 196.94 179.61 197.00 182.00
M 53.00 209.00 
C 44.67 201.49 36.45 193.29 29.00 185.00
C 37.69 191.21 46.82 200.33 53.00 209.00
M 893.00 185.00 
C 886.91 187.29 878.84 185.37 872.00 186.00
C 878.09 183.71 886.16 185.63 893.00 185.00
M 504.00 186.00 
C 496.58 188.30 487.18 186.36 479.00 187.00
C 486.42 184.70 495.82 186.64 504.00 186.00
M 612.00 186.00 
C 606.58 188.28 599.18 186.37 593.00 187.00
C 598.42 184.72 605.82 186.63 612.00 186.00
M 241.00 195.00 
C 237.15 199.65 232.63 204.22 228.00 208.00
C 230.59 202.98 235.98 197.54 241.00 195.00
M 451.00 201.00 
C 451.74 201.74 450.18 200.18 451.00 201.00
M 323.00 210.00 
C 315.58 212.30 306.18 210.36 298.00 211.00
C 305.42 208.70 314.82 210.64 323.00 210.00
M 438.00 210.00 
C 430.58 212.30 421.18 210.36 413.00 211.00
C 420.42 208.70 429.82 210.64 438.00 210.00
M 693.00 210.00 
C 685.91 212.30 676.84 210.36 669.00 211.00
C 676.09 208.70 685.16 210.64 693.00 210.00
M 1098.00 210.00 
C 1091.24 212.30 1082.51 210.36 1075.00 211.00
C 1081.75 208.70 1090.49 210.64 1098.00 210.00
M 500.00 212.00 
C 494.91 214.27 487.84 212.38 482.00 213.00
C 487.09 210.73 494.16 212.62 500.00 212.00
M 611.00 212.00 
C 605.91 214.27 598.84 212.38 593.00 213.00
C 598.09 210.73 605.16 212.62 611.00 212.00
M 776.00 212.00 
C 770.25 214.28 762.51 212.37 756.00 213.00
C 761.75 210.72 769.49 212.63 776.00 212.00
M 893.00 212.00 
C 886.91 214.29 878.84 212.37 872.00 213.00
C 878.09 210.71 886.16 212.63 893.00 212.00
M 1017.00 212.00 
C 1009.91 214.30 1000.84 212.36 993.00 213.00
C 1000.09 210.70 1009.15 212.64 1017.00 212.00
M 1140.00 212.00 
C 1135.25 214.26 1128.51 212.38 1123.00 213.00
C 1127.75 210.74 1134.49 212.62 1140.00 212.00 Z"/>
</g>
<g fill="#002252" fill-opacity="0.97" stroke="None">
<path d="
M 137.00 32.00 
C 131.13 36.31 126.13 43.61 120.75 48.75 C 115.37 53.89 108.67 59.42 104.00 65.00
C 100.44 70.42 92.24 75.16 98.75 80.25 C 105.27 85.33 107.19 89.48 112.75 94.25 C 118.31 99.02 121.55 103.72 126.75 108.25 C 131.96 112.78 135.04 118.22 141.00 121.00
C 147.67 114.52 151.66 108.37 159.25 102.25 C 166.84 96.13 168.75 89.74 177.75 83.75 C 186.76 77.76 182.79 69.74 174.75 64.25 C 166.71 58.75 163.43 50.75 156.25 45.75 C 149.06 40.75 144.94 28.79 137.00 32.00 Z"/>
</g>
<g fill="#002252" fill-opacity="0.00" stroke="None">
<path d="
M 104.00 65.00 
C 108.67 59.42 115.37 53.89 120.75 48.75 C 126.13 43.61 131.13 36.31 137.00 32.00
C 131.64 34.16 125.06 42.69 119.75 47.75 C 114.44 52.81 106.68 59.78 104.00 65.00 Z"/>
</g>
<g fill="#003062" fill-opacity="0.02" stroke="None">
<path d="
M 372.00 54.00 
C 367.49 54.59 361.75 52.78 358.00 55.00
C 362.51 54.41 368.25 56.22 372.00 54.00 Z"/>
</g>
<g fill="#003062" fill-opacity="0.02" stroke="None">
<path d="
M 938.00 54.00 
C 929.49 54.65 919.76 52.69 912.00 55.00
C 920.51 54.35 930.24 56.31 938.00 54.00 Z"/>
</g>
<g fill="#003062" fill-opacity="0.02" stroke="None">
<path d="
M 1100.00 54.00 
C 1092.16 54.64 1083.09 52.70 1076.00 55.00
C 1083.84 54.36 1092.91 56.30 1100.00 54.00 Z"/>
</g>
<g fill="#002252" fill-opacity="0.96" stroke="None">
<path d="
M 439.00 209.00 
C 434.14 195.11 427.75 178.87 422.71 165.30 C 417.68 151.74 411.72 139.04 406.78 124.22 C 401.83 109.41 394.22 96.37 389.93 81.07 C 385.63 65.78 375.75 49.96 356.00 56.00
C 346.14 82.14 335.54 109.91 325.78 134.78 C 316.01 159.65 304.58 189.05 297.00 209.00
C 308.43 209.17 325.36 212.35 327.68 199.68 C 329.99 187.00 335.46 182.86 338.00 171.00
C 358.00 171.00 378.00 171.00 398.00 171.00
C 400.59 183.20 406.06 186.12 408.07 198.93 C 410.08 211.73 427.19 209.78 439.00 209.00
M 388.00 149.00 
C 383.78 151.83 373.36 149.99 368.00 150.00 C 362.64 150.01 352.17 151.80 348.00 149.00
C 343.99 146.31 351.63 135.64 352.93 129.93 C 354.22 124.21 358.59 115.62 360.32 109.32 C 362.05 103.03 366.43 95.56 368.00 89.00
C 370.75 95.17 373.51 102.67 375.78 109.22 C 378.04 115.78 381.37 123.27 383.31 129.69 C 385.25 136.12 390.92 144.62 388.00 149.00 Z"/>
</g>
<g fill="#002252" fill-opacity="0.95" stroke="None">
<path d="
M 687.00 56.00 
C 666.21 50.85 654.98 78.91 675.33 87.67 C 695.68 96.43 708.08 61.22 687.00 56.00 Z"/>
</g>
<g fill="#002252" fill-opacity="0.98" stroke="None">
<path d="
M 852.00 159.00 
C 850.68 156.39 844.01 156.03 841.00 157.00 C 837.99 157.97 829.75 155.29 828.00 156.00
C 821.80 159.00 827.86 176.00 830.08 181.92 C 832.29 187.85 837.31 196.07 843.30 200.70 C 849.30 205.32 856.80 208.92 865.00 210.00 C 873.20 211.08 886.95 211.41 895.33 210.33 C 903.71 209.25 912.37 208.16 918.75 202.75 C 925.13 197.34 929.61 191.97 932.70 184.69 C 935.78 177.42 938.27 169.77 939.00 162.00
C 938.99 157.23 937.45 151.64 938.00 146.00 C 938.55 140.36 937.84 133.75 938.00 128.00 C 938.16 122.25 938.13 115.68 938.00 110.00 C 937.87 104.32 938.56 98.49 938.00 93.00 C 937.44 87.51 939.26 80.11 938.00 75.00 C 936.74 69.89 940.40 61.45 939.00 58.00
C 932.89 53.40 920.53 57.28 912.00 56.00
C 912.00 66.91 912.00 78.11 912.00 89.00 C 912.00 99.89 912.00 111.22 912.00 122.00 C 912.00 132.78 911.99 144.47 912.00 155.00 C 912.01 165.53 910.37 172.00 904.30 180.30 C 898.22 188.59 887.73 186.12 878.00 187.00 C 868.27 187.88 862.27 183.38 857.00 179.00
C 856.21 176.70 858.61 171.53 855.00 175.00
C 851.64 169.58 853.64 164.02 852.00 159.00 Z"/>
</g>
<g fill="#002252" fill-opacity="0.97" stroke="None">
<path d="
M 1100.00 56.00 
C 1091.33 56.00 1082.67 56.00 1074.00 56.00
C 1074.00 107.00 1074.00 158.00 1074.00 209.00
C 1082.33 209.00 1090.67 209.00 1099.00 209.00
C 1099.00 205.33 1099.00 201.67 1099.00 198.00
C 1101.84 201.33 1107.84 203.39 1108.00 208.00
C 1118.92 209.72 1135.18 212.92 1147.98 209.98 C 1160.78 207.03 1168.74 201.20 1175.69 189.69 C 1182.65 178.19 1180.46 161.63 1181.00 148.00 C 1181.54 134.38 1179.57 121.95 1171.30 111.70 C 1163.03 101.45 1150.47 97.65 1137.00 98.00 C 1123.53 98.35 1109.54 96.89 1100.00 108.00
C 1100.00 90.67 1100.00 73.33 1100.00 56.00
M 1147.00 100.00 
C 1138.91 102.31 1128.84 100.35 1120.00 101.00
C 1128.09 98.69 1138.16 100.65 1147.00 100.00
M 1141.00 118.00 
C 1134.91 120.29 1126.84 118.37 1120.00 119.00
C 1126.09 116.71 1134.16 118.63 1141.00 118.00
M 1138.00 121.00 
C 1151.95 123.89 1156.42 137.05 1155.00 150.00 C 1153.58 162.95 1158.49 184.77 1142.00 186.00
C 1134.78 187.96 1123.16 187.77 1116.00 186.00
C 1099.23 185.66 1100.48 163.81 1100.00 151.00 C 1099.52 138.19 1106.51 122.05 1122.00 121.00
C 1127.13 120.08 1132.92 119.95 1138.00 121.00 Z"/>
</g>
<g fill="#003062" fill-opacity="0.02" stroke="None">
<path d="
M 939.00 162.00 
C 939.79 153.57 938.89 144.44 939.00 136.00 C 939.11 127.56 939.51 118.29 939.00 110.00 C 938.49 101.71 940.46 91.89 939.00 84.00 C 937.54 76.11 942.38 64.98 939.00 58.00
C 940.40 61.45 936.74 69.89 938.00 75.00 C 939.26 80.11 937.44 87.51 938.00 93.00 C 938.56 98.49 937.87 104.32 938.00 110.00 C 938.13 115.68 938.16 122.25 938.00 128.00 C 937.84 133.75 938.55 140.36 938.00 146.00 C 937.45 151.64 938.99 157.23 939.00 162.00 Z"/>
</g>
<g fill="#003062" fill-opacity="0.02" stroke="None">
<path d="
M 1073.00 58.00 
C 1071.33 106.19 1071.34 157.73 1073.00 206.00
C 1073.00 156.67 1073.00 107.33 1073.00 58.00 Z"/>
</g>
<g fill="#007EED" fill-opacity="0.98" stroke="None">
<path d="
M 81.00 184.00 
C 81.41 183.13 81.48 181.95 82.00 181.00
C 83.11 178.98 85.11 177.17 87.00 176.00
C 87.32 175.80 87.80 175.32 88.00 175.00
C 90.17 171.50 94.55 167.13 98.00 165.00
C 98.32 164.80 98.79 164.31 99.00 164.00
C 99.21 163.69 99.68 163.19 100.00 163.00
C 101.43 162.14 102.05 161.23 103.00 160.00
C 103.74 159.05 104.08 158.70 105.00 158.00
C 108.04 155.68 110.58 152.84 113.00 150.00
C 120.86 141.97 128.34 132.49 138.00 126.00
C 125.64 108.20 106.56 93.02 91.00 77.00
C 64.28 105.88 33.59 132.58 8.00 162.00
C 24.83 176.07 39.80 196.87 57.00 208.00
C 65.60 200.86 73.08 191.92 81.00 184.00 Z"/>
</g>
<g fill="#004041" fill-opacity="0.00" stroke="None">
<path d="
M 201.00 87.00 
C 198.23 83.36 194.64 79.87 191.00 77.00
C 192.57 81.03 196.98 85.37 201.00 87.00 Z"/>
</g>
<g fill="#007EED" fill-opacity="0.98" stroke="None">
<path d="
M 272.00 160.00 
C 264.38 153.61 256.99 145.08 249.75 138.25 C 242.51 131.42 235.37 123.27 228.25 116.75 C 221.13 110.24 213.72 101.02 206.75 95.25 C 199.79 89.48 191.88 74.30 184.25 81.25 C 176.62 88.20 169.99 95.58 162.75 102.75 C 155.51 109.93 147.45 116.88 142.00 125.00
C 171.45 152.46 200.33 183.89 225.00 210.00
C 237.54 193.01 258.75 177.71 272.00 160.00 Z"/>
</g>
<g fill="#000000" fill-opacity="0.00" stroke="None">
<path d="
M 348.00 149.00 
C 352.69 151.01 362.82 149.00 368.00 149.00 C 373.18 149.00 383.31 151.01 388.00 149.00
C 390.92 144.62 385.25 136.12 383.31 129.69 C 381.37 123.27 378.04 115.78 375.78 109.22 C 373.51 102.67 370.75 95.17 368.00 89.00
C 366.43 95.56 362.05 103.03 360.32 109.32 C 358.59 115.62 354.22 124.21 352.93 129.93 C 351.63 135.64 343.99 146.31 348.00 149.00
M 387.00 147.00 
C 381.55 148.39 373.10 148.57 367.00 148.00 C 360.90 147.43 350.00 150.69 348.00 145.00
C 359.00 149.58 374.32 145.73 387.00 147.00 Z"/>
</g>
<g fill="#004041" fill-opacity="0.00" stroke="None">
<path d="
M 220.00 106.00 
C 215.22 100.37 209.66 94.85 204.00 90.00
C 207.53 96.01 213.98 102.43 220.00 106.00 Z"/>
</g>
<g fill="#00007D" fill-opacity="0.01" stroke="None">
<path d="
M 507.00 96.00 
C 496.49 96.65 484.76 94.68 475.00 97.00
C 485.51 96.35 497.24 98.32 507.00 96.00 Z"/>
</g>
<g fill="#00007D" fill-opacity="0.01" stroke="None">
<path d="
M 618.00 96.00 
C 607.49 96.65 595.76 94.68 586.00 97.00
C 596.51 96.35 608.24 98.32 618.00 96.00 Z"/>
</g>
<g fill="#00007D" fill-opacity="0.01" stroke="None">
<path d="
M 784.00 96.00 
C 772.49 96.66 759.76 94.68 749.00 97.00
C 760.51 96.34 773.24 98.32 784.00 96.00 Z"/>
</g>
<g fill="#00007D" fill-opacity="0.01" stroke="None">
<path d="
M 1026.00 96.00 
C 1012.82 96.66 998.43 94.68 986.00 97.00
C 999.18 96.34 1013.57 98.32 1026.00 96.00 Z"/>
</g>
<g fill="#00007D" fill-opacity="0.01" stroke="None">
<path d="
M 1148.00 96.00 
C 1137.82 96.65 1126.43 94.69 1117.00 97.00
C 1127.18 96.35 1138.58 98.31 1148.00 96.00 Z"/>
</g>
<g fill="#002252" fill-opacity="0.96" stroke="None">
<path d="
M 508.00 123.00 
C 508.29 123.25 509.00 123.00 509.00 123.00
C 513.95 126.14 516.11 132.37 516.00 138.00
C 524.59 137.38 533.83 139.27 542.00 137.00
C 542.45 123.79 533.54 113.97 527.00 104.00
C 519.47 103.88 512.53 97.76 504.00 98.00 C 495.47 98.24 480.39 97.12 472.75 98.74 C 465.11 100.36 460.48 102.01 453.23 107.23 C 445.98 112.45 442.71 118.58 439.93 126.93 C 437.14 135.28 437.89 147.83 438.00 157.00 C 438.11 166.17 437.05 177.13 440.23 184.77 C 443.41 192.41 448.50 198.00 454.92 203.08 C 461.34 208.16 467.90 208.05 475.99 210.01 C 484.08 211.97 497.60 210.36 506.00 210.00 C 514.40 209.64 522.09 203.11 528.00 204.00
C 535.38 193.17 543.36 181.68 543.00 167.00
C 534.33 167.00 525.67 167.00 517.00 167.00
C 517.05 174.20 512.78 189.52 502.74 188.60 C 492.71 187.68 480.12 191.19 471.25 184.75 C 462.37 178.31 464.37 161.65 464.00 152.00 C 463.63 142.35 463.95 125.35 473.98 121.98 C 484.00 118.60 500.37 116.46 508.00 123.00
M 539.00 176.00 
C 541.28 166.06 523.46 169.54 519.00 172.00
C 519.53 165.95 527.35 170.49 532.00 169.00 C 536.65 167.51 543.55 170.53 539.00 176.00 Z"/>
</g>
<g fill="#002252" fill-opacity="0.96" stroke="None">
<path d="
M 575.00 167.00 
C 573.88 159.19 573.89 149.74 575.00 142.00
C 571.13 113.17 628.11 110.16 627.00 138.00
C 635.67 138.00 644.33 138.00 653.00 138.00
C 654.91 113.56 631.95 98.84 611.00 98.00 C 590.05 97.16 559.68 99.15 552.80 121.75 C 545.92 144.35 544.63 170.18 555.23 191.77 C 565.83 213.36 596.69 211.42 617.00 210.00 C 637.31 208.58 655.63 188.89 654.00 167.00
C 645.33 167.00 636.67 167.00 628.00 167.00
C 629.52 185.19 616.28 188.09 601.00 188.00 C 585.72 187.91 575.65 183.95 575.00 167.00 Z"/>
</g>
<g fill="#002252" fill-opacity="0.96" stroke="None">
<path d="
M 712.00 140.00 
C 712.70 149.10 712.53 159.99 712.00 169.00
C 712.18 182.88 717.79 194.44 729.25 202.75 C 740.72 211.05 757.07 210.84 771.00 211.00 C 784.93 211.16 798.20 206.44 808.00 202.00
C 813.23 192.64 820.51 182.89 821.00 170.00
C 820.43 160.29 820.43 148.64 821.00 139.00
C 820.41 123.61 811.20 105.89 795.02 100.98 C 778.85 96.06 753.39 95.91 737.23 101.23 C 721.07 106.55 712.31 124.46 712.00 140.00
M 744.00 185.00 
C 739.93 178.19 737.01 170.32 738.00 162.00 C 738.99 153.68 736.54 141.35 738.98 133.98 C 741.41 126.61 746.49 120.86 754.22 120.22 C 761.96 119.58 774.78 118.79 782.01 120.99 C 789.23 123.20 794.18 129.29 794.98 137.02 C 795.77 144.76 794.66 157.73 795.00 166.00 C 795.34 174.27 792.80 180.81 785.75 185.75 C 778.70 190.70 767.26 185.57 759.00 188.00 C 750.74 190.43 743.96 178.50 744.00 185.00
M 800.00 200.00 
C 800.91 205.15 796.12 202.40 794.00 205.00
C 793.87 201.71 797.94 201.48 800.00 200.00 Z"/>
</g>
<g fill="#002252" fill-opacity="0.96" stroke="None">
<path d="
M 1056.00 193.00 
C 1055.90 185.51 1061.39 176.89 1061.00 167.00 C 1060.61 157.11 1061.90 143.47 1060.00 134.00 C 1058.09 124.53 1056.23 118.45 1050.25 111.75 C 1044.27 105.06 1036.95 101.15 1028.02 98.98 C 1019.09 96.80 1004.74 98.68 995.00 98.00 C 985.26 97.32 976.39 100.33 968.70 105.70 C 961.00 111.06 957.28 116.53 953.32 125.32 C 949.36 134.12 951.99 147.01 951.00 157.00 C 950.01 166.99 953.31 178.12 952.00 186.00
C 958.22 190.35 961.57 199.18 970.75 204.25 C 979.94 209.31 991.93 210.98 1003.00 211.00 C 1014.07 211.02 1026.02 208.44 1035.00 210.00
C 1035.71 206.27 1038.53 205.51 1043.00 206.00
C 1039.27 203.37 1046.76 201.44 1048.75 198.75 C 1050.74 196.06 1052.03 192.90 1056.00 193.00
M 980.00 178.00 
C 979.39 176.48 979.18 175.70 979.00 174.00
C 975.97 161.22 974.44 131.56 986.25 123.25 C 998.06 114.94 1027.68 117.85 1032.31 131.70 C 1036.93 145.54 1037.25 174.08 1026.75 183.75 C 1016.26 193.42 985.23 191.02 980.00 178.00
M 976.00 136.00 
C 976.00 148.33 976.00 160.67 976.00 173.00
C 974.34 161.74 974.33 147.19 976.00 136.00
M 1037.00 140.00 
C 1037.00 150.00 1037.00 160.00 1037.00 170.00
C 1035.35 161.07 1035.32 148.85 1037.00 140.00 Z"/>
</g>
<g fill="#002252" fill-opacity="0.18" stroke="None">
<path d="
M 668.00 206.00 
C 666.41 195.69 670.32 182.42 669.00 171.00 C 667.68 159.58 669.49 146.55 669.00 135.00 C 668.51 123.45 668.53 110.71 670.00 100.00
C 665.51 101.12 668.58 117.11 668.00 124.00 C 667.42 130.89 667.91 142.96 668.00 151.00 C 668.09 159.04 667.24 170.63 668.00 179.00 C 668.76 187.37 665.98 197.83 668.00 206.00 Z"/>
</g>
<g fill="#00007D" fill-opacity="0.01" stroke="None">
<path d="
M 667.00 100.00 
C 665.33 134.86 665.34 173.07 667.00 208.00
C 667.00 172.00 667.00 136.00 667.00 100.00 Z"/>
</g>
<g fill="#002253" fill-opacity="0.98" stroke="None">
<path d="
M 668.00 206.00 
C 668.76 209.06 668.00 208.26 671.00 209.00
C 676.26 209.81 686.85 205.19 692.00 209.00
C 692.00 209.00 692.74 209.25 693.00 209.00
C 693.79 200.21 692.90 190.81 693.00 182.00 C 693.10 173.19 693.54 163.70 693.00 155.00 C 692.46 146.30 694.53 136.40 693.00 128.00 C 691.47 119.60 696.39 107.64 693.00 100.00
C 692.65 99.77 691.50 100.00 691.00 100.00
C 685.40 102.38 675.61 101.13 670.00 100.00
C 668.53 110.71 668.51 123.45 669.00 135.00 C 669.49 146.55 667.68 159.58 669.00 171.00 C 670.32 182.42 666.41 195.69 668.00 206.00
M 691.00 103.00 
C 691.67 137.58 689.67 172.87 692.00 207.00
C 684.74 206.40 676.83 208.24 670.00 206.00
C 672.33 172.17 670.33 137.25 671.00 103.00
C 677.67 103.00 684.33 103.00 691.00 103.00 Z"/>
</g>
<g fill="#002252" fill-opacity="0.96" stroke="None">
<path d="
M 691.00 100.00 
C 684.65 100.00 676.13 98.47 670.00 100.00
C 675.61 101.13 685.40 102.38 691.00 100.00 Z"/>
</g>
<g fill="#002252" fill-opacity="0.78" stroke="None">
<path d="
M 693.00 209.00 
C 697.14 205.00 692.82 193.00 694.00 187.00 C 695.18 181.00 693.67 171.44 694.00 165.00 C 694.33 158.56 694.30 149.29 694.00 143.00 C 693.70 136.71 695.12 126.44 694.00 121.00 C 692.88 115.56 697.17 102.71 693.00 100.00
C 696.39 107.64 691.47 119.60 693.00 128.00 C 694.53 136.40 692.46 146.30 693.00 155.00 C 693.54 163.70 693.10 173.19 693.00 182.00 C 692.90 190.81 693.79 200.21 693.00 209.00 Z"/>
</g>
<g fill="#00007D" fill-opacity="0.01" stroke="None">
<path d="
M 696.00 100.00 
C 694.33 134.86 694.33 173.07 696.00 208.00
C 696.00 172.00 696.00 136.00 696.00 100.00 Z"/>
</g>
<g fill="#002253" fill-opacity="0.98" stroke="None">
<path d="
M 1147.00 100.00 
C 1138.16 100.65 1128.09 98.69 1120.00 101.00
C 1128.84 100.35 1138.91 102.31 1147.00 100.00 Z"/>
</g>
<g fill="#002252" fill-opacity="1.00" stroke="None">
<path d="
M 691.00 103.00 
C 684.33 103.00 677.67 103.00 671.00 103.00
C 670.33 137.25 672.33 172.17 670.00 206.00
C 676.83 208.24 684.74 206.40 692.00 207.00
C 689.67 172.87 691.67 137.58 691.00 103.00 Z"/>
</g>
<g fill="#004041" fill-opacity="0.00" stroke="None">
<path d="
M 245.00 131.00 
C 237.88 123.04 230.00 115.17 222.00 108.00
C 227.85 116.34 236.65 125.12 245.00 131.00 Z"/>
</g>
<g fill="#00007D" fill-opacity="0.01" stroke="None">
<path d="
M 534.00 110.00 
C 533.18 109.18 534.74 110.74 534.00 110.00 Z"/>
</g>
<g fill="#002253" fill-opacity="0.97" stroke="None">
<path d="
M 1141.00 118.00 
C 1134.16 118.63 1126.09 116.71 1120.00 119.00
C 1126.84 118.37 1134.91 120.29 1141.00 118.00 Z"/>
</g>
<g fill="#000000" fill-opacity="0.00" stroke="None">
<path d="
M 744.00 185.00 
C 743.96 178.50 750.74 190.43 759.00 188.00 C 767.26 185.57 778.70 190.70 785.75 185.75 C 792.80 180.81 795.34 174.27 795.00 166.00 C 794.66 157.73 795.77 144.76 794.98 137.02 C 794.18 129.29 789.23 123.20 782.01 120.99 C 774.78 118.79 761.96 119.58 754.22 120.22 C 746.49 120.86 741.41 126.61 738.98 133.98 C 736.54 141.35 738.99 153.68 738.00 162.00 C 737.01 170.32 739.93 178.19 744.00 185.00
M 794.00 137.00 
C 794.00 148.00 794.00 159.00 794.00 170.00
C 792.35 160.07 792.32 146.86 794.00 137.00
M 740.00 138.00 
C 740.00 149.00 740.00 160.00 740.00 171.00
C 738.35 161.07 738.32 147.86 740.00 138.00
M 776.00 186.00 
C 770.25 188.28 762.51 186.37 756.00 187.00
C 761.75 184.72 769.49 186.63 776.00 186.00 Z"/>
</g>
<g fill="#000000" fill-opacity="0.00" stroke="None">
<path d="
M 979.00 174.00 
C 977.65 161.14 980.02 147.89 979.00 135.00
C 980.54 141.33 980.37 151.06 980.00 158.00 C 979.63 164.94 981.41 174.21 980.00 178.00
C 985.23 191.02 1016.26 193.42 1026.75 183.75 C 1037.25 174.08 1036.93 145.54 1032.31 131.70 C 1027.68 117.85 998.06 114.94 986.25 123.25 C 974.44 131.56 975.97 161.22 979.00 174.00
M 1033.00 139.00 
C 1033.00 149.33 1033.00 159.67 1033.00 170.00
C 1031.35 160.74 1031.32 148.19 1033.00 139.00
M 1018.00 186.00 
C 1011.24 188.30 1002.51 186.36 995.00 187.00
C 1001.76 184.70 1010.49 186.64 1018.00 186.00 Z"/>
</g>
<g fill="#002253" fill-opacity="0.44" stroke="None">
<path d="
M 1122.00 121.00 
C 1127.11 120.65 1132.90 120.54 1138.00 121.00
C 1132.92 119.95 1127.13 120.08 1122.00 121.00 Z"/>
</g>
<g fill="#000000" fill-opacity="0.00" stroke="None">
<path d="
M 1116.00 186.00 
C 1116.50 186.01 1117.00 186.00 1117.00 186.00
C 1120.25 183.59 1137.81 183.65 1141.00 186.00
C 1141.50 186.00 1142.00 186.00 1142.00 186.00
C 1158.49 184.77 1153.58 162.95 1155.00 150.00 C 1156.42 137.05 1151.95 123.89 1138.00 121.00
C 1132.90 120.54 1127.11 120.65 1122.00 121.00
C 1106.51 122.05 1099.52 138.19 1100.00 151.00 C 1100.48 163.81 1099.23 185.66 1116.00 186.00
M 1140.00 122.00 
C 1134.58 124.28 1127.17 122.37 1121.00 123.00
C 1126.42 120.72 1133.83 122.63 1140.00 122.00
M 1154.00 138.00 
C 1154.00 148.33 1154.00 158.67 1154.00 169.00
C 1152.35 159.74 1152.32 147.19 1154.00 138.00 Z"/>
</g>
<g fill="#003062" fill-opacity="0.02" stroke="None">
<path d="
M 1140.00 122.00 
C 1133.83 122.63 1126.42 120.72 1121.00 123.00
C 1127.17 122.37 1134.58 124.28 1140.00 122.00 Z"/>
</g>
<g fill="#000054" fill-opacity="0.01" stroke="None">
<path d="
M 509.00 123.00 
C 509.00 123.00 508.29 123.25 508.00 123.00
C 504.14 123.23 510.85 126.49 512.00 128.00
C 511.87 126.21 510.31 124.23 509.00 123.00 Z"/>
</g>
<g fill="#003062" fill-opacity="0.00" stroke="None">
<path d="
M 172.00 157.00 
C 163.82 146.33 152.69 135.20 142.00 127.00
C 151.45 137.29 161.67 147.49 172.00 157.00 Z"/>
</g>
<g fill="#004041" fill-opacity="0.00" stroke="None">
<path d="
M 258.00 144.00 
C 254.56 139.70 250.32 135.52 246.00 132.00
C 248.22 136.69 253.32 141.73 258.00 144.00 Z"/>
</g>
<g fill="#000054" fill-opacity="0.01" stroke="None">
<path d="
M 1183.00 133.00 
C 1181.33 145.86 1181.34 162.07 1183.00 175.00
C 1183.00 161.00 1183.00 147.00 1183.00 133.00 Z"/>
</g>
<g fill="#00007D" fill-opacity="0.01" stroke="None">
<path d="
M 823.00 134.00 
C 821.33 146.52 821.34 162.41 823.00 175.00
C 823.00 161.33 823.00 147.67 823.00 134.00 Z"/>
</g>
<g fill="#000054" fill-opacity="0.01" stroke="None">
<path d="
M 950.00 135.00 
C 948.33 146.86 948.34 162.07 950.00 174.00
C 950.00 161.00 950.00 148.00 950.00 135.00 Z"/>
</g>
<g fill="#00007D" fill-opacity="0.01" stroke="None">
<path d="
M 979.00 174.00 
C 979.18 175.70 979.39 176.48 980.00 178.00
C 981.41 174.21 979.63 164.94 980.00 158.00 C 980.37 151.06 980.54 141.33 979.00 135.00
C 980.02 147.89 977.65 161.14 979.00 174.00 Z"/>
</g>
<g fill="#002253" fill-opacity="0.98" stroke="None">
<path d="
M 976.00 136.00 
C 974.33 147.19 974.34 161.74 976.00 173.00
C 976.00 160.67 976.00 148.33 976.00 136.00 Z"/>
</g>
<g fill="#003062" fill-opacity="0.02" stroke="None">
<path d="
M 548.00 137.00 
C 546.33 147.52 546.34 161.41 548.00 172.00
C 548.00 160.33 548.00 148.67 548.00 137.00 Z"/>
</g>
<g fill="#00007D" fill-opacity="0.01" stroke="None">
<path d="
M 794.00 137.00 
C 792.32 146.86 792.35 160.07 794.00 170.00
C 794.00 159.00 794.00 148.00 794.00 137.00 Z"/>
</g>
<g fill="#000054" fill-opacity="0.01" stroke="None">
<path d="
M 1063.00 137.00 
C 1061.32 147.19 1061.34 160.74 1063.00 171.00
C 1063.00 159.67 1063.00 148.33 1063.00 137.00 Z"/>
</g>
<g fill="#000054" fill-opacity="0.01" stroke="None">
<path d="
M 711.00 138.00 
C 709.32 147.86 709.35 161.07 711.00 171.00
C 711.00 160.00 711.00 149.00 711.00 138.00 Z"/>
</g>
<g fill="#00007D" fill-opacity="0.01" stroke="None">
<path d="
M 740.00 138.00 
C 738.32 147.86 738.35 161.07 740.00 171.00
C 740.00 160.00 740.00 149.00 740.00 138.00 Z"/>
</g>
<g fill="#000054" fill-opacity="0.01" stroke="None">
<path d="
M 1154.00 138.00 
C 1152.32 147.19 1152.35 159.74 1154.00 169.00
C 1154.00 158.67 1154.00 148.33 1154.00 138.00 Z"/>
</g>
<g fill="#000054" fill-opacity="0.01" stroke="None">
<path d="
M 540.00 139.00 
C 532.49 139.64 523.76 137.70 517.00 140.00
C 524.51 139.36 533.24 141.30 540.00 139.00 Z"/>
</g>
<g fill="#000054" fill-opacity="0.01" stroke="None">
<path d="
M 651.00 139.00 
C 643.49 139.64 634.76 137.70 628.00 140.00
C 635.51 139.36 644.24 141.30 651.00 139.00 Z"/>
</g>
<g fill="#002253" fill-opacity="0.66" stroke="None">
<path d="
M 821.00 170.00 
C 821.39 159.77 821.39 149.23 821.00 139.00
C 820.43 148.64 820.43 160.29 821.00 170.00 Z"/>
</g>
<g fill="#000054" fill-opacity="0.01" stroke="None">
<path d="
M 1033.00 139.00 
C 1031.32 148.19 1031.35 160.74 1033.00 170.00
C 1033.00 159.67 1033.00 149.33 1033.00 139.00 Z"/>
</g>
<g fill="#00007D" fill-opacity="0.01" stroke="None">
<path d="
M 466.00 140.00 
C 464.32 148.52 464.35 160.41 466.00 169.00
C 466.00 159.33 466.00 149.67 466.00 140.00 Z"/>
</g>
<g fill="#003062" fill-opacity="0.02" stroke="None">
<path d="
M 577.00 140.00 
C 575.32 149.19 575.35 161.74 577.00 171.00
C 577.00 160.67 577.00 150.33 577.00 140.00 Z"/>
</g>
<g fill="#002253" fill-opacity="0.45" stroke="None">
<path d="
M 712.00 169.00 
C 712.53 159.99 712.70 149.10 712.00 140.00
C 711.81 149.61 711.63 159.39 712.00 169.00 Z"/>
</g>
<g fill="#002253" fill-opacity="0.98" stroke="None">
<path d="
M 1037.00 140.00 
C 1035.32 148.85 1035.35 161.07 1037.00 170.00
C 1037.00 160.00 1037.00 150.00 1037.00 140.00 Z"/>
</g>
<g fill="#002253" fill-opacity="0.33" stroke="None">
<path d="
M 575.00 167.00 
C 574.69 158.75 574.69 150.25 575.00 142.00
C 573.89 149.74 573.88 159.19 575.00 167.00 Z"/>
</g>
<g fill="#003062" fill-opacity="0.00" stroke="None">
<path d="
M 113.00 150.00 
C 110.58 152.84 108.04 155.68 105.00 158.00
C 104.37 158.64 103.60 159.41 103.00 160.00
C 102.05 161.23 101.43 162.14 100.00 163.00
C 99.74 163.22 99.25 163.75 99.00 164.00
C 98.79 164.31 98.32 164.80 98.00 165.00
C 95.14 168.67 91.61 172.19 88.00 175.00
C 87.80 175.32 87.32 175.80 87.00 176.00
C 85.63 177.75 83.17 179.38 82.00 181.00
C 81.48 181.95 81.41 183.13 81.00 184.00
C 94.29 171.55 107.50 158.33 120.00 145.00
C 117.46 145.60 114.92 148.08 113.00 150.00 Z"/>
</g>
<g fill="#00007D" fill-opacity="0.01" stroke="None">
<path d="
M 387.00 147.00 
C 374.32 145.73 359.00 149.58 348.00 145.00
C 350.00 150.69 360.90 147.43 367.00 148.00 C 373.10 148.57 381.55 148.39 387.00 147.00 Z"/>
</g>
<g fill="#004041" fill-opacity="0.00" stroke="None">
<path d="
M 272.00 158.00 
C 269.56 154.69 266.30 151.54 263.00 149.00
C 264.25 152.70 268.32 156.69 272.00 158.00 Z"/>
</g>
<g fill="#002253" fill-opacity="0.41" stroke="None">
<path d="
M 388.00 149.00 
C 383.31 151.01 373.18 149.00 368.00 149.00 C 362.82 149.00 352.69 151.01 348.00 149.00
C 352.17 151.80 362.64 150.01 368.00 150.00 C 373.36 149.99 383.78 151.83 388.00 149.00 Z"/>
</g>
<g fill="#00007D" fill-opacity="0.01" stroke="None">
<path d="
M 851.00 154.00 
C 843.16 154.64 834.09 152.70 827.00 155.00
C 834.84 154.36 843.91 156.30 851.00 154.00 Z"/>
</g>
<g fill="#002252" fill-opacity="0.11" stroke="None">
<path d="
M 852.00 159.00 
C 850.68 154.95 844.93 155.36 841.00 156.00 C 837.07 156.64 831.45 154.33 828.00 156.00
C 829.75 155.29 837.99 157.97 841.00 157.00 C 844.01 156.03 850.68 156.39 852.00 159.00 Z"/>
</g>
<g fill="#000054" fill-opacity="0.01" stroke="None">
<path d="
M 825.00 157.00 
C 823.28 158.89 823.48 164.04 825.00 166.00
C 825.00 163.00 825.00 160.00 825.00 157.00 Z"/>
</g>
<g fill="#007EED" fill-opacity="0.02" stroke="None">
<path d="
M 103.00 160.00 
C 103.60 159.41 104.37 158.64 105.00 158.00
C 104.08 158.70 103.74 159.05 103.00 160.00 Z"/>
</g>
<g fill="#003062" fill-opacity="0.01" stroke="None">
<path d="
M 191.00 176.00 
C 186.81 169.32 179.69 162.23 173.00 158.00
C 178.45 164.29 184.67 170.49 191.00 176.00 Z"/>
</g>
<g fill="#002252" fill-opacity="0.97" stroke="None">
<path d="
M 137.00 161.00 
C 132.09 164.60 128.58 171.19 124.25 175.25 C 119.92 179.30 113.66 183.12 110.25 188.25 C 106.84 193.37 98.57 196.81 96.00 202.00
C 97.00 211.57 109.63 219.29 116.75 227.25 C 123.87 235.21 132.75 243.85 141.00 250.00
C 147.67 243.52 151.66 237.37 159.25 231.25 C 166.84 225.13 168.75 218.74 177.75 212.75 C 186.76 206.76 182.79 198.74 174.75 193.25 C 166.71 187.75 163.43 179.75 156.25 174.75 C 149.06 169.75 144.94 157.79 137.00 161.00 Z"/>
</g>
<g fill="#002252" fill-opacity="0.01" stroke="None">
<path d="
M 96.00 202.00 
C 98.57 196.81 106.84 193.37 110.25 188.25 C 113.66 183.12 119.92 179.30 124.25 175.25 C 128.58 171.19 132.09 164.60 137.00 161.00
C 130.95 163.44 121.12 174.73 115.75 180.75 C 110.39 186.78 97.25 195.38 96.00 202.00 Z"/>
</g>
<g fill="#3BA5FD" fill-opacity="0.03" stroke="None">
<path d="
M 99.00 164.00 
C 99.25 163.75 99.74 163.22 100.00 163.00
C 99.68 163.19 99.21 163.69 99.00 164.00 Z"/>
</g>
<g fill="#003062" fill-opacity="0.00" stroke="None">
<path d="
M 273.00 163.00 
C 262.00 171.51 250.54 182.98 242.00 194.00
C 252.62 184.22 263.16 173.66 273.00 163.00 Z"/>
</g>
<g fill="#004041" fill-opacity="0.00" stroke="None">
<path d="
M 20.00 176.00 
C 17.78 171.31 12.68 166.27 8.00 164.00
C 11.44 168.30 15.68 172.48 20.00 176.00 Z"/>
</g>
<g fill="#007EED" fill-opacity="0.02" stroke="None">
<path d="
M 88.00 175.00 
C 91.61 172.19 95.14 168.67 98.00 165.00
C 94.55 167.13 90.17 171.50 88.00 175.00 Z"/>
</g>
<g fill="#000054" fill-opacity="0.01" stroke="None">
<path d="
M 542.00 165.00 
C 534.16 165.64 525.09 163.70 518.00 166.00
C 525.84 165.36 534.91 167.30 542.00 165.00 Z"/>
</g>
<g fill="#000054" fill-opacity="0.01" stroke="None">
<path d="
M 653.00 165.00 
C 645.82 165.64 637.42 163.71 631.00 166.00
C 638.18 165.36 646.58 167.29 653.00 165.00 Z"/>
</g>
<g fill="#002253" fill-opacity="0.98" stroke="None">
<path d="
M 539.00 176.00 
C 543.55 170.53 536.65 167.51 532.00 169.00 C 527.35 170.49 519.53 165.95 519.00 172.00
C 523.46 169.54 541.28 166.06 539.00 176.00 Z"/>
</g>
<g fill="#007EED" fill-opacity="0.02" stroke="None">
<path d="
M 82.00 181.00 
C 83.17 179.38 85.63 177.75 87.00 176.00
C 85.11 177.17 83.11 178.98 82.00 181.00 Z"/>
</g>
<g fill="#004041" fill-opacity="0.00" stroke="None">
<path d="
M 29.00 185.00 
C 28.06 181.63 24.34 178.00 21.00 177.00
C 23.10 179.98 26.04 182.79 29.00 185.00 Z"/>
</g>
<g fill="#003062" fill-opacity="0.01" stroke="None">
<path d="
M 197.00 182.00 
C 196.94 179.61 194.33 177.14 192.00 177.00
C 193.09 179.00 195.07 180.74 197.00 182.00 Z"/>
</g>
<g fill="#003062" fill-opacity="0.00" stroke="None">
<path d="
M 53.00 209.00 
C 46.82 200.33 37.69 191.21 29.00 185.00
C 36.45 193.29 44.67 201.49 53.00 209.00 Z"/>
</g>
<g fill="#00007D" fill-opacity="0.01" stroke="None">
<path d="
M 893.00 185.00 
C 886.16 185.63 878.09 183.71 872.00 186.00
C 878.84 185.37 886.91 187.29 893.00 185.00 Z"/>
</g>
<g fill="#00007D" fill-opacity="0.01" stroke="None">
<path d="
M 1117.00 186.00 
C 1125.00 186.00 1133.00 186.00 1141.00 186.00
C 1137.81 183.65 1120.25 183.59 1117.00 186.00 Z"/>
</g>
<g fill="#00007D" fill-opacity="0.01" stroke="None">
<path d="
M 504.00 186.00 
C 495.82 186.64 486.42 184.70 479.00 187.00
C 487.18 186.36 496.58 188.30 504.00 186.00 Z"/>
</g>
<g fill="#00007D" fill-opacity="0.01" stroke="None">
<path d="
M 612.00 186.00 
C 605.82 186.63 598.42 184.72 593.00 187.00
C 599.18 186.37 606.58 188.28 612.00 186.00 Z"/>
</g>
<g fill="#00007D" fill-opacity="0.01" stroke="None">
<path d="
M 776.00 186.00 
C 769.49 186.63 761.75 184.72 756.00 187.00
C 762.51 186.37 770.25 188.28 776.00 186.00 Z"/>
</g>
<g fill="#003062" fill-opacity="0.02" stroke="None">
<path d="
M 1018.00 186.00 
C 1010.49 186.64 1001.76 184.70 995.00 187.00
C 1002.51 186.36 1011.24 188.30 1018.00 186.00 Z"/>
</g>
<g fill="#000000" fill-opacity="0.00" stroke="None">
<path d="
M 1142.00 186.00 
C 1142.00 186.00 1141.50 186.00 1141.00 186.00
C 1133.00 186.00 1125.00 186.00 1117.00 186.00
C 1117.00 186.00 1116.50 186.01 1116.00 186.00
C 1123.16 187.77 1134.78 187.96 1142.00 186.00 Z"/>
</g>
<g fill="#003062" fill-opacity="0.00" stroke="None">
<path d="
M 241.00 195.00 
C 235.98 197.54 230.59 202.98 228.00 208.00
C 232.63 204.22 237.15 199.65 241.00 195.00 Z"/>
</g>
<g fill="#002253" fill-opacity="0.99" stroke="None">
<path d="
M 800.00 200.00 
C 797.94 201.48 793.87 201.71 794.00 205.00
C 796.12 202.40 800.91 205.15 800.00 200.00 Z"/>
</g>
<g fill="#00007D" fill-opacity="0.01" stroke="None">
<path d="
M 451.00 201.00 
C 450.18 200.18 451.74 201.74 451.00 201.00 Z"/>
</g>
<g fill="#002252" fill-opacity="0.37" stroke="None">
<path d="
M 671.00 209.00 
C 677.14 210.52 685.65 209.00 692.00 209.00
C 686.85 205.19 676.26 209.81 671.00 209.00 Z"/>
</g>
<g fill="#003062" fill-opacity="0.02" stroke="None">
<path d="
M 323.00 210.00 
C 314.82 210.64 305.42 208.70 298.00 211.00
C 306.18 210.36 315.58 212.30 323.00 210.00 Z"/>
</g>
<g fill="#003062" fill-opacity="0.02" stroke="None">
<path d="
M 438.00 210.00 
C 429.82 210.64 420.42 208.70 413.00 211.00
C 421.18 210.36 430.58 212.30 438.00 210.00 Z"/>
</g>
<g fill="#003062" fill-opacity="0.02" stroke="None">
<path d="
M 693.00 210.00 
C 685.16 210.64 676.09 208.70 669.00 211.00
C 676.84 210.36 685.91 212.30 693.00 210.00 Z"/>
</g>
<g fill="#003062" fill-opacity="0.02" stroke="None">
<path d="
M 1098.00 210.00 
C 1090.49 210.64 1081.75 208.70 1075.00 211.00
C 1082.51 210.36 1091.24 212.30 1098.00 210.00 Z"/>
</g>
<g fill="#00007D" fill-opacity="0.01" stroke="None">
<path d="
M 500.00 212.00 
C 494.16 212.62 487.09 210.73 482.00 213.00
C 487.84 212.38 494.91 214.27 500.00 212.00 Z"/>
</g>
<g fill="#00007D" fill-opacity="0.01" stroke="None">
<path d="
M 611.00 212.00 
C 605.16 212.62 598.09 210.73 593.00 213.00
C 598.84 212.38 605.91 214.27 611.00 212.00 Z"/>
</g>
<g fill="#00007D" fill-opacity="0.01" stroke="None">
<path d="
M 776.00 212.00 
C 769.49 212.63 761.75 210.72 756.00 213.00
C 762.51 212.37 770.25 214.28 776.00 212.00 Z"/>
</g>
<g fill="#003062" fill-opacity="0.02" stroke="None">
<path d="
M 893.00 212.00 
C 886.16 212.63 878.09 210.71 872.00 213.00
C 878.84 212.37 886.91 214.29 893.00 212.00 Z"/>
</g>
<g fill="#003062" fill-opacity="0.02" stroke="None">
<path d="
M 1017.00 212.00 
C 1009.15 212.64 1000.09 210.70 993.00 213.00
C 1000.84 212.36 1009.91 214.30 1017.00 212.00 Z"/>
</g>
<g fill="#003062" fill-opacity="0.02" stroke="None">
<path d="
M 1140.00 212.00 
C 1134.49 212.62 1127.75 210.74 1123.00 213.00
C 1128.51 212.38 1135.25 214.26 1140.00 212.00 Z"/>
</g>
</svg>